<svg width="568" height="320" viewBox="0 0 568 320" fill="none" xmlns="http://www.w3.org/2000/svg">
<rect x="0.363636" y="0.363636" width="261.091" height="319.273" rx="3.27273" stroke="white" stroke-width="0.727273" stroke-dasharray="7.27 3.64"/>
<rect x="14.5459" y="14.5459" width="232.727" height="290.909" rx="7.27273" fill="#1A1919"/>
<path d="M14.5459 26.1823C14.5459 22.1092 14.5459 20.0726 15.3386 18.5169C16.0358 17.1484 17.1484 16.0358 18.5169 15.3386C20.0726 14.5459 22.1092 14.5459 26.1823 14.5459H235.637C239.71 14.5459 241.746 14.5459 243.302 15.3386C244.671 16.0358 245.783 17.1484 246.48 18.5169C247.273 20.0726 247.273 22.1092 247.273 26.1823V145.455H14.5459V26.1823Z" fill="#444040"/>
<rect x="29.8184" y="160.728" width="78.0909" height="21.8182" rx="10.9091" fill="#444040"/>
<path d="M45.9594 175.728L46.2852 173.885H45.094L45.206 173.172H46.4074L46.774 171.085H45.5012L45.6132 170.372H46.9063L47.222 168.6H47.9652L47.6496 170.372H49.5943L49.91 168.6H50.6532L50.3376 170.372H51.5696L51.4576 171.085H50.2154L49.8489 173.172H51.1725L51.0503 173.885H49.7165L49.3907 175.728H48.6474L48.9732 173.885H47.0285L46.7027 175.728H45.9594ZM47.1609 173.172H49.1056L49.4721 171.085H47.5274L47.1609 173.172ZM52.8817 175.728V168.6H53.7166V171.777H57.4839V168.6H58.3086V175.728H57.4839V172.551H53.7166V175.728H52.8817ZM64.0195 175.127C63.5376 175.595 62.9334 175.829 62.2071 175.829C61.4808 175.829 60.8767 175.599 60.3948 175.137C59.9128 174.669 59.6719 174.061 59.6719 173.314C59.6719 172.547 59.9094 171.93 60.3846 171.461C60.8665 170.986 61.474 170.749 62.2071 170.749C62.9334 170.749 63.5376 170.986 64.0195 171.461C64.5014 171.93 64.7424 172.547 64.7424 173.314C64.7424 174.054 64.5014 174.658 64.0195 175.127ZM62.2071 175.096C62.6891 175.096 63.0929 174.933 63.4188 174.608C63.7446 174.275 63.9075 173.841 63.9075 173.304C63.9075 172.754 63.7446 172.317 63.4188 171.991C63.0997 171.658 62.6959 171.492 62.2071 171.492C61.7184 171.492 61.3111 171.658 60.9853 171.991C60.6663 172.317 60.5068 172.754 60.5068 173.304C60.5068 173.841 60.6663 174.275 60.9853 174.608C61.3111 174.933 61.7184 175.096 62.2071 175.096ZM65.9839 175.728V170.85H68.5396C69.0215 170.85 69.3915 170.959 69.6494 171.176C69.9141 171.393 70.0465 171.699 70.0465 172.093C70.0465 172.33 69.9956 172.541 69.8938 172.724C69.7919 172.9 69.646 173.029 69.4559 173.111C69.9515 173.294 70.1992 173.688 70.1992 174.292C70.1992 174.753 70.0567 175.11 69.7716 175.361C69.4933 175.605 69.0826 175.728 68.5396 175.728H65.9839ZM66.7679 172.795H68.5396C68.7772 172.795 68.957 172.737 69.0792 172.622C69.2014 172.5 69.2625 172.337 69.2625 172.133C69.2625 171.726 69.0079 171.522 68.4989 171.522H66.7679V172.795ZM66.7679 175.056H68.509C68.8145 175.056 69.0419 174.984 69.1912 174.842C69.3473 174.699 69.4254 174.502 69.4254 174.251C69.4254 173.735 69.1335 173.477 68.5498 173.477H66.7679V175.056ZM71.5124 175.728V170.85H72.3269V174.373L75.1574 170.85H75.8498V175.728H75.0353V172.194L72.2047 175.728H71.5124ZM77.4385 175.728V170.85H78.253V172.928H80.9207V170.85H81.7352V175.728H80.9207V173.671H78.253V175.728H77.4385ZM83.3348 175.728V170.85H84.1493V172.846H85.1573L86.5115 170.85H87.3973L85.8293 173.182L87.5806 175.728H86.6439L85.1573 173.589H84.1493V175.728H83.3348ZM92.5399 175.127C92.5942 175.127 92.6519 175.12 92.713 175.106V175.799C92.6112 175.819 92.4958 175.829 92.3668 175.829C92.1156 175.829 91.9052 175.768 91.7355 175.646C91.5658 175.517 91.464 175.337 91.4301 175.106C91.0771 175.588 90.5341 175.829 89.801 175.829C89.2851 175.829 88.8642 175.7 88.5384 175.442C88.2194 175.185 88.0599 174.828 88.0599 174.373C88.0599 173.925 88.216 173.583 88.5282 173.345C88.8405 173.107 89.2308 172.965 89.6992 172.917L91.4199 172.724V172.632C91.4199 172.245 91.3045 171.947 91.0737 171.736C90.8429 171.526 90.5442 171.421 90.1777 171.421C89.879 171.421 89.6245 171.499 89.4141 171.655C89.2104 171.804 89.0747 172.008 89.0068 172.266L88.2839 172.103C88.3925 171.662 88.6233 171.326 88.9762 171.095C89.3292 170.864 89.7433 170.749 90.2184 170.749C90.8361 170.749 91.3249 170.912 91.6846 171.237C92.0512 171.556 92.2344 172.015 92.2344 172.612V174.832C92.2344 175.028 92.3362 175.127 92.5399 175.127ZM90.0657 175.178C90.4798 175.151 90.809 175.011 91.0533 174.76C91.2977 174.502 91.4199 174.153 91.4199 173.712V173.365L89.8315 173.549C89.1935 173.617 88.8744 173.888 88.8744 174.363C88.8744 174.641 88.9898 174.852 89.2206 174.994C89.4582 175.137 89.7399 175.198 90.0657 175.178Z" fill="white"/>
<rect x="117.091" y="160.728" width="53.0909" height="21.8182" rx="10.9091" fill="#444040"/>
<path d="M132.903 175.728L133.229 173.885H132.037L132.149 173.172H133.351L133.717 171.085H132.445L132.557 170.372H133.85L134.165 168.6H134.909L134.593 170.372H136.538L136.853 168.6H137.597L137.281 170.372H138.513L138.401 171.085H137.159L136.792 173.172H138.116L137.994 173.885H136.66L136.334 175.728H135.591L135.917 173.885H133.972L133.646 175.728H132.903ZM134.104 173.172H136.049L136.416 171.085H134.471L134.104 173.172ZM141.363 175.728V169.374H139.082V168.6H144.478V169.374H142.197V175.728H141.363ZM148.567 175.127C148.085 175.595 147.481 175.829 146.754 175.829C146.028 175.829 145.424 175.599 144.942 175.137C144.46 174.669 144.219 174.061 144.219 173.314C144.219 172.547 144.457 171.93 144.932 171.461C145.414 170.986 146.021 170.749 146.754 170.749C147.481 170.749 148.085 170.986 148.567 171.461C149.049 171.93 149.289 172.547 149.289 173.314C149.289 174.054 149.049 174.658 148.567 175.127ZM146.754 175.096C147.236 175.096 147.64 174.933 147.966 174.608C148.292 174.275 148.455 173.841 148.455 173.304C148.455 172.754 148.292 172.317 147.966 171.991C147.647 171.658 147.243 171.492 146.754 171.492C146.265 171.492 145.858 171.658 145.532 171.991C145.213 172.317 145.054 172.754 145.054 173.304C145.054 173.841 145.213 174.275 145.532 174.608C145.858 174.933 146.265 175.096 146.754 175.096ZM150.531 175.728V170.85H154.828V175.728H154.013V171.594H151.346V175.728H150.531Z" fill="white"/>
<rect x="21.8184" y="21.8184" width="93.0909" height="24" rx="12" fill="#474747"/>
<rect x="21.8184" y="21.8184" width="93.0909" height="24" rx="12" fill="#201E1E"/>
<g clip-path="url(#clip0_2003_1385)">
<path d="M39.9999 30.0913C39.9999 29.9707 39.952 29.8551 39.8668 29.7699C39.7815 29.6846 39.6659 29.6367 39.5454 29.6367C39.4248 29.6367 39.3092 29.6846 39.224 29.7699C39.1387 29.8551 39.0908 29.9707 39.0908 30.0913V35.0913C39.0908 35.1714 39.112 35.2501 39.1523 35.3194C39.1925 35.3886 39.2503 35.4461 39.3199 35.4858L42.5017 37.304C42.6061 37.3604 42.7285 37.3738 42.8426 37.3412C42.9568 37.3086 43.0536 37.2327 43.1125 37.1296C43.1714 37.0266 43.1876 36.9046 43.1578 36.7897C43.1279 36.6748 43.0543 36.5762 42.9526 36.5149L39.9999 34.8276V30.0913Z" fill="white"/>
<path d="M40.0003 41.4546C41.9291 41.4546 43.779 40.6884 45.1429 39.3245C46.5068 37.9606 47.273 36.1108 47.273 34.1819C47.273 32.2531 46.5068 30.4032 45.1429 29.0393C43.779 27.6754 41.9291 26.9092 40.0003 26.9092C38.0714 26.9092 36.2216 27.6754 34.8577 29.0393C33.4938 30.4032 32.7275 32.2531 32.7275 34.1819C32.7275 36.1108 33.4938 37.9606 34.8577 39.3245C36.2216 40.6884 38.0714 41.4546 40.0003 41.4546ZM46.3639 34.1819C46.3639 35.8696 45.6934 37.4883 44.5 38.6817C43.3066 39.8751 41.688 40.5455 40.0003 40.5455C38.3125 40.5455 36.6939 39.8751 35.5005 38.6817C34.3071 37.4883 33.6366 35.8696 33.6366 34.1819C33.6366 32.4942 34.3071 30.8755 35.5005 29.6821C36.6939 28.4887 38.3125 27.8183 40.0003 27.8183C41.688 27.8183 43.3066 28.4887 44.5 29.6821C45.6934 30.8755 46.3639 32.4942 46.3639 34.1819Z" fill="white"/>
</g>
<path d="M57.2436 38.2835C56.6395 38.2835 56.1304 38.1375 55.7163 37.8456C55.3023 37.5538 55.0409 37.1635 54.9323 36.6747L55.645 36.4304C55.7197 36.7698 55.8962 37.0413 56.1745 37.2449C56.4528 37.4485 56.799 37.5504 57.213 37.5504C57.661 37.5504 58.0412 37.435 58.3534 37.2042C58.6724 36.9734 58.832 36.634 58.832 36.186C58.832 35.7448 58.6724 35.4122 58.3534 35.1882C58.0412 34.9574 57.6407 34.842 57.152 34.842H56.3374V34.1598H57.152C57.6135 34.1598 57.9903 34.0614 58.2821 33.8645C58.5808 33.6609 58.7301 33.3622 58.7301 32.9685C58.7301 32.5545 58.574 32.2389 58.2618 32.0216C57.9563 31.7976 57.5898 31.6856 57.1621 31.6856C56.7684 31.6856 56.4358 31.7875 56.1643 31.9911C55.8928 32.1947 55.7197 32.4662 55.645 32.8056L54.9323 32.5613C55.0477 32.0658 55.309 31.6755 55.7163 31.3904C56.1236 31.0985 56.6191 30.9525 57.2029 30.9525C57.8749 30.9525 58.4349 31.1358 58.8829 31.5024C59.3377 31.8621 59.565 32.3475 59.565 32.9584C59.565 33.6982 59.2155 34.2141 58.5163 34.506C59.2833 34.8454 59.6669 35.4156 59.6669 36.2165C59.6669 36.8682 59.4327 37.3773 58.9643 37.7438C58.5027 38.1036 57.9292 38.2835 57.2436 38.2835ZM61.0162 35.8398V35.1271H65.8933V35.8398H61.0162ZM69.6196 38.2835C69.0358 38.2835 68.5335 38.1409 68.1127 37.8558C67.6986 37.5639 67.4373 37.1804 67.3287 36.7053L68.0516 36.4609C68.1195 36.7867 68.2892 37.0515 68.5607 37.2551C68.839 37.4519 69.175 37.5504 69.5687 37.5504C70.0642 37.5504 70.4681 37.3909 70.7803 37.0718C71.0926 36.746 71.2487 36.3319 71.2487 35.8296C71.2487 35.3341 71.096 34.9302 70.7905 34.618C70.485 34.3058 70.0913 34.1496 69.6094 34.1496C69.2361 34.1496 68.9204 34.2379 68.6625 34.4144C68.4046 34.5909 68.2383 34.8352 68.1636 35.1475L67.4407 34.9438V31.0544H71.7883V31.7875H68.184V34.0275C68.5301 33.6134 69.0223 33.4064 69.6603 33.4064C70.3663 33.4064 70.9466 33.6304 71.4014 34.0784C71.8562 34.5264 72.0836 35.1135 72.0836 35.8398C72.0836 36.5661 71.8528 37.1567 71.3912 37.6115C70.9364 38.0595 70.3459 38.2835 69.6196 38.2835ZM80.5398 33.3045H81.3951V38.1816H80.5806V34.8624L78.8293 38.1816H78.2591L76.5078 34.842V38.1816H75.6933V33.3045H76.5587L78.5544 37.1533L80.5398 33.3045ZM82.9916 38.1816V33.3045H83.8061V36.8275L86.6367 33.3045H87.329V38.1816H86.5145V34.6485L83.6839 38.1816H82.9916ZM88.9177 38.1816V33.3045H89.7323V35.3816H92.3999V33.3045H93.2144V38.1816H92.3999V36.1249H89.7323V38.1816H88.9177ZM98.4591 33.3045H99.3246L96.1987 40.218H95.4046L96.3515 38.1816L94.1115 33.3045H94.9871L96.7282 37.2144L98.4591 33.3045ZM101.242 38.1816V34.0478H99.5521V33.3045H103.737V34.0478H102.057V38.1816H101.242Z" fill="white"/>
<path d="M30.6627 215.182V202.963H39.966V215.182H38.5522V204.29H32.094V215.182H30.6627ZM42.8964 215.182V206.821H44.2928V212.86L49.1452 206.821H50.3321V215.182H48.9357V209.125L44.0833 215.182H42.8964ZM54.8708 215.182V208.095H51.9733V206.821H59.1472V208.095H56.2672V215.182H54.8708ZM67.4833 214.152C66.6572 214.955 65.6215 215.356 64.3764 215.356C63.1313 215.356 62.0957 214.961 61.2695 214.169C60.4433 213.366 60.0303 212.325 60.0303 211.045C60.0303 209.73 60.4375 208.671 61.2521 207.868C62.0783 207.054 63.1197 206.646 64.3764 206.646C65.6215 206.646 66.6572 207.054 67.4833 207.868C68.3095 208.671 68.7226 209.73 68.7226 211.045C68.7226 212.313 68.3095 213.349 67.4833 214.152ZM64.3764 214.099C65.2026 214.099 65.895 213.82 66.4535 213.262C67.0121 212.691 67.2913 211.947 67.2913 211.027C67.2913 210.085 67.0121 209.334 66.4535 208.776C65.9066 208.206 65.2143 207.921 64.3764 207.921C63.5386 207.921 62.8404 208.206 62.2819 208.776C61.735 209.334 61.4615 210.085 61.4615 211.027C61.4615 211.947 61.735 212.691 62.2819 213.262C62.8404 213.82 63.5386 214.099 64.3764 214.099ZM79.1593 206.821H80.6255V215.182H79.2292V209.491L76.227 215.182H75.2495L72.2473 209.457V215.182H70.851V206.821H72.3346L75.7557 213.419L79.1593 206.821ZM86.9754 215.356C85.7653 215.356 84.7645 214.961 83.9733 214.169C83.182 213.366 82.7863 212.313 82.7863 211.01C82.7863 209.707 83.1762 208.654 83.9558 207.851C84.7471 207.048 85.742 206.646 86.9405 206.646C88.1274 206.646 89.0933 207.03 89.838 207.798C90.5943 208.566 90.9725 209.585 90.9725 210.853C90.9725 210.993 90.9609 211.144 90.9376 211.307H84.1827C84.2293 212.191 84.5085 212.895 85.0205 213.419C85.5325 213.942 86.1842 214.204 86.9754 214.204C87.5805 214.204 88.1042 214.059 88.5463 213.768C88.9885 213.465 89.2678 213.058 89.3842 212.546L90.6234 212.947C90.414 213.704 89.9718 214.297 89.2969 214.728C88.6336 215.147 87.8598 215.356 86.9754 215.356ZM84.2525 210.207H89.5936C89.5005 209.497 89.2154 208.921 88.7383 208.479C88.2613 208.037 87.6678 207.816 86.958 207.816C86.2598 207.816 85.6663 208.031 85.1776 208.462C84.6889 208.892 84.3805 209.474 84.2525 210.207ZM100.81 217.835V215.182H93.0953V206.821H94.4917V213.907H99.0648V206.821H100.461V213.907H102.207V217.835H100.81ZM107.857 215.182V206.821H109.253V212.86L114.105 206.821H115.292V215.182H113.896V209.125L109.044 215.182H107.857ZM125.53 215.356C124.32 215.356 123.331 214.984 122.563 214.239C121.795 213.494 121.411 212.395 121.411 210.94C121.411 210.44 121.457 209.922 121.551 209.387C121.644 208.84 121.812 208.246 122.057 207.606C122.301 206.966 122.604 206.379 122.964 205.843C123.325 205.308 123.808 204.814 124.413 204.36C125.018 203.906 125.693 203.574 126.438 203.365L129.021 202.649L129.039 203.906L126.892 204.534C125.821 204.849 124.983 205.314 124.378 205.931C123.773 206.547 123.29 207.473 122.929 208.706C123.651 207.717 124.64 207.222 125.897 207.222C127.014 207.222 127.933 207.595 128.655 208.339C129.388 209.084 129.754 210.05 129.754 211.237C129.754 212.482 129.359 213.483 128.567 214.239C127.776 214.984 126.764 215.356 125.53 215.356ZM123.628 213.331C124.151 213.843 124.803 214.099 125.583 214.099C126.362 214.099 127.014 213.843 127.537 213.331C128.061 212.819 128.323 212.139 128.323 211.289C128.323 210.451 128.061 209.777 127.537 209.265C127.014 208.753 126.356 208.497 125.565 208.497C124.785 208.497 124.134 208.758 123.61 209.282C123.098 209.806 122.842 210.481 122.842 211.307C122.842 212.145 123.104 212.819 123.628 213.331ZM131.891 215.182V206.821H133.287V212.86L138.139 206.821H139.326V215.182H137.93V209.125L133.078 215.182H131.891ZM148.909 214.152C148.083 214.955 147.048 215.356 145.803 215.356C144.557 215.356 143.522 214.961 142.696 214.169C141.869 213.366 141.456 212.325 141.456 211.045C141.456 209.73 141.864 208.671 142.678 207.868C143.504 207.054 144.546 206.646 145.803 206.646C147.048 206.646 148.083 207.054 148.909 207.868C149.736 208.671 150.149 209.73 150.149 211.045C150.149 212.313 149.736 213.349 148.909 214.152ZM145.803 214.099C146.629 214.099 147.321 213.82 147.88 213.262C148.438 212.691 148.717 211.947 148.717 211.027C148.717 210.085 148.438 209.334 147.88 208.776C147.333 208.206 146.64 207.921 145.803 207.921C144.965 207.921 144.267 208.206 143.708 208.776C143.161 209.334 142.888 210.085 142.888 211.027C142.888 211.947 143.161 212.691 143.708 213.262C144.267 213.82 144.965 214.099 145.803 214.099ZM156.135 218.673V215.339C154.785 215.222 153.703 214.78 152.888 214.012C152.085 213.233 151.684 212.243 151.684 211.045C151.684 209.811 152.085 208.805 152.888 208.025C153.703 207.234 154.785 206.78 156.135 206.664V202.963H157.391V206.681C158.741 206.798 159.829 207.251 160.655 208.043C161.481 208.822 161.895 209.823 161.895 211.045C161.895 212.22 161.481 213.198 160.655 213.977C159.829 214.745 158.741 215.193 157.391 215.321V218.673H156.135ZM156.135 214.047V207.955C155.215 208.049 154.482 208.369 153.935 208.915C153.388 209.462 153.115 210.172 153.115 211.045C153.115 211.871 153.388 212.558 153.935 213.105C154.482 213.64 155.215 213.954 156.135 214.047ZM157.391 214.047C158.311 213.931 159.049 213.605 159.608 213.07C160.178 212.534 160.463 211.859 160.463 211.045C160.463 210.195 160.178 209.497 159.608 208.95C159.049 208.403 158.311 208.072 157.391 207.955V214.047ZM162.768 215.356V214.082H163.152C164.117 214.082 164.635 213.535 164.705 212.441L165.124 206.821H171.809V215.182H170.413V208.095H166.433L166.101 212.476C166.032 213.407 165.746 214.123 165.246 214.623C164.746 215.112 164.048 215.356 163.152 215.356H162.768ZM181.398 214.152C180.572 214.955 179.536 215.356 178.291 215.356C177.046 215.356 176.01 214.961 175.184 214.169C174.358 213.366 173.945 212.325 173.945 211.045C173.945 209.73 174.352 208.671 175.167 207.868C175.993 207.054 177.034 206.646 178.291 206.646C179.536 206.646 180.572 207.054 181.398 207.868C182.224 208.671 182.637 209.73 182.637 211.045C182.637 212.313 182.224 213.349 181.398 214.152ZM178.291 214.099C179.117 214.099 179.81 213.82 180.368 213.262C180.927 212.691 181.206 211.947 181.206 211.027C181.206 210.085 180.927 209.334 180.368 208.776C179.821 208.206 179.129 207.921 178.291 207.921C177.453 207.921 176.755 208.206 176.197 208.776C175.65 209.334 175.376 210.085 175.376 211.027C175.376 211.947 175.65 212.691 176.197 213.262C176.755 213.82 177.453 214.099 178.291 214.099ZM189.217 206.646C190.392 206.646 191.369 207.054 192.149 207.868C192.929 208.683 193.318 209.73 193.318 211.01C193.318 212.29 192.929 213.337 192.149 214.152C191.369 214.955 190.398 215.356 189.234 215.356C187.849 215.356 186.825 214.821 186.162 213.75V218.673H184.766V206.821H186.162V208.235C186.825 207.176 187.844 206.646 189.217 206.646ZM186.948 213.262C187.483 213.832 188.164 214.117 188.99 214.117C189.816 214.117 190.502 213.832 191.049 213.262C191.608 212.691 191.887 211.941 191.887 211.01C191.887 210.079 191.608 209.329 191.049 208.758C190.502 208.177 189.816 207.886 188.99 207.886C188.164 207.886 187.483 208.177 186.948 208.758C186.424 209.34 186.162 210.091 186.162 211.01C186.162 211.929 186.424 212.68 186.948 213.262ZM202.557 214.152C202.65 214.152 202.749 214.14 202.854 214.117V215.304C202.679 215.339 202.482 215.356 202.261 215.356C201.83 215.356 201.469 215.251 201.178 215.042C200.887 214.821 200.713 214.513 200.655 214.117C200.05 214.943 199.119 215.356 197.862 215.356C196.978 215.356 196.256 215.135 195.698 214.693C195.151 214.251 194.877 213.64 194.877 212.86C194.877 212.092 195.145 211.505 195.68 211.097C196.215 210.69 196.885 210.446 197.687 210.364L200.637 210.033V209.875C200.637 209.212 200.439 208.7 200.044 208.339C199.648 207.979 199.136 207.798 198.508 207.798C197.996 207.798 197.559 207.932 197.199 208.2C196.85 208.456 196.617 208.805 196.501 209.247L195.261 208.968C195.447 208.211 195.843 207.635 196.448 207.24C197.053 206.844 197.763 206.646 198.578 206.646C199.637 206.646 200.474 206.926 201.091 207.484C201.719 208.031 202.034 208.817 202.034 209.841V213.646C202.034 213.983 202.208 214.152 202.557 214.152ZM198.316 214.239C199.026 214.193 199.59 213.954 200.009 213.523C200.428 213.081 200.637 212.482 200.637 211.726V211.132L197.914 211.446C196.821 211.563 196.274 212.028 196.274 212.843C196.274 213.32 196.471 213.681 196.867 213.925C197.274 214.169 197.757 214.274 198.316 214.239ZM29.3885 234.8V230.942H30.0867C30.4125 230.942 30.6976 230.855 30.942 230.681C31.1863 230.506 31.326 230.233 31.3609 229.86L31.8671 223.821H38.0809V230.942H39.1805V234.8H37.7842V232.182H30.7849V234.8H29.3885ZM32.3907 230.942H36.6845V225.095H33.1413L32.7573 229.913C32.7107 230.401 32.5885 230.745 32.3907 230.942ZM47.4038 231.152C46.5776 231.955 45.542 232.356 44.2969 232.356C43.0518 232.356 42.0162 231.961 41.19 231.169C40.3638 230.366 39.9507 229.325 39.9507 228.045C39.9507 226.73 40.358 225.671 41.1725 224.868C41.9987 224.054 43.0402 223.646 44.2969 223.646C45.542 223.646 46.5776 224.054 47.4038 224.868C48.23 225.671 48.6431 226.73 48.6431 228.045C48.6431 229.313 48.23 230.349 47.4038 231.152ZM44.2969 231.099C45.1231 231.099 45.8154 230.82 46.374 230.262C46.9325 229.691 47.2118 228.947 47.2118 228.027C47.2118 227.085 46.9325 226.334 46.374 225.776C45.8271 225.206 45.1347 224.921 44.2969 224.921C43.4591 224.921 42.7609 225.206 42.2023 225.776C41.6554 226.334 41.382 227.085 41.382 228.027C41.382 228.947 41.6554 229.691 42.2023 230.262C42.7609 230.82 43.4591 231.099 44.2969 231.099ZM59.0798 223.821H60.546V232.182H59.1496V226.491L56.1474 232.182H55.17L52.1678 226.457V232.182H50.7714V223.821H52.2551L55.6762 230.419L59.0798 223.821ZM70.3868 231.152C70.4799 231.152 70.5788 231.14 70.6835 231.117V232.304C70.509 232.339 70.3112 232.356 70.0901 232.356C69.6595 232.356 69.2988 232.251 69.0079 232.042C68.717 231.821 68.5424 231.513 68.4843 231.117C67.8792 231.943 66.9483 232.356 65.6915 232.356C64.8072 232.356 64.0857 232.135 63.5272 231.693C62.9803 231.251 62.7068 230.64 62.7068 229.86C62.7068 229.092 62.9744 228.505 63.5097 228.097C64.045 227.69 64.7141 227.446 65.517 227.364L68.4668 227.033V226.875C68.4668 226.212 68.269 225.7 67.8733 225.339C67.4777 224.979 66.9657 224.798 66.3373 224.798C65.8253 224.798 65.389 224.932 65.0283 225.2C64.6792 225.456 64.4464 225.805 64.3301 226.247L63.0908 225.968C63.277 225.211 63.6726 224.635 64.2777 224.24C64.8828 223.844 65.5926 223.646 66.4072 223.646C67.4661 223.646 68.3039 223.926 68.9206 224.484C69.549 225.031 69.8632 225.817 69.8632 226.841V230.646C69.8632 230.983 70.0377 231.152 70.3868 231.152ZM66.1453 231.239C66.8552 231.193 67.4195 230.954 67.8384 230.523C68.2573 230.081 68.4668 229.482 68.4668 228.726V228.132L65.7439 228.446C64.6501 228.563 64.1032 229.028 64.1032 229.843C64.1032 230.32 64.301 230.681 64.6966 230.925C65.1039 231.169 65.5868 231.274 66.1453 231.239ZM76.5783 232.182V223.821H77.9746V229.86L82.827 223.821H84.0139V232.182H82.6175V226.125L77.7652 232.182H76.5783ZM89.6613 234.8V230.942H90.3594C90.6853 230.942 90.9703 230.855 91.2147 230.681C91.4591 230.506 91.5987 230.233 91.6336 229.86L92.1398 223.821H98.3536V230.942H99.4533V234.8H98.0569V232.182H91.0576V234.8H89.6613ZM92.6634 230.942H96.9573V225.095H93.414L93.03 229.913C92.9834 230.401 92.8613 230.745 92.6634 230.942ZM101.107 232.182V223.821H105.488C106.314 223.821 106.948 224.007 107.39 224.379C107.844 224.752 108.071 225.275 108.071 225.95C108.071 226.358 107.984 226.718 107.809 227.033C107.635 227.335 107.384 227.556 107.059 227.696C107.908 228.01 108.333 228.685 108.333 229.721C108.333 230.512 108.088 231.123 107.6 231.553C107.123 231.972 106.419 232.182 105.488 232.182H101.107ZM102.451 227.155H105.488C105.895 227.155 106.203 227.056 106.413 226.858C106.622 226.649 106.727 226.369 106.727 226.02C106.727 225.322 106.291 224.973 105.418 224.973H102.451V227.155ZM102.451 231.03H105.435C105.959 231.03 106.349 230.907 106.605 230.663C106.872 230.419 107.006 230.081 107.006 229.651C107.006 228.766 106.506 228.324 105.505 228.324H102.451V231.03ZM117.444 231.152C116.617 231.955 115.582 232.356 114.337 232.356C113.092 232.356 112.056 231.961 111.23 231.169C110.404 230.366 109.99 229.325 109.99 228.045C109.99 226.73 110.398 225.671 111.212 224.868C112.038 224.054 113.08 223.646 114.337 223.646C115.582 223.646 116.617 224.054 117.444 224.868C118.27 225.671 118.683 226.73 118.683 228.045C118.683 229.313 118.27 230.349 117.444 231.152ZM114.337 231.099C115.163 231.099 115.855 230.82 116.414 230.262C116.972 229.691 117.252 228.947 117.252 228.027C117.252 227.085 116.972 226.334 116.414 225.776C115.867 225.206 115.174 224.921 114.337 224.921C113.499 224.921 112.801 225.206 112.242 225.776C111.695 226.334 111.422 227.085 111.422 228.027C111.422 228.947 111.695 229.691 112.242 230.262C112.801 230.82 113.499 231.099 114.337 231.099ZM125.262 223.646C126.437 223.646 127.415 224.054 128.194 224.868C128.974 225.683 129.364 226.73 129.364 228.01C129.364 229.29 128.974 230.337 128.194 231.152C127.415 231.955 126.443 232.356 125.28 232.356C123.895 232.356 122.871 231.821 122.208 230.75V235.673H120.811V223.821H122.208V225.235C122.871 224.176 123.889 223.646 125.262 223.646ZM122.993 230.262C123.528 230.832 124.209 231.117 125.035 231.117C125.861 231.117 126.548 230.832 127.095 230.262C127.653 229.691 127.933 228.941 127.933 228.01C127.933 227.079 127.653 226.329 127.095 225.758C126.548 225.177 125.861 224.886 125.035 224.886C124.209 224.886 123.528 225.177 122.993 225.758C122.469 226.34 122.208 227.091 122.208 228.01C122.208 228.929 122.469 229.68 122.993 230.262ZM138.603 231.152C138.696 231.152 138.795 231.14 138.899 231.117V232.304C138.725 232.339 138.527 232.356 138.306 232.356C137.875 232.356 137.515 232.251 137.224 232.042C136.933 231.821 136.758 231.513 136.7 231.117C136.095 231.943 135.164 232.356 133.907 232.356C133.023 232.356 132.302 232.135 131.743 231.693C131.196 231.251 130.923 230.64 130.923 229.86C130.923 229.092 131.19 228.505 131.726 228.097C132.261 227.69 132.93 227.446 133.733 227.364L136.683 227.033V226.875C136.683 226.212 136.485 225.7 136.089 225.339C135.694 224.979 135.182 224.798 134.553 224.798C134.041 224.798 133.605 224.932 133.244 225.2C132.895 225.456 132.662 225.805 132.546 226.247L131.307 225.968C131.493 225.211 131.889 224.635 132.494 224.24C133.099 223.844 133.809 223.646 134.623 223.646C135.682 223.646 136.52 223.926 137.137 224.484C137.765 225.031 138.079 225.817 138.079 226.841V230.646C138.079 230.983 138.254 231.152 138.603 231.152ZM134.361 231.239C135.071 231.193 135.635 230.954 136.054 230.523C136.473 230.081 136.683 229.482 136.683 228.726V228.132L133.96 228.446C132.866 228.563 132.319 229.028 132.319 229.843C132.319 230.32 132.517 230.681 132.913 230.925C133.32 231.169 133.803 231.274 134.361 231.239Z" fill="white"/>
<path d="M30.8533 295.272V289.031C30.412 289.282 29.9097 289.408 29.3463 289.408V288.664C29.9233 288.664 30.4528 288.491 30.9347 288.145H31.6882V295.272H30.8533ZM35.1413 296.8V294.55H35.5486C35.7386 294.55 35.9049 294.499 36.0475 294.397C36.19 294.295 36.2715 294.135 36.2919 293.918L36.5871 290.395H40.2119V294.55H40.8533V296.8H40.0388V295.272H35.9559V296.8H35.1413ZM36.8926 294.55H39.3973V291.139H37.3304L37.1064 293.949C37.0792 294.234 37.008 294.434 36.8926 294.55ZM43.7564 295.374C43.0505 295.374 42.4667 295.143 42.0051 294.682C41.5436 294.214 41.3128 293.599 41.3128 292.839C41.3128 292.079 41.5402 291.464 41.9949 290.996C42.4565 290.528 43.0369 290.294 43.736 290.294C44.4284 290.294 44.9918 290.518 45.4262 290.966C45.8674 291.414 46.088 292.007 46.088 292.747C46.088 292.829 46.0812 292.917 46.0677 293.012H42.1273C42.1545 293.528 42.3174 293.939 42.616 294.244C42.9147 294.55 43.2948 294.702 43.7564 294.702C44.1094 294.702 44.4148 294.617 44.6728 294.448C44.9307 294.271 45.0936 294.034 45.1615 293.735L45.8844 293.969C45.7622 294.41 45.5043 294.757 45.1106 295.008C44.7237 295.252 44.2723 295.374 43.7564 295.374ZM42.168 292.371H45.2837C45.2294 291.957 45.0631 291.621 44.7848 291.363C44.5065 291.105 44.1603 290.976 43.7462 290.976C43.3389 290.976 42.9928 291.101 42.7077 291.352C42.4226 291.604 42.2427 291.943 42.168 292.371ZM47.3263 295.272V290.395H48.1409V292.391H49.1489L50.503 290.395H51.3889L49.8209 292.727L51.5721 295.272H50.6354L49.1489 293.134H48.1409V295.272H47.3263ZM56.5314 294.672C56.5857 294.672 56.6434 294.665 56.7045 294.651V295.344C56.6027 295.364 56.4873 295.374 56.3583 295.374C56.1072 295.374 55.8967 295.313 55.727 295.191C55.5573 295.062 55.4555 294.882 55.4216 294.651C55.0686 295.133 54.5256 295.374 53.7925 295.374C53.2766 295.374 52.8558 295.245 52.5299 294.987C52.2109 294.729 52.0514 294.373 52.0514 293.918C52.0514 293.47 52.2075 293.127 52.5198 292.89C52.832 292.652 53.2223 292.51 53.6907 292.462L55.4114 292.269V292.177C55.4114 291.79 55.296 291.492 55.0652 291.281C54.8344 291.071 54.5358 290.966 54.1692 290.966C53.8705 290.966 53.616 291.044 53.4056 291.2C53.2019 291.349 53.0662 291.553 52.9983 291.811L52.2754 291.648C52.384 291.207 52.6148 290.871 52.9678 290.64C53.3207 290.409 53.7348 290.294 54.2099 290.294C54.8276 290.294 55.3164 290.456 55.6761 290.782C56.0427 291.101 56.2259 291.559 56.2259 292.157V294.376C56.2259 294.573 56.3278 294.672 56.5314 294.672ZM54.0572 294.723C54.4713 294.695 54.8005 294.556 55.0449 294.305C55.2892 294.047 55.4114 293.698 55.4114 293.256V292.91L53.823 293.094C53.185 293.161 52.8659 293.433 52.8659 293.908C52.8659 294.186 52.9813 294.397 53.2121 294.539C53.4497 294.682 53.7314 294.743 54.0572 294.723ZM59.8731 295.374C59.1672 295.374 58.5902 295.157 58.1422 294.723C57.6942 294.288 57.4702 293.647 57.4702 292.798C57.4702 292.506 57.4973 292.204 57.5516 291.892C57.606 291.573 57.7044 291.227 57.8469 290.854C57.9895 290.48 58.166 290.137 58.3764 289.825C58.5868 289.513 58.8685 289.224 59.2215 288.96C59.5744 288.695 59.9681 288.502 60.4026 288.379L61.9095 287.962L61.9196 288.695L60.6673 289.062C60.0428 289.245 59.5541 289.516 59.2011 289.876C58.8481 290.236 58.5664 290.775 58.356 291.495C58.7769 290.918 59.3538 290.63 60.0869 290.63C60.7386 290.63 61.2748 290.847 61.6956 291.281C62.1233 291.716 62.3371 292.279 62.3371 292.971C62.3371 293.698 62.1063 294.281 61.6447 294.723C61.1832 295.157 60.5926 295.374 59.8731 295.374ZM58.7633 294.193C59.0687 294.492 59.4489 294.641 59.9036 294.641C60.3584 294.641 60.7386 294.492 61.044 294.193C61.3495 293.895 61.5022 293.497 61.5022 293.002C61.5022 292.513 61.3495 292.119 61.044 291.821C60.7386 291.522 60.355 291.373 59.8935 291.373C59.4387 291.373 59.0586 291.526 58.7531 291.831C58.4544 292.136 58.3051 292.53 58.3051 293.012C58.3051 293.501 58.4578 293.895 58.7633 294.193ZM66.1798 290.294C66.8654 290.294 67.4355 290.531 67.8903 291.006C68.3451 291.481 68.5725 292.092 68.5725 292.839C68.5725 293.586 68.3451 294.197 67.8903 294.672C67.4355 295.14 66.8688 295.374 66.19 295.374C65.3822 295.374 64.7849 295.062 64.398 294.438V297.309H63.5834V290.395H64.398V291.22C64.7849 290.602 65.3788 290.294 66.1798 290.294ZM64.8561 294.152C65.1684 294.485 65.5655 294.651 66.0474 294.651C66.5294 294.651 66.9298 294.485 67.2489 294.152C67.5747 293.82 67.7376 293.382 67.7376 292.839C67.7376 292.296 67.5747 291.858 67.2489 291.526C66.9298 291.186 66.5294 291.016 66.0474 291.016C65.5655 291.016 65.1684 291.186 64.8561 291.526C64.5507 291.865 64.398 292.303 64.398 292.839C64.398 293.375 64.5507 293.813 64.8561 294.152ZM69.3494 295.272L70.5407 293.521C70.1809 293.426 69.8959 293.246 69.6854 292.982C69.475 292.71 69.3698 292.384 69.3698 292.004C69.3698 291.495 69.5259 291.101 69.8382 290.823C70.1572 290.538 70.5848 290.395 71.1211 290.395H73.5138V295.272H72.7298V293.613H71.3552L70.2352 295.272H69.3494ZM71.1516 292.88H72.7298V291.139H71.1516C70.8529 291.139 70.612 291.217 70.4287 291.373C70.2454 291.522 70.1538 291.733 70.1538 292.004C70.1538 292.276 70.2454 292.489 70.4287 292.646C70.612 292.802 70.8529 292.88 71.1516 292.88ZM76.9254 295.272V294.702L78.7276 292.89C79.4335 292.177 79.8883 291.692 80.092 291.434C80.5128 290.898 80.7232 290.433 80.7232 290.039C80.7232 289.666 80.5943 289.364 80.3363 289.133C80.0784 288.895 79.739 288.776 79.3181 288.776C78.9312 288.776 78.5986 288.878 78.3203 289.082C78.0488 289.279 77.8791 289.55 77.8112 289.896L77.0985 289.652C77.2139 289.15 77.4718 288.756 77.8723 288.471C78.2796 288.186 78.7717 288.043 79.3487 288.043C80.0003 288.043 80.5332 288.22 80.9472 288.573C81.3681 288.926 81.5785 289.384 81.5785 289.947C81.5785 290.205 81.5276 290.467 81.4258 290.731C81.3308 290.989 81.178 291.251 80.9676 291.515C80.764 291.78 80.5841 291.997 80.428 292.167C80.2786 292.337 80.0716 292.554 79.8069 292.819C79.739 292.887 79.6881 292.937 79.6542 292.971L78.1065 294.529H81.6396V295.272H76.9254ZM85.489 295.374C84.6405 295.374 83.9617 295.048 83.4526 294.397C82.9435 293.738 82.689 292.842 82.689 291.709C82.689 290.575 82.9435 289.683 83.4526 289.031C83.9617 288.373 84.6371 288.043 85.4788 288.043C86.3205 288.043 86.9959 288.373 87.505 289.031C88.0208 289.683 88.2788 290.575 88.2788 291.709C88.2788 292.842 88.0208 293.738 87.505 294.397C86.9959 295.048 86.3239 295.374 85.489 295.374ZM85.489 294.621C86.0727 294.621 86.5411 294.363 86.8941 293.847C87.2538 293.324 87.4337 292.612 87.4337 291.709C87.4337 290.806 87.2538 290.097 86.8941 289.581C86.5343 289.058 86.0625 288.797 85.4788 288.797C84.895 288.797 84.4233 289.058 84.0635 289.581C83.7105 290.097 83.5341 290.806 83.5341 291.709C83.5341 292.612 83.7105 293.324 84.0635 293.847C84.4233 294.363 84.8984 294.621 85.489 294.621ZM89.1456 295.272V294.702L90.9478 292.89C91.6537 292.177 92.1085 291.692 92.3121 291.434C92.733 290.898 92.9434 290.433 92.9434 290.039C92.9434 289.666 92.8144 289.364 92.5565 289.133C92.2986 288.895 91.9592 288.776 91.5383 288.776C91.1514 288.776 90.8188 288.878 90.5405 289.082C90.269 289.279 90.0993 289.55 90.0314 289.896L89.3187 289.652C89.4341 289.15 89.692 288.756 90.0925 288.471C90.4998 288.186 90.9919 288.043 91.5689 288.043C92.2205 288.043 92.7533 288.22 93.1674 288.573C93.5883 288.926 93.7987 289.384 93.7987 289.947C93.7987 290.205 93.7478 290.467 93.646 290.731C93.5509 290.989 93.3982 291.251 93.1878 291.515C92.9841 291.78 92.8043 291.997 92.6481 292.167C92.4988 292.337 92.2918 292.554 92.027 292.819C91.9592 292.887 91.9083 292.937 91.8743 292.971L90.3267 294.529H93.8598V295.272H89.1456ZM97.3222 295.374C96.7385 295.374 96.2362 295.232 95.8153 294.947C95.4013 294.655 95.1399 294.271 95.0313 293.796L95.7542 293.552C95.8221 293.878 95.9918 294.142 96.2633 294.346C96.5416 294.543 96.8776 294.641 97.2713 294.641C97.7668 294.641 98.1707 294.482 98.483 294.163C98.7952 293.837 98.9513 293.423 98.9513 292.92C98.9513 292.425 98.7986 292.021 98.4931 291.709C98.1877 291.397 97.794 291.24 97.312 291.24C96.9387 291.24 96.6231 291.329 96.3651 291.505C96.1072 291.682 95.9409 291.926 95.8662 292.238L95.1433 292.035V288.145H99.491V288.878H95.8866V291.118C96.2328 290.704 96.7249 290.497 97.363 290.497C98.0689 290.497 98.6493 290.721 99.104 291.169C99.5588 291.617 99.7862 292.204 99.7862 292.931C99.7862 293.657 99.5554 294.247 99.0939 294.702C98.6391 295.15 98.0485 295.374 97.3222 295.374Z" fill="white"/>
<rect x="306.364" y="0.363636" width="261.091" height="319.273" rx="3.27273" stroke="white" stroke-width="0.727273" stroke-dasharray="7.27 3.64"/>
<rect x="320.546" y="14.5459" width="232.727" height="290.909" rx="7.27273" fill="#1A1919"/>
<path d="M320.546 26.1823C320.546 22.1092 320.546 20.0726 321.339 18.5169C322.036 17.1484 323.148 16.0358 324.517 15.3386C326.073 14.5459 328.109 14.5459 332.182 14.5459H541.637C545.71 14.5459 547.746 14.5459 549.302 15.3386C550.671 16.0358 551.783 17.1484 552.48 18.5169C553.273 20.0726 553.273 22.1092 553.273 26.1823V145.455H320.546V26.1823Z" fill="#444040"/>
<path d="M336.662 173V160.782H345.965V173H344.551V162.108H338.093V173H336.662ZM348.895 173V164.639H350.292V170.679L355.144 164.639H356.331V173H354.935V166.943L350.082 173H348.895ZM360.87 173V165.913H357.972V164.639H365.146V165.913H362.266V173H360.87ZM373.482 171.97C372.656 172.773 371.621 173.175 370.375 173.175C369.13 173.175 368.095 172.779 367.269 171.988C366.442 171.185 366.029 170.143 366.029 168.863C366.029 167.548 366.437 166.489 367.251 165.687C368.077 164.872 369.119 164.465 370.375 164.465C371.621 164.465 372.656 164.872 373.482 165.687C374.309 166.489 374.722 167.548 374.722 168.863C374.722 170.132 374.309 171.167 373.482 171.97ZM370.375 171.918C371.202 171.918 371.894 171.639 372.453 171.08C373.011 170.51 373.29 169.765 373.29 168.846C373.29 167.903 373.011 167.153 372.453 166.594C371.906 166.024 371.213 165.739 370.375 165.739C369.538 165.739 368.839 166.024 368.281 166.594C367.734 167.153 367.461 167.903 367.461 168.846C367.461 169.765 367.734 170.51 368.281 171.08C368.839 171.639 369.538 171.918 370.375 171.918ZM385.158 164.639H386.625V173H385.228V167.31L382.226 173H381.249L378.246 167.275V173H376.85V164.639H378.334L381.755 171.237L385.158 164.639ZM392.974 173.175C391.764 173.175 390.764 172.779 389.972 171.988C389.181 171.185 388.785 170.132 388.785 168.828C388.785 167.525 389.175 166.472 389.955 165.669C390.746 164.866 391.741 164.465 392.94 164.465C394.126 164.465 395.092 164.849 395.837 165.617C396.593 166.385 396.972 167.403 396.972 168.671C396.972 168.811 396.96 168.962 396.937 169.125H390.182C390.228 170.009 390.508 170.713 391.02 171.237C391.532 171.761 392.183 172.023 392.974 172.023C393.58 172.023 394.103 171.877 394.545 171.586C394.988 171.284 395.267 170.876 395.383 170.364L396.622 170.766C396.413 171.522 395.971 172.116 395.296 172.546C394.633 172.965 393.859 173.175 392.974 173.175ZM390.252 168.025H395.593C395.5 167.316 395.214 166.74 394.737 166.297C394.26 165.855 393.667 165.634 392.957 165.634C392.259 165.634 391.665 165.849 391.177 166.28C390.688 166.711 390.38 167.292 390.252 168.025ZM406.809 175.653V173H399.094V164.639H400.491V171.726H405.064V164.639H406.46V171.726H408.206V175.653H406.809ZM413.856 173V164.639H415.252V170.679L420.104 164.639H421.291V173H419.895V166.943L415.043 173H413.856ZM431.529 173.175C430.319 173.175 429.33 172.802 428.562 172.057C427.794 171.313 427.41 170.213 427.41 168.759C427.41 168.258 427.457 167.74 427.55 167.205C427.643 166.658 427.811 166.065 428.056 165.425C428.3 164.785 428.603 164.197 428.963 163.662C429.324 163.127 429.807 162.632 430.412 162.178C431.017 161.724 431.692 161.393 432.437 161.183L435.02 160.468L435.038 161.724L432.891 162.353C431.82 162.667 430.982 163.132 430.377 163.749C429.772 164.366 429.289 165.291 428.929 166.524C429.65 165.535 430.639 165.041 431.896 165.041C433.013 165.041 433.932 165.413 434.654 166.158C435.387 166.903 435.753 167.868 435.753 169.055C435.753 170.3 435.358 171.301 434.566 172.057C433.775 172.802 432.763 173.175 431.529 173.175ZM429.627 171.15C430.15 171.662 430.802 171.918 431.582 171.918C432.361 171.918 433.013 171.662 433.537 171.15C434.06 170.638 434.322 169.957 434.322 169.108C434.322 168.27 434.06 167.595 433.537 167.083C433.013 166.571 432.355 166.315 431.564 166.315C430.785 166.315 430.133 166.577 429.609 167.1C429.097 167.624 428.841 168.299 428.841 169.125C428.841 169.963 429.103 170.638 429.627 171.15ZM437.89 173V164.639H439.286V170.679L444.139 164.639H445.325V173H443.929V166.943L439.077 173H437.89ZM454.909 171.97C454.082 172.773 453.047 173.175 451.802 173.175C450.557 173.175 449.521 172.779 448.695 171.988C447.869 171.185 447.455 170.143 447.455 168.863C447.455 167.548 447.863 166.489 448.677 165.687C449.503 164.872 450.545 164.465 451.802 164.465C453.047 164.465 454.082 164.872 454.909 165.687C455.735 166.489 456.148 167.548 456.148 168.863C456.148 170.132 455.735 171.167 454.909 171.97ZM451.802 171.918C452.628 171.918 453.32 171.639 453.879 171.08C454.437 170.51 454.717 169.765 454.717 168.846C454.717 167.903 454.437 167.153 453.879 166.594C453.332 166.024 452.639 165.739 451.802 165.739C450.964 165.739 450.266 166.024 449.707 166.594C449.16 167.153 448.887 167.903 448.887 168.846C448.887 169.765 449.16 170.51 449.707 171.08C450.266 171.639 450.964 171.918 451.802 171.918ZM462.134 176.491V173.157C460.784 173.041 459.702 172.599 458.887 171.831C458.084 171.051 457.683 170.062 457.683 168.863C457.683 167.63 458.084 166.623 458.887 165.844C459.702 165.052 460.784 164.599 462.134 164.482V160.782H463.39V164.5C464.74 164.616 465.828 165.07 466.654 165.861C467.481 166.641 467.894 167.641 467.894 168.863C467.894 170.039 467.481 171.016 466.654 171.796C465.828 172.564 464.74 173.012 463.39 173.14V176.491H462.134ZM462.134 171.865V165.774C461.214 165.867 460.481 166.187 459.934 166.734C459.387 167.281 459.114 167.991 459.114 168.863C459.114 169.689 459.387 170.376 459.934 170.923C460.481 171.458 461.214 171.772 462.134 171.865ZM463.39 171.865C464.31 171.749 465.049 171.423 465.607 170.888C466.177 170.353 466.462 169.678 466.462 168.863C466.462 168.014 466.177 167.316 465.607 166.769C465.049 166.222 464.31 165.89 463.39 165.774V171.865ZM468.767 173.175V171.9H469.151C470.116 171.9 470.634 171.353 470.704 170.26L471.123 164.639H477.808V173H476.412V165.913H472.432L472.1 170.295C472.031 171.225 471.746 171.941 471.245 172.441C470.745 172.93 470.047 173.175 469.151 173.175H468.767ZM487.397 171.97C486.571 172.773 485.535 173.175 484.29 173.175C483.045 173.175 482.01 172.779 481.183 171.988C480.357 171.185 479.944 170.143 479.944 168.863C479.944 167.548 480.351 166.489 481.166 165.687C481.992 164.872 483.034 164.465 484.29 164.465C485.535 164.465 486.571 164.872 487.397 165.687C488.223 166.489 488.636 167.548 488.636 168.863C488.636 170.132 488.223 171.167 487.397 171.97ZM484.29 171.918C485.116 171.918 485.809 171.639 486.367 171.08C486.926 170.51 487.205 169.765 487.205 168.846C487.205 167.903 486.926 167.153 486.367 166.594C485.82 166.024 485.128 165.739 484.29 165.739C483.452 165.739 482.754 166.024 482.196 166.594C481.649 167.153 481.375 167.903 481.375 168.846C481.375 169.765 481.649 170.51 482.196 171.08C482.754 171.639 483.452 171.918 484.29 171.918ZM495.216 164.465C496.391 164.465 497.368 164.872 498.148 165.687C498.928 166.501 499.318 167.548 499.318 168.828C499.318 170.108 498.928 171.156 498.148 171.97C497.368 172.773 496.397 173.175 495.233 173.175C493.848 173.175 492.824 172.639 492.161 171.569V176.491H490.765V164.639H492.161V166.053C492.824 164.994 493.843 164.465 495.216 164.465ZM492.947 171.08C493.482 171.65 494.163 171.935 494.989 171.935C495.815 171.935 496.502 171.65 497.048 171.08C497.607 170.51 497.886 169.759 497.886 168.828C497.886 167.897 497.607 167.147 497.048 166.577C496.502 165.995 495.815 165.704 494.989 165.704C494.163 165.704 493.482 165.995 492.947 166.577C492.423 167.159 492.161 167.909 492.161 168.828C492.161 169.748 492.423 170.498 492.947 171.08ZM508.556 171.97C508.649 171.97 508.748 171.959 508.853 171.935V173.122C508.678 173.157 508.481 173.175 508.26 173.175C507.829 173.175 507.468 173.07 507.177 172.86C506.886 172.639 506.712 172.331 506.654 171.935C506.049 172.761 505.118 173.175 503.861 173.175C502.977 173.175 502.255 172.953 501.697 172.511C501.15 172.069 500.876 171.458 500.876 170.679C500.876 169.911 501.144 169.323 501.679 168.916C502.214 168.508 502.884 168.264 503.686 168.183L506.636 167.851V167.694C506.636 167.031 506.438 166.519 506.043 166.158C505.647 165.797 505.135 165.617 504.507 165.617C503.995 165.617 503.558 165.751 503.198 166.018C502.849 166.274 502.616 166.623 502.5 167.065L501.26 166.786C501.446 166.03 501.842 165.454 502.447 165.058C503.052 164.663 503.762 164.465 504.577 164.465C505.636 164.465 506.473 164.744 507.09 165.303C507.718 165.849 508.033 166.635 508.033 167.659V171.464C508.033 171.801 508.207 171.97 508.556 171.97ZM504.315 172.057C505.025 172.011 505.589 171.772 506.008 171.342C506.427 170.9 506.636 170.3 506.636 169.544V168.951L503.913 169.265C502.82 169.381 502.273 169.847 502.273 170.661C502.273 171.138 502.47 171.499 502.866 171.743C503.273 171.988 503.756 172.092 504.315 172.057ZM335.388 192.618V188.761H336.086C336.412 188.761 336.697 188.673 336.941 188.499C337.185 188.324 337.325 188.051 337.36 187.679L337.866 181.639H344.08V188.761H345.18V192.618H343.783V190H336.784V192.618H335.388ZM338.39 188.761H342.684V182.913H339.14L338.756 187.731C338.71 188.22 338.588 188.563 338.39 188.761ZM353.403 188.97C352.577 189.773 351.541 190.175 350.296 190.175C349.051 190.175 348.015 189.779 347.189 188.988C346.363 188.185 345.95 187.143 345.95 185.863C345.95 184.548 346.357 183.489 347.172 182.687C347.998 181.872 349.039 181.465 350.296 181.465C351.541 181.465 352.577 181.872 353.403 182.687C354.229 183.489 354.642 184.548 354.642 185.863C354.642 187.132 354.229 188.167 353.403 188.97ZM350.296 188.918C351.122 188.918 351.814 188.639 352.373 188.08C352.932 187.51 353.211 186.765 353.211 185.846C353.211 184.903 352.932 184.153 352.373 183.594C351.826 183.024 351.134 182.739 350.296 182.739C349.458 182.739 348.76 183.024 348.201 183.594C347.654 184.153 347.381 184.903 347.381 185.846C347.381 186.765 347.654 187.51 348.201 188.08C348.76 188.639 349.458 188.918 350.296 188.918ZM365.079 181.639H366.545V190H365.149V184.31L362.146 190H361.169L358.167 184.275V190H356.77V181.639H358.254L361.675 188.237L365.079 181.639ZM376.386 188.97C376.479 188.97 376.578 188.959 376.683 188.935V190.122C376.508 190.157 376.31 190.175 376.089 190.175C375.659 190.175 375.298 190.07 375.007 189.86C374.716 189.639 374.541 189.331 374.483 188.935C373.878 189.761 372.947 190.175 371.691 190.175C370.806 190.175 370.085 189.953 369.526 189.511C368.979 189.069 368.706 188.458 368.706 187.679C368.706 186.911 368.973 186.323 369.509 185.916C370.044 185.508 370.713 185.264 371.516 185.183L374.466 184.851V184.694C374.466 184.031 374.268 183.519 373.872 183.158C373.477 182.797 372.965 182.617 372.336 182.617C371.824 182.617 371.388 182.751 371.027 183.018C370.678 183.274 370.445 183.623 370.329 184.065L369.09 183.786C369.276 183.03 369.672 182.454 370.277 182.058C370.882 181.663 371.592 181.465 372.406 181.465C373.465 181.465 374.303 181.744 374.92 182.303C375.548 182.849 375.862 183.635 375.862 184.659V188.464C375.862 188.801 376.037 188.97 376.386 188.97ZM372.144 189.057C372.854 189.011 373.419 188.772 373.837 188.342C374.256 187.9 374.466 187.3 374.466 186.544V185.951L371.743 186.265C370.649 186.381 370.102 186.847 370.102 187.661C370.102 188.138 370.3 188.499 370.696 188.743C371.103 188.988 371.586 189.092 372.144 189.057ZM382.577 190V181.639H383.974V187.679L388.826 181.639H390.013V190H388.617V183.943L383.764 190H382.577ZM395.66 192.618V188.761H396.358C396.684 188.761 396.969 188.673 397.214 188.499C397.458 188.324 397.598 188.051 397.633 187.679L398.139 181.639H404.353V188.761H405.452V192.618H404.056V190H397.057V192.618H395.66ZM398.662 188.761H402.956V182.913H399.413L399.029 187.731C398.982 188.22 398.86 188.563 398.662 188.761ZM407.106 190V181.639H411.487C412.313 181.639 412.947 181.825 413.389 182.198C413.843 182.57 414.07 183.094 414.07 183.769C414.07 184.176 413.983 184.537 413.808 184.851C413.634 185.153 413.384 185.375 413.058 185.514C413.907 185.828 414.332 186.503 414.332 187.539C414.332 188.33 414.088 188.941 413.599 189.372C413.122 189.791 412.418 190 411.487 190H407.106ZM408.45 184.973H411.487C411.894 184.973 412.202 184.874 412.412 184.676C412.621 184.467 412.726 184.188 412.726 183.839C412.726 183.14 412.29 182.791 411.417 182.791H408.45V184.973ZM408.45 188.848H411.434C411.958 188.848 412.348 188.726 412.604 188.481C412.872 188.237 413.005 187.9 413.005 187.469C413.005 186.585 412.505 186.143 411.504 186.143H408.45V188.848ZM423.443 188.97C422.616 189.773 421.581 190.175 420.336 190.175C419.091 190.175 418.055 189.779 417.229 188.988C416.403 188.185 415.99 187.143 415.99 185.863C415.99 184.548 416.397 183.489 417.211 182.687C418.038 181.872 419.079 181.465 420.336 181.465C421.581 181.465 422.616 181.872 423.443 182.687C424.269 183.489 424.682 184.548 424.682 185.863C424.682 187.132 424.269 188.167 423.443 188.97ZM420.336 188.918C421.162 188.918 421.854 188.639 422.413 188.08C422.971 187.51 423.251 186.765 423.251 185.846C423.251 184.903 422.971 184.153 422.413 183.594C421.866 183.024 421.174 182.739 420.336 182.739C419.498 182.739 418.8 183.024 418.241 183.594C417.694 184.153 417.421 184.903 417.421 185.846C417.421 186.765 417.694 187.51 418.241 188.08C418.8 188.639 419.498 188.918 420.336 188.918ZM431.261 181.465C432.436 181.465 433.414 181.872 434.194 182.687C434.973 183.501 435.363 184.548 435.363 185.828C435.363 187.108 434.973 188.156 434.194 188.97C433.414 189.773 432.442 190.175 431.279 190.175C429.894 190.175 428.87 189.639 428.207 188.569V193.491H426.81V181.639H428.207V183.053C428.87 181.994 429.888 181.465 431.261 181.465ZM428.992 188.08C429.527 188.65 430.208 188.935 431.034 188.935C431.86 188.935 432.547 188.65 433.094 188.08C433.652 187.51 433.932 186.759 433.932 185.828C433.932 184.897 433.652 184.147 433.094 183.577C432.547 182.995 431.86 182.704 431.034 182.704C430.208 182.704 429.527 182.995 428.992 183.577C428.468 184.159 428.207 184.909 428.207 185.828C428.207 186.748 428.468 187.498 428.992 188.08ZM444.602 188.97C444.695 188.97 444.794 188.959 444.898 188.935V190.122C444.724 190.157 444.526 190.175 444.305 190.175C443.874 190.175 443.514 190.07 443.223 189.86C442.932 189.639 442.757 189.331 442.699 188.935C442.094 189.761 441.163 190.175 439.906 190.175C439.022 190.175 438.301 189.953 437.742 189.511C437.195 189.069 436.922 188.458 436.922 187.679C436.922 186.911 437.189 186.323 437.725 185.916C438.26 185.508 438.929 185.264 439.732 185.183L442.682 184.851V184.694C442.682 184.031 442.484 183.519 442.088 183.158C441.693 182.797 441.181 182.617 440.552 182.617C440.04 182.617 439.604 182.751 439.243 183.018C438.894 183.274 438.661 183.623 438.545 184.065L437.306 183.786C437.492 183.03 437.888 182.454 438.493 182.058C439.098 181.663 439.808 181.465 440.622 181.465C441.681 181.465 442.519 181.744 443.136 182.303C443.764 182.849 444.078 183.635 444.078 184.659V188.464C444.078 188.801 444.253 188.97 444.602 188.97ZM440.36 189.057C441.07 189.011 441.634 188.772 442.053 188.342C442.472 187.9 442.682 187.3 442.682 186.544V185.951L439.959 186.265C438.865 186.381 438.318 186.847 438.318 187.661C438.318 188.138 438.516 188.499 438.912 188.743C439.319 188.988 439.802 189.092 440.36 189.057Z" fill="white"/>
<path d="M336.852 288V281.759C336.411 282.01 335.909 282.135 335.345 282.135V281.392C335.922 281.392 336.452 281.219 336.934 280.873H337.687V288H336.852ZM341.14 289.527V287.277H341.548C341.738 287.277 341.904 287.226 342.047 287.124C342.189 287.023 342.271 286.863 342.291 286.646L342.586 283.123H346.211V287.277H346.852V289.527H346.038V288H341.955V289.527H341.14ZM342.892 287.277H345.396V283.866H343.329L343.105 286.676C343.078 286.961 343.007 287.162 342.892 287.277ZM349.755 288.102C349.049 288.102 348.466 287.871 348.004 287.409C347.543 286.941 347.312 286.327 347.312 285.567C347.312 284.806 347.539 284.192 347.994 283.724C348.456 283.255 349.036 283.021 349.735 283.021C350.427 283.021 350.991 283.245 351.425 283.693C351.866 284.141 352.087 284.735 352.087 285.475C352.087 285.556 352.08 285.645 352.067 285.74H348.126C348.153 286.256 348.316 286.666 348.615 286.972C348.914 287.277 349.294 287.43 349.755 287.43C350.108 287.43 350.414 287.345 350.672 287.175C350.93 286.999 351.093 286.761 351.161 286.463L351.883 286.697C351.761 287.138 351.503 287.484 351.11 287.735C350.723 287.98 350.271 288.102 349.755 288.102ZM348.167 285.098H351.283C351.228 284.684 351.062 284.348 350.784 284.09C350.505 283.832 350.159 283.703 349.745 283.703C349.338 283.703 348.992 283.829 348.707 284.08C348.422 284.331 348.242 284.671 348.167 285.098ZM353.325 288V283.123H354.14V285.119H355.148L356.502 283.123H357.388L355.82 285.455L357.571 288H356.634L355.148 285.862H354.14V288H353.325ZM362.53 287.399C362.585 287.399 362.642 287.392 362.704 287.379V288.071C362.602 288.092 362.486 288.102 362.357 288.102C362.106 288.102 361.896 288.041 361.726 287.919C361.556 287.79 361.455 287.61 361.421 287.379C361.068 287.861 360.525 288.102 359.792 288.102C359.276 288.102 358.855 287.973 358.529 287.715C358.21 287.457 358.05 287.101 358.05 286.646C358.05 286.198 358.207 285.855 358.519 285.617C358.831 285.38 359.221 285.237 359.69 285.19L361.41 284.996V284.905C361.41 284.518 361.295 284.219 361.064 284.009C360.833 283.798 360.535 283.693 360.168 283.693C359.87 283.693 359.615 283.771 359.405 283.927C359.201 284.077 359.065 284.28 358.997 284.538L358.274 284.375C358.383 283.934 358.614 283.598 358.967 283.367C359.32 283.136 359.734 283.021 360.209 283.021C360.827 283.021 361.315 283.184 361.675 283.51C362.042 283.829 362.225 284.287 362.225 284.884V287.104C362.225 287.301 362.327 287.399 362.53 287.399ZM360.056 287.45C360.47 287.423 360.8 287.284 361.044 287.033C361.288 286.775 361.41 286.425 361.41 285.984V285.638L359.822 285.821C359.184 285.889 358.865 286.16 358.865 286.636C358.865 286.914 358.98 287.124 359.211 287.267C359.449 287.409 359.73 287.471 360.056 287.45ZM365.872 288.102C365.166 288.102 364.589 287.885 364.141 287.45C363.693 287.016 363.469 286.374 363.469 285.526C363.469 285.234 363.496 284.932 363.551 284.62C363.605 284.301 363.703 283.954 363.846 283.581C363.988 283.208 364.165 282.865 364.375 282.553C364.586 282.24 364.868 281.952 365.22 281.687C365.573 281.423 365.967 281.229 366.402 281.107L367.908 280.689L367.919 281.423L366.666 281.789C366.042 281.972 365.553 282.244 365.2 282.604C364.847 282.963 364.565 283.503 364.355 284.223C364.776 283.646 365.353 283.357 366.086 283.357C366.738 283.357 367.274 283.574 367.695 284.009C368.122 284.443 368.336 285.007 368.336 285.699C368.336 286.425 368.105 287.009 367.644 287.45C367.182 287.885 366.592 288.102 365.872 288.102ZM364.762 286.921C365.068 287.219 365.448 287.369 365.903 287.369C366.357 287.369 366.738 287.219 367.043 286.921C367.348 286.622 367.501 286.225 367.501 285.729C367.501 285.241 367.348 284.847 367.043 284.548C366.738 284.25 366.354 284.1 365.892 284.1C365.438 284.1 365.058 284.253 364.752 284.559C364.453 284.864 364.304 285.258 364.304 285.74C364.304 286.228 364.457 286.622 364.762 286.921ZM372.179 283.021C372.864 283.021 373.435 283.259 373.889 283.734C374.344 284.209 374.572 284.82 374.572 285.567C374.572 286.313 374.344 286.924 373.889 287.399C373.435 287.868 372.868 288.102 372.189 288.102C371.381 288.102 370.784 287.79 370.397 287.165V290.036H369.582V283.123H370.397V283.948C370.784 283.33 371.378 283.021 372.179 283.021ZM370.855 286.88C371.167 287.213 371.565 287.379 372.046 287.379C372.528 287.379 372.929 287.213 373.248 286.88C373.574 286.547 373.737 286.11 373.737 285.567C373.737 285.024 373.574 284.586 373.248 284.253C372.929 283.914 372.528 283.744 372.046 283.744C371.565 283.744 371.167 283.914 370.855 284.253C370.55 284.592 370.397 285.03 370.397 285.567C370.397 286.103 370.55 286.541 370.855 286.88ZM375.348 288L376.54 286.249C376.18 286.154 375.895 285.974 375.684 285.709C375.474 285.438 375.369 285.112 375.369 284.732C375.369 284.223 375.525 283.829 375.837 283.551C376.156 283.265 376.584 283.123 377.12 283.123H379.513V288H378.729V286.34H377.354L376.234 288H375.348ZM377.151 285.607H378.729V283.866H377.151C376.852 283.866 376.611 283.944 376.428 284.1C376.244 284.25 376.153 284.46 376.153 284.732C376.153 285.003 376.244 285.217 376.428 285.373C376.611 285.529 376.852 285.607 377.151 285.607ZM382.924 288V287.43L384.727 285.617C385.433 284.905 385.887 284.419 386.091 284.161C386.512 283.625 386.722 283.16 386.722 282.767C386.722 282.393 386.593 282.091 386.335 281.86C386.077 281.623 385.738 281.504 385.317 281.504C384.93 281.504 384.598 281.606 384.319 281.809C384.048 282.006 383.878 282.278 383.81 282.624L383.098 282.38C383.213 281.877 383.471 281.484 383.871 281.199C384.279 280.913 384.771 280.771 385.348 280.771C385.999 280.771 386.532 280.947 386.946 281.3C387.367 281.653 387.578 282.112 387.578 282.675C387.578 282.933 387.527 283.194 387.425 283.459C387.33 283.717 387.177 283.978 386.967 284.243C386.763 284.508 386.583 284.725 386.427 284.895C386.278 285.064 386.071 285.281 385.806 285.546C385.738 285.614 385.687 285.665 385.653 285.699L384.106 287.257H387.639V288H382.924ZM391.488 288.102C390.64 288.102 389.961 287.776 389.452 287.124C388.943 286.466 388.688 285.57 388.688 284.436C388.688 283.303 388.943 282.41 389.452 281.759C389.961 281.1 390.636 280.771 391.478 280.771C392.32 280.771 392.995 281.1 393.504 281.759C394.02 282.41 394.278 283.303 394.278 284.436C394.278 285.57 394.02 286.466 393.504 287.124C392.995 287.776 392.323 288.102 391.488 288.102ZM391.488 287.348C392.072 287.348 392.54 287.09 392.893 286.575C393.253 286.052 393.433 285.339 393.433 284.436C393.433 283.534 393.253 282.824 392.893 282.308C392.533 281.786 392.062 281.524 391.478 281.524C390.894 281.524 390.422 281.786 390.063 282.308C389.71 282.824 389.533 283.534 389.533 284.436C389.533 285.339 389.71 286.052 390.063 286.575C390.422 287.09 390.897 287.348 391.488 287.348ZM395.145 288V287.43L396.947 285.617C397.653 284.905 398.108 284.419 398.311 284.161C398.732 283.625 398.942 283.16 398.942 282.767C398.942 282.393 398.813 282.091 398.556 281.86C398.298 281.623 397.958 281.504 397.537 281.504C397.15 281.504 396.818 281.606 396.54 281.809C396.268 282.006 396.098 282.278 396.03 282.624L395.318 282.38C395.433 281.877 395.691 281.484 396.092 281.199C396.499 280.913 396.991 280.771 397.568 280.771C398.22 280.771 398.752 280.947 399.166 281.3C399.587 281.653 399.798 282.112 399.798 282.675C399.798 282.933 399.747 283.194 399.645 283.459C399.55 283.717 399.397 283.978 399.187 284.243C398.983 284.508 398.803 284.725 398.647 284.895C398.498 285.064 398.291 285.281 398.026 285.546C397.958 285.614 397.907 285.665 397.873 285.699L396.326 287.257H399.859V288H395.145ZM403.321 288.102C402.737 288.102 402.235 287.959 401.814 287.674C401.4 287.382 401.139 286.999 401.03 286.524L401.753 286.279C401.821 286.605 401.991 286.87 402.262 287.073C402.541 287.27 402.877 287.369 403.27 287.369C403.766 287.369 404.17 287.209 404.482 286.89C404.794 286.564 404.95 286.15 404.95 285.648C404.95 285.152 404.798 284.749 404.492 284.436C404.187 284.124 403.793 283.968 403.311 283.968C402.938 283.968 402.622 284.056 402.364 284.233C402.106 284.409 401.94 284.654 401.865 284.966L401.142 284.762V280.873H405.49V281.606H401.886V283.846C402.232 283.432 402.724 283.225 403.362 283.225C404.068 283.225 404.648 283.449 405.103 283.897C405.558 284.345 405.785 284.932 405.785 285.658C405.785 286.384 405.554 286.975 405.093 287.43C404.638 287.878 404.048 288.102 403.321 288.102Z" fill="white"/>
<rect x="327.818" y="21.8184" width="93.0909" height="24" rx="12" fill="#1A1919"/>
<g clip-path="url(#clip1_2003_1385)">
<path d="M346 30.0913C346 29.9707 345.952 29.8551 345.867 29.7699C345.782 29.6846 345.666 29.6367 345.545 29.6367C345.425 29.6367 345.309 29.6846 345.224 29.7699C345.139 29.8551 345.091 29.9707 345.091 30.0913V35.0913C345.091 35.1714 345.112 35.2501 345.152 35.3194C345.193 35.3886 345.25 35.4461 345.32 35.4858L348.502 37.304C348.606 37.3604 348.728 37.3738 348.843 37.3412C348.957 37.3086 349.054 37.2327 349.113 37.1296C349.171 37.0266 349.188 36.9046 349.158 36.7897C349.128 36.6748 349.054 36.5762 348.953 36.5149L346 34.8276V30.0913Z" fill="white"/>
<path d="M346 41.4546C347.929 41.4546 349.779 40.6884 351.143 39.3245C352.507 37.9606 353.273 36.1108 353.273 34.1819C353.273 32.2531 352.507 30.4032 351.143 29.0393C349.779 27.6754 347.929 26.9092 346 26.9092C344.071 26.9092 342.222 27.6754 340.858 29.0393C339.494 30.4032 338.728 32.2531 338.728 34.1819C338.728 36.1108 339.494 37.9606 340.858 39.3245C342.222 40.6884 344.071 41.4546 346 41.4546ZM352.364 34.1819C352.364 35.8696 351.693 37.4883 350.5 38.6817C349.307 39.8751 347.688 40.5455 346 40.5455C344.313 40.5455 342.694 39.8751 341.5 38.6817C340.307 37.4883 339.637 35.8696 339.637 34.1819C339.637 32.4942 340.307 30.8755 341.5 29.6821C342.694 28.4887 344.313 27.8183 346 27.8183C347.688 27.8183 349.307 28.4887 350.5 29.6821C351.693 30.8755 352.364 32.4942 352.364 34.1819Z" fill="white"/>
</g>
<path d="M363.244 38.2835C362.64 38.2835 362.131 38.1375 361.717 37.8456C361.303 37.5538 361.041 37.1635 360.933 36.6747L361.646 36.4304C361.72 36.7698 361.897 37.0413 362.175 37.2449C362.453 37.4485 362.799 37.5504 363.214 37.5504C363.662 37.5504 364.042 37.435 364.354 37.2042C364.673 36.9734 364.832 36.634 364.832 36.186C364.832 35.7448 364.673 35.4122 364.354 35.1882C364.042 34.9574 363.641 34.842 363.152 34.842H362.338V34.1598H363.152C363.614 34.1598 363.991 34.0614 364.283 33.8645C364.581 33.6609 364.731 33.3622 364.731 32.9685C364.731 32.5545 364.575 32.2389 364.262 32.0216C363.957 31.7976 363.59 31.6856 363.163 31.6856C362.769 31.6856 362.436 31.7875 362.165 31.9911C361.893 32.1947 361.72 32.4662 361.646 32.8056L360.933 32.5613C361.048 32.0658 361.31 31.6755 361.717 31.3904C362.124 31.0985 362.62 30.9525 363.203 30.9525C363.875 30.9525 364.435 31.1358 364.883 31.5024C365.338 31.8621 365.566 32.3475 365.566 32.9584C365.566 33.6982 365.216 34.2141 364.517 34.506C365.284 34.8454 365.667 35.4156 365.667 36.2165C365.667 36.8682 365.433 37.3773 364.965 37.7438C364.503 38.1036 363.93 38.2835 363.244 38.2835ZM367.017 35.8398V35.1271H371.894V35.8398H367.017ZM375.62 38.2835C375.036 38.2835 374.534 38.1409 374.113 37.8558C373.699 37.5639 373.438 37.1804 373.329 36.7053L374.052 36.4609C374.12 36.7867 374.29 37.0515 374.561 37.2551C374.839 37.4519 375.175 37.5504 375.569 37.5504C376.065 37.5504 376.469 37.3909 376.781 37.0718C377.093 36.746 377.249 36.3319 377.249 35.8296C377.249 35.3341 377.096 34.9302 376.791 34.618C376.486 34.3058 376.092 34.1496 375.61 34.1496C375.237 34.1496 374.921 34.2379 374.663 34.4144C374.405 34.5909 374.239 34.8352 374.164 35.1475L373.441 34.9438V31.0544H377.789V31.7875H374.184V34.0275C374.531 33.6134 375.023 33.4064 375.661 33.4064C376.367 33.4064 376.947 33.6304 377.402 34.0784C377.857 34.5264 378.084 35.1135 378.084 35.8398C378.084 36.5661 377.853 37.1567 377.392 37.6115C376.937 38.0595 376.346 38.2835 375.62 38.2835ZM386.54 33.3045H387.396V38.1816H386.581V34.8624L384.83 38.1816H384.26L382.508 34.842V38.1816H381.694V33.3045H382.559L384.555 37.1533L386.54 33.3045ZM388.992 38.1816V33.3045H389.807V36.8275L392.637 33.3045H393.33V38.1816H392.515V34.6485L389.684 38.1816H388.992ZM394.918 38.1816V33.3045H395.733V35.3816H398.4V33.3045H399.215V38.1816H398.4V36.1249H395.733V38.1816H394.918ZM404.46 33.3045H405.325L402.199 40.218H401.405L402.352 38.1816L400.112 33.3045H400.988L402.729 37.2144L404.46 33.3045ZM407.243 38.1816V34.0478H405.553V33.3045H409.737V34.0478H408.057V38.1816H407.243Z" fill="white"/>
<defs>
<clipPath id="clip0_2003_1385">
<rect width="14.5455" height="14.5455" fill="white" transform="translate(32.7275 26.9092)"/>
</clipPath>
<clipPath id="clip1_2003_1385">
<rect width="14.5455" height="14.5455" fill="white" transform="translate(338.728 26.9092)"/>
</clipPath>
</defs>
</svg>
