<svg width="360" height="90" viewBox="0 0 360 90" fill="none" xmlns="http://www.w3.org/2000/svg">
<rect x="0.5" y="0.5" width="359" height="89" rx="4.5" stroke="white" stroke-dasharray="10 5"/>
<rect x="20" y="20" width="320" height="50" rx="25" fill="#1A1919"/>
<path d="M51.62 52V39.4H61.214V52H59.756V40.768H53.096V52H51.62ZM71.31 50.938C70.458 51.766 69.39 52.18 68.106 52.18C66.822 52.18 65.754 51.772 64.902 50.956C64.05 50.128 63.624 49.054 63.624 47.734C63.624 46.378 64.044 45.286 64.884 44.458C65.736 43.618 66.81 43.198 68.106 43.198C69.39 43.198 70.458 43.618 71.31 44.458C72.162 45.286 72.588 46.378 72.588 47.734C72.588 49.042 72.162 50.11 71.31 50.938ZM68.106 50.884C68.958 50.884 69.672 50.596 70.248 50.02C70.824 49.432 71.112 48.664 71.112 47.716C71.112 46.744 70.824 45.97 70.248 45.394C69.684 44.806 68.97 44.512 68.106 44.512C67.242 44.512 66.522 44.806 65.946 45.394C65.382 45.97 65.1 46.744 65.1 47.716C65.1 48.664 65.382 49.432 65.946 50.02C66.522 50.596 67.242 50.884 68.106 50.884ZM74.7829 52V43.378H76.2229V49.606L81.2269 43.378H82.4509V52H81.0109V45.754L76.0069 52H74.7829ZM89.0215 52.18C87.7735 52.18 86.7355 51.766 85.9075 50.938C85.0795 50.11 84.6655 49.036 84.6655 47.716C84.6655 46.396 85.0735 45.316 85.8895 44.476C86.7175 43.624 87.7615 43.198 89.0215 43.198C89.9575 43.198 90.7795 43.426 91.4875 43.882C92.1955 44.326 92.6575 44.938 92.8735 45.718L91.5955 46.168C91.4755 45.664 91.1815 45.262 90.7135 44.962C90.2455 44.662 89.6995 44.512 89.0755 44.512C88.2355 44.512 87.5335 44.812 86.9695 45.412C86.4175 46 86.1415 46.762 86.1415 47.698C86.1415 48.646 86.4175 49.414 86.9695 50.002C87.5335 50.59 88.2415 50.884 89.0935 50.884C89.7055 50.884 90.2455 50.734 90.7135 50.434C91.1815 50.122 91.4755 49.714 91.5955 49.21L92.8735 49.642C92.6575 50.434 92.1955 51.058 91.4875 51.514C90.7795 51.958 89.9575 52.18 89.0215 52.18ZM94.9099 52V43.378H96.3499V46.906H98.1319L100.526 43.378H102.092L99.3199 47.5L102.416 52H100.76L98.1319 48.22H96.3499V52H94.9099Z" fill="#7A7474"/>
<path d="M305.21 47.6361C306.3 46.1495 306.787 44.3063 306.576 42.4754C306.365 40.6444 305.471 38.9607 304.072 37.7611C302.672 36.5615 300.872 35.9345 299.031 36.0054C297.189 36.0764 295.442 36.8401 294.14 38.1439C292.837 39.4476 292.075 41.1951 292.005 43.0369C291.936 44.8787 292.564 46.6788 293.764 48.0772C294.965 49.4756 296.649 50.3691 298.48 50.579C300.311 50.7888 302.153 50.2995 303.639 49.209H303.638C303.671 49.254 303.707 49.2972 303.748 49.3384L308.079 53.6701C308.29 53.8812 308.576 53.9999 308.874 54C309.173 54.0001 309.459 53.8816 309.67 53.6707C309.881 53.4597 310 53.1735 310 52.8751C310 52.5766 309.882 52.2903 309.671 52.0792L305.34 47.7475C305.299 47.7068 305.256 47.6703 305.21 47.6361ZM305.501 43.3112C305.501 44.1238 305.34 44.9285 305.03 45.6793C304.719 46.43 304.263 47.1122 303.688 47.6868C303.114 48.2615 302.432 48.7173 301.681 49.0283C300.93 49.3392 300.126 49.4993 299.313 49.4993C298.501 49.4993 297.696 49.3392 296.945 49.0283C296.195 48.7173 295.513 48.2615 294.938 47.6868C294.364 47.1122 293.908 46.43 293.597 45.6793C293.286 44.9285 293.126 44.1238 293.126 43.3112C293.126 41.67 293.778 40.096 294.938 38.9355C296.099 37.775 297.672 37.123 299.313 37.123C300.954 37.123 302.528 37.775 303.688 38.9355C304.849 40.096 305.501 41.67 305.501 43.3112Z" fill="white"/>
</svg>
