<svg width="451" height="230" viewBox="0 0 451 230" fill="none" xmlns="http://www.w3.org/2000/svg">
<rect x="0.5" y="0.5" width="246" height="229" rx="4.5" stroke="white" stroke-dasharray="10 5"/>
<rect x="20" y="20" width="207" height="50" rx="10" fill="#444040"/>
<path d="M41.62 51V38.4H43.096V44.106H44.95L48.964 38.4H50.782L46.3 44.7L51.052 51H49.162L44.95 45.474H43.096V51H41.62ZM59.5405 49.938C59.6365 49.938 59.7385 49.926 59.8465 49.902V51.126C59.6665 51.162 59.4625 51.18 59.2345 51.18C58.7905 51.18 58.4185 51.072 58.1185 50.856C57.8185 50.628 57.6385 50.31 57.5785 49.902C56.9545 50.754 55.9945 51.18 54.6985 51.18C53.7865 51.18 53.0425 50.952 52.4665 50.496C51.9025 50.04 51.6205 49.41 51.6205 48.606C51.6205 47.814 51.8965 47.208 52.4485 46.788C53.0005 46.368 53.6905 46.116 54.5185 46.032L57.5605 45.69V45.528C57.5605 44.844 57.3565 44.316 56.9485 43.944C56.5405 43.572 56.0125 43.386 55.3645 43.386C54.8365 43.386 54.3865 43.524 54.0145 43.8C53.6545 44.064 53.4145 44.424 53.2945 44.88L52.0165 44.592C52.2085 43.812 52.6165 43.218 53.2405 42.81C53.8645 42.402 54.5965 42.198 55.4365 42.198C56.5285 42.198 57.3925 42.486 58.0285 43.062C58.6765 43.626 59.0005 44.436 59.0005 45.492V49.416C59.0005 49.764 59.1805 49.938 59.5405 49.938ZM55.1665 50.028C55.8985 49.98 56.4805 49.734 56.9125 49.29C57.3445 48.834 57.5605 48.216 57.5605 47.436V46.824L54.7525 47.148C53.6245 47.268 53.0605 47.748 53.0605 48.588C53.0605 49.08 53.2645 49.452 53.6725 49.704C54.0925 49.956 54.5905 50.064 55.1665 50.028ZM63.6842 51V43.692H60.6962V42.378H68.0942V43.692H65.1242V51H63.6842ZM73.3429 51.18C72.0949 51.18 71.0629 50.772 70.2469 49.956C69.4309 49.128 69.0229 48.042 69.0229 46.698C69.0229 45.354 69.4249 44.268 70.2289 43.44C71.0449 42.612 72.0709 42.198 73.3069 42.198C74.5309 42.198 75.5269 42.594 76.2949 43.386C77.0749 44.178 77.4649 45.228 77.4649 46.536C77.4649 46.68 77.4529 46.836 77.4289 47.004H70.4629C70.5109 47.916 70.7989 48.642 71.3269 49.182C71.8549 49.722 72.5269 49.992 73.3429 49.992C73.9669 49.992 74.5069 49.842 74.9629 49.542C75.4189 49.23 75.7069 48.81 75.8269 48.282L77.1049 48.696C76.8889 49.476 76.4329 50.088 75.7369 50.532C75.0529 50.964 74.2549 51.18 73.3429 51.18ZM70.5349 45.87H76.0429C75.9469 45.138 75.6529 44.544 75.1609 44.088C74.6689 43.632 74.0569 43.404 73.3249 43.404C72.6049 43.404 71.9929 43.626 71.4889 44.07C70.9849 44.514 70.6669 45.114 70.5349 45.87ZM79.654 51V42.378H85.576V43.692H81.094V51H79.654ZM93.7417 49.938C92.8897 50.766 91.8217 51.18 90.5377 51.18C89.2537 51.18 88.1857 50.772 87.3337 49.956C86.4817 49.128 86.0557 48.054 86.0557 46.734C86.0557 45.378 86.4757 44.286 87.3157 43.458C88.1677 42.618 89.2417 42.198 90.5377 42.198C91.8217 42.198 92.8897 42.618 93.7417 43.458C94.5937 44.286 95.0197 45.378 95.0197 46.734C95.0197 48.042 94.5937 49.11 93.7417 49.938ZM90.5377 49.884C91.3897 49.884 92.1037 49.596 92.6797 49.02C93.2557 48.432 93.5437 47.664 93.5437 46.716C93.5437 45.744 93.2557 44.97 92.6797 44.394C92.1157 43.806 91.4017 43.512 90.5377 43.512C89.6737 43.512 88.9537 43.806 88.3777 44.394C87.8137 44.97 87.5317 45.744 87.5317 46.716C87.5317 47.664 87.8137 48.432 88.3777 49.02C88.9537 49.596 89.6737 49.884 90.5377 49.884ZM101.805 42.198C103.017 42.198 104.025 42.618 104.829 43.458C105.633 44.298 106.035 45.378 106.035 46.698C106.035 48.018 105.633 49.098 104.829 49.938C104.025 50.766 103.023 51.18 101.823 51.18C100.395 51.18 99.3385 50.628 98.6545 49.524V54.6H97.2145V42.378H98.6545V43.836C99.3385 42.744 100.389 42.198 101.805 42.198ZM99.4645 49.02C100.017 49.608 100.719 49.902 101.571 49.902C102.423 49.902 103.131 49.608 103.695 49.02C104.271 48.432 104.559 47.658 104.559 46.698C104.559 45.738 104.271 44.964 103.695 44.376C103.131 43.776 102.423 43.476 101.571 43.476C100.719 43.476 100.017 43.776 99.4645 44.376C98.9245 44.976 98.6545 45.75 98.6545 46.698C98.6545 47.646 98.9245 48.42 99.4645 49.02ZM108.236 51V42.378H109.676V48.606L114.68 42.378H115.904V51H114.464V44.754L109.46 51H108.236ZM117.885 51L119.991 47.904C119.355 47.736 118.851 47.418 118.479 46.95C118.107 46.47 117.921 45.894 117.921 45.222C117.921 44.322 118.197 43.626 118.749 43.134C119.313 42.63 120.069 42.378 121.017 42.378H125.247V51H123.861V48.066H121.431L119.451 51H117.885ZM121.071 46.77H123.861V43.692H121.071C120.543 43.692 120.117 43.83 119.793 44.106C119.469 44.37 119.307 44.742 119.307 45.222C119.307 45.702 119.469 46.08 119.793 46.356C120.117 46.632 120.543 46.77 121.071 46.77Z" fill="white"/>
<path d="M199.5 37V52" stroke="white" stroke-width="1.5"/>
<path d="M207 44.5H192" stroke="white" stroke-width="1.5"/>
<rect x="20" y="90" width="207" height="50" rx="10" fill="#444040"/>
<path d="M46.696 121.72V120.136C45.004 120.004 43.618 119.446 42.538 118.462C41.458 117.466 40.918 116.206 40.918 114.682C40.918 113.17 41.452 111.922 42.52 110.938C43.6 109.954 44.992 109.396 46.696 109.264V107.68H48.172V109.264C49.876 109.396 51.256 109.954 52.312 110.938C53.38 111.922 53.914 113.17 53.914 114.682C53.914 116.206 53.38 117.466 52.312 118.462C51.244 119.446 49.864 120.004 48.172 120.136V121.72H46.696ZM46.696 118.678V110.704C45.436 110.824 44.416 111.244 43.636 111.964C42.868 112.672 42.484 113.578 42.484 114.682C42.484 115.786 42.874 116.704 43.654 117.436C44.434 118.156 45.448 118.57 46.696 118.678ZM48.172 118.678C49.42 118.558 50.428 118.138 51.196 117.418C51.976 116.698 52.366 115.786 52.366 114.682C52.366 113.578 51.976 112.672 51.196 111.964C50.428 111.244 49.42 110.824 48.172 110.704V118.678ZM56.2575 121V112.378H57.6975V118.606L62.7015 112.378H63.9255V121H62.4855V114.754L57.4815 121H56.2575ZM65.5641 121.18V119.866H65.9601C66.9561 119.866 67.4901 119.302 67.5621 118.174L67.9941 112.378H74.8881V121H73.4481V113.692H69.3441L69.0021 118.21C68.9301 119.17 68.6361 119.908 68.1201 120.424C67.6041 120.928 66.8841 121.18 65.9601 121.18H65.5641ZM77.7028 121V112.378H79.1428V115.15H81.8428C82.8748 115.15 83.6848 115.42 84.2728 115.96C84.8608 116.488 85.1548 117.208 85.1548 118.12C85.1548 119.008 84.8608 119.71 84.2728 120.226C83.6848 120.742 82.8748 121 81.8428 121H77.7028ZM79.1428 119.686H81.8968C82.4248 119.686 82.8508 119.542 83.1748 119.254C83.5108 118.966 83.6788 118.576 83.6788 118.084C83.6788 117.58 83.5108 117.184 83.1748 116.896C82.8508 116.596 82.4248 116.446 81.8968 116.446H79.1428V119.686ZM88.1354 121V113.692H85.1474V112.378H92.5454V113.692H89.5754V121H88.1354ZM98.8338 112.198C100.046 112.198 101.054 112.618 101.858 113.458C102.662 114.298 103.064 115.378 103.064 116.698C103.064 118.018 102.662 119.098 101.858 119.938C101.054 120.766 100.052 121.18 98.8518 121.18C97.4238 121.18 96.3678 120.628 95.6838 119.524V124.6H94.2438V112.378H95.6838V113.836C96.3678 112.744 97.4178 112.198 98.8338 112.198ZM96.4938 119.02C97.0458 119.608 97.7478 119.902 98.5998 119.902C99.4518 119.902 100.16 119.608 100.724 119.02C101.3 118.432 101.588 117.658 101.588 116.698C101.588 115.738 101.3 114.964 100.724 114.376C100.16 113.776 99.4518 113.476 98.5998 113.476C97.7478 113.476 97.0458 113.776 96.4938 114.376C95.9538 114.976 95.6838 115.75 95.6838 116.698C95.6838 117.646 95.9538 118.42 96.4938 119.02ZM105.265 121V112.378H106.705V115.15H109.405C110.437 115.15 111.247 115.42 111.835 115.96C112.423 116.488 112.717 117.208 112.717 118.12C112.717 119.008 112.423 119.71 111.835 120.226C111.247 120.742 110.437 121 109.405 121H105.265ZM113.977 121V112.378H115.417V121H113.977ZM106.705 119.686H109.459C109.987 119.686 110.413 119.542 110.737 119.254C111.073 118.966 111.241 118.576 111.241 118.084C111.241 117.58 111.073 117.184 110.737 116.896C110.413 116.596 109.987 116.446 109.459 116.446H106.705V119.686Z" fill="white"/>
<path d="M199.5 107V122" stroke="white" stroke-width="1.5"/>
<path d="M207 114.5H192" stroke="white" stroke-width="1.5"/>
<rect x="20" y="160" width="207" height="50" rx="10" fill="#444040"/>
<path d="M41.62 191V178.4H51.214V191H49.756V179.768H43.096V191H41.62ZM61.31 189.938C60.458 190.766 59.39 191.18 58.106 191.18C56.822 191.18 55.754 190.772 54.902 189.956C54.05 189.128 53.624 188.054 53.624 186.734C53.624 185.378 54.044 184.286 54.884 183.458C55.736 182.618 56.81 182.198 58.106 182.198C59.39 182.198 60.458 182.618 61.31 183.458C62.162 184.286 62.588 185.378 62.588 186.734C62.588 188.042 62.162 189.11 61.31 189.938ZM58.106 189.884C58.958 189.884 59.672 189.596 60.248 189.02C60.824 188.432 61.112 187.664 61.112 186.716C61.112 185.744 60.824 184.97 60.248 184.394C59.684 183.806 58.97 183.512 58.106 183.512C57.242 183.512 56.522 183.806 55.946 184.394C55.382 184.97 55.1 185.744 55.1 186.716C55.1 187.664 55.382 188.432 55.946 189.02C56.522 189.596 57.242 189.884 58.106 189.884ZM64.7829 191V182.378H72.3789V191H70.9389V183.692H66.2229V191H64.7829ZM81.6507 182.378H83.1807L77.6547 194.6H76.2507L77.9247 191L73.9647 182.378H75.5127L78.5907 189.29L81.6507 182.378ZM83.5289 191.18V189.866H83.9249C84.9209 189.866 85.4549 189.302 85.5269 188.174L85.9589 182.378H92.8529V191H91.4129V183.692H87.3089L86.9669 188.21C86.8949 189.17 86.6009 189.908 86.0849 190.424C85.5689 190.928 84.8489 191.18 83.9249 191.18H83.5289ZM94.8397 191L96.9457 187.904C96.3097 187.736 95.8057 187.418 95.4337 186.95C95.0617 186.47 94.8757 185.894 94.8757 185.222C94.8757 184.322 95.1517 183.626 95.7037 183.134C96.2677 182.63 97.0237 182.378 97.9717 182.378H102.202V191H100.816V188.066H98.3857L96.4057 191H94.8397ZM98.0257 186.77H100.816V183.692H98.0257C97.4977 183.692 97.0717 183.83 96.7477 184.106C96.4237 184.37 96.2617 184.742 96.2617 185.222C96.2617 185.702 96.4237 186.08 96.7477 186.356C97.0717 186.632 97.4977 186.77 98.0257 186.77ZM109.592 182.198C110.804 182.198 111.812 182.618 112.616 183.458C113.42 184.298 113.822 185.378 113.822 186.698C113.822 188.018 113.42 189.098 112.616 189.938C111.812 190.766 110.81 191.18 109.61 191.18C108.182 191.18 107.126 190.628 106.442 189.524V194.6H105.002V182.378H106.442V183.836C107.126 182.744 108.176 182.198 109.592 182.198ZM107.252 189.02C107.804 189.608 108.506 189.902 109.358 189.902C110.21 189.902 110.918 189.608 111.482 189.02C112.058 188.432 112.346 187.658 112.346 186.698C112.346 185.738 112.058 184.964 111.482 184.376C110.918 183.776 110.21 183.476 109.358 183.476C108.506 183.476 107.804 183.776 107.252 184.376C106.712 184.976 106.442 185.75 106.442 186.698C106.442 187.646 106.712 188.42 107.252 189.02ZM116.023 191V182.378H117.463V186.05H122.179V182.378H123.619V191H122.179V187.364H117.463V191H116.023ZM133.521 189.938C132.669 190.766 131.601 191.18 130.317 191.18C129.033 191.18 127.965 190.772 127.113 189.956C126.261 189.128 125.835 188.054 125.835 186.734C125.835 185.378 126.255 184.286 127.095 183.458C127.947 182.618 129.021 182.198 130.317 182.198C131.601 182.198 132.669 182.618 133.521 183.458C134.373 184.286 134.799 185.378 134.799 186.734C134.799 188.042 134.373 189.11 133.521 189.938ZM130.317 189.884C131.169 189.884 131.883 189.596 132.459 189.02C133.035 188.432 133.323 187.664 133.323 186.716C133.323 185.744 133.035 184.97 132.459 184.394C131.895 183.806 131.181 183.512 130.317 183.512C129.453 183.512 128.733 183.806 128.157 184.394C127.593 184.97 127.311 185.744 127.311 186.716C127.311 187.664 127.593 188.432 128.157 189.02C128.733 189.596 129.453 189.884 130.317 189.884ZM140.756 191.18C139.508 191.18 138.47 190.766 137.642 189.938C136.814 189.11 136.4 188.036 136.4 186.716C136.4 185.396 136.808 184.316 137.624 183.476C138.452 182.624 139.496 182.198 140.756 182.198C141.692 182.198 142.514 182.426 143.222 182.882C143.93 183.326 144.392 183.938 144.608 184.718L143.33 185.168C143.21 184.664 142.916 184.262 142.448 183.962C141.98 183.662 141.434 183.512 140.81 183.512C139.97 183.512 139.268 183.812 138.704 184.412C138.152 185 137.876 185.762 137.876 186.698C137.876 187.646 138.152 188.414 138.704 189.002C139.268 189.59 139.976 189.884 140.828 189.884C141.44 189.884 141.98 189.734 142.448 189.434C142.916 189.122 143.21 188.714 143.33 188.21L144.608 188.642C144.392 189.434 143.93 190.058 143.222 190.514C142.514 190.958 141.692 191.18 140.756 191.18ZM148.516 191V183.692H145.528V182.378H152.926V183.692H149.956V191H148.516ZM154.625 191V182.378H156.065V185.15H158.765C159.797 185.15 160.607 185.42 161.195 185.96C161.783 186.488 162.077 187.208 162.077 188.12C162.077 189.008 161.783 189.71 161.195 190.226C160.607 190.742 159.797 191 158.765 191H154.625ZM156.065 189.686H158.819C159.347 189.686 159.773 189.542 160.097 189.254C160.433 188.966 160.601 188.576 160.601 188.084C160.601 187.58 160.433 187.184 160.097 186.896C159.773 186.596 159.347 186.446 158.819 186.446H156.065V189.686Z" fill="white"/>
<path fill-rule="evenodd" clip-rule="evenodd" d="M200.5 177C200.746 177 200.982 177.099 201.156 177.275C201.331 177.45 201.428 177.689 201.428 177.937V188.798L205.413 184.773C205.499 184.686 205.602 184.617 205.715 184.569C205.827 184.522 205.948 184.498 206.07 184.498C206.192 184.498 206.313 184.522 206.426 184.569C206.539 184.617 206.641 184.686 206.728 184.773C206.814 184.86 206.883 184.964 206.929 185.077C206.976 185.191 207 185.313 207 185.437C207 185.56 206.976 185.682 206.929 185.796C206.883 185.91 206.814 186.013 206.728 186.1L201.157 191.725C201.071 191.812 200.969 191.881 200.856 191.928C200.743 191.976 200.622 192 200.5 192C200.378 192 200.257 191.976 200.144 191.928C200.031 191.881 199.929 191.812 199.843 191.725L194.272 186.1C194.186 186.013 194.117 185.91 194.071 185.796C194.024 185.682 194 185.56 194 185.437C194 185.313 194.024 185.191 194.071 185.077C194.117 184.964 194.186 184.86 194.272 184.773C194.447 184.597 194.683 184.498 194.93 184.498C195.052 184.498 195.173 184.522 195.285 184.569C195.398 184.617 195.501 184.686 195.587 184.773L199.572 188.798V177.937C199.572 177.689 199.669 177.45 199.844 177.275C200.018 177.099 200.254 177 200.5 177Z" fill="white"/>
<rect x="305.5" y="0.5" width="145" height="169" rx="4.5" stroke="white" stroke-dasharray="10 5"/>
<rect x="319" y="20" width="112" height="30" rx="15" fill="#1A1919"/>
<path d="M347.435 30.7H348.569V40.5H347.421V32.702L341.765 40.5H340.631V30.7H341.779V38.484L347.435 30.7ZM353.848 40.64C352.877 40.64 352.07 40.318 351.426 39.674C350.782 39.03 350.46 38.1947 350.46 37.168C350.46 36.1413 350.777 35.3013 351.412 34.648C352.056 33.9853 352.868 33.654 353.848 33.654C354.576 33.654 355.215 33.8313 355.766 34.186C356.317 34.5313 356.676 35.0073 356.844 35.614L355.85 35.964C355.757 35.572 355.528 35.2593 355.164 35.026C354.8 34.7927 354.375 34.676 353.89 34.676C353.237 34.676 352.691 34.9093 352.252 35.376C351.823 35.8333 351.608 36.426 351.608 37.154C351.608 37.8913 351.823 38.4887 352.252 38.946C352.691 39.4033 353.241 39.632 353.904 39.632C354.38 39.632 354.8 39.5153 355.164 39.282C355.528 39.0393 355.757 38.722 355.85 38.33L356.844 38.666C356.676 39.282 356.317 39.7673 355.766 40.122C355.215 40.4673 354.576 40.64 353.848 40.64ZM359.884 40.5V34.816H357.56V33.794H363.314V34.816H361.004V40.5H359.884ZM370 39.674C369.338 40.318 368.507 40.64 367.508 40.64C366.51 40.64 365.679 40.3227 365.016 39.688C364.354 39.044 364.022 38.2087 364.022 37.182C364.022 36.1273 364.349 35.278 365.002 34.634C365.665 33.9807 366.5 33.654 367.508 33.654C368.507 33.654 369.338 33.9807 370 34.634C370.663 35.278 370.994 36.1273 370.994 37.182C370.994 38.1993 370.663 39.03 370 39.674ZM367.508 39.632C368.171 39.632 368.726 39.408 369.174 38.96C369.622 38.5027 369.846 37.9053 369.846 37.168C369.846 36.412 369.622 35.81 369.174 35.362C368.736 34.9047 368.18 34.676 367.508 34.676C366.836 34.676 366.276 34.9047 365.828 35.362C365.39 35.81 365.17 36.412 365.17 37.168C365.17 37.9053 365.39 38.5027 365.828 38.96C366.276 39.408 366.836 39.632 367.508 39.632ZM376.859 33.794H377.979V40.5H376.859V37.686C376.402 38.3767 375.716 38.722 374.801 38.722C374.017 38.722 373.387 38.498 372.911 38.05C372.435 37.602 372.197 36.9673 372.197 36.146V33.794H373.317V35.908C373.317 36.496 373.476 36.9393 373.793 37.238C374.12 37.5367 374.554 37.686 375.095 37.686C375.627 37.686 376.052 37.504 376.369 37.14C376.696 36.776 376.859 36.2767 376.859 35.642V33.794ZM380.166 40.5V33.794H381.286V36.65H384.954V33.794H386.074V40.5H384.954V37.672H381.286V40.5H380.166ZM388.274 40.5V33.794H389.394V38.638L393.286 33.794H394.238V40.5H393.118V35.642L389.226 40.5H388.274ZM396.422 40.5V33.794H397.542V36.538H398.928L400.79 33.794H402.008L399.852 37L402.26 40.5H400.972L398.928 37.56H397.542V40.5H396.422ZM403.572 40.5V33.794H404.692V38.638L408.584 33.794H409.536V40.5H408.416V35.642L404.524 40.5H403.572Z" fill="white"/>
<rect x="319" y="70" width="112" height="30" rx="15" fill="white"/>
<path d="M347.435 80.7H348.569V90.5H347.421V82.702L341.765 90.5H340.631V80.7H341.779V88.484L347.435 80.7ZM353.848 90.64C352.877 90.64 352.07 90.318 351.426 89.674C350.782 89.03 350.46 88.1947 350.46 87.168C350.46 86.1413 350.777 85.3013 351.412 84.648C352.056 83.9853 352.868 83.654 353.848 83.654C354.576 83.654 355.215 83.8313 355.766 84.186C356.317 84.5313 356.676 85.0073 356.844 85.614L355.85 85.964C355.757 85.572 355.528 85.2593 355.164 85.026C354.8 84.7927 354.375 84.676 353.89 84.676C353.237 84.676 352.691 84.9093 352.252 85.376C351.823 85.8333 351.608 86.426 351.608 87.154C351.608 87.8913 351.823 88.4887 352.252 88.946C352.691 89.4033 353.241 89.632 353.904 89.632C354.38 89.632 354.8 89.5153 355.164 89.282C355.528 89.0393 355.757 88.722 355.85 88.33L356.844 88.666C356.676 89.282 356.317 89.7673 355.766 90.122C355.215 90.4673 354.576 90.64 353.848 90.64ZM359.884 90.5V84.816H357.56V83.794H363.314V84.816H361.004V90.5H359.884ZM370 89.674C369.338 90.318 368.507 90.64 367.508 90.64C366.51 90.64 365.679 90.3227 365.016 89.688C364.354 89.044 364.022 88.2087 364.022 87.182C364.022 86.1273 364.349 85.278 365.002 84.634C365.665 83.9807 366.5 83.654 367.508 83.654C368.507 83.654 369.338 83.9807 370 84.634C370.663 85.278 370.994 86.1273 370.994 87.182C370.994 88.1993 370.663 89.03 370 89.674ZM367.508 89.632C368.171 89.632 368.726 89.408 369.174 88.96C369.622 88.5027 369.846 87.9053 369.846 87.168C369.846 86.412 369.622 85.81 369.174 85.362C368.736 84.9047 368.18 84.676 367.508 84.676C366.836 84.676 366.276 84.9047 365.828 85.362C365.39 85.81 365.17 86.412 365.17 87.168C365.17 87.9053 365.39 88.5027 365.828 88.96C366.276 89.408 366.836 89.632 367.508 89.632ZM376.859 83.794H377.979V90.5H376.859V87.686C376.402 88.3767 375.716 88.722 374.801 88.722C374.017 88.722 373.387 88.498 372.911 88.05C372.435 87.602 372.197 86.9673 372.197 86.146V83.794H373.317V85.908C373.317 86.496 373.476 86.9393 373.793 87.238C374.12 87.5367 374.554 87.686 375.095 87.686C375.627 87.686 376.052 87.504 376.369 87.14C376.696 86.776 376.859 86.2767 376.859 85.642V83.794ZM380.166 90.5V83.794H381.286V86.65H384.954V83.794H386.074V90.5H384.954V87.672H381.286V90.5H380.166ZM388.274 90.5V83.794H389.394V88.638L393.286 83.794H394.238V90.5H393.118V85.642L389.226 90.5H388.274ZM396.422 90.5V83.794H397.542V86.538H398.928L400.79 83.794H402.008L399.852 87L402.26 90.5H400.972L398.928 87.56H397.542V90.5H396.422ZM403.572 90.5V83.794H404.692V88.638L408.584 83.794H409.536V90.5H408.416V85.642L404.524 90.5H403.572Z" fill="#1A1919"/>
<rect x="319" y="120" width="112" height="30" rx="15" fill="#444040"/>
<path d="M347.435 130.7H348.569V140.5H347.421V132.702L341.765 140.5H340.631V130.7H341.779V138.484L347.435 130.7ZM353.848 140.64C352.877 140.64 352.07 140.318 351.426 139.674C350.782 139.03 350.46 138.195 350.46 137.168C350.46 136.141 350.777 135.301 351.412 134.648C352.056 133.985 352.868 133.654 353.848 133.654C354.576 133.654 355.215 133.831 355.766 134.186C356.317 134.531 356.676 135.007 356.844 135.614L355.85 135.964C355.757 135.572 355.528 135.259 355.164 135.026C354.8 134.793 354.375 134.676 353.89 134.676C353.237 134.676 352.691 134.909 352.252 135.376C351.823 135.833 351.608 136.426 351.608 137.154C351.608 137.891 351.823 138.489 352.252 138.946C352.691 139.403 353.241 139.632 353.904 139.632C354.38 139.632 354.8 139.515 355.164 139.282C355.528 139.039 355.757 138.722 355.85 138.33L356.844 138.666C356.676 139.282 356.317 139.767 355.766 140.122C355.215 140.467 354.576 140.64 353.848 140.64ZM359.884 140.5V134.816H357.56V133.794H363.314V134.816H361.004V140.5H359.884ZM370 139.674C369.338 140.318 368.507 140.64 367.508 140.64C366.51 140.64 365.679 140.323 365.016 139.688C364.354 139.044 364.022 138.209 364.022 137.182C364.022 136.127 364.349 135.278 365.002 134.634C365.665 133.981 366.5 133.654 367.508 133.654C368.507 133.654 369.338 133.981 370 134.634C370.663 135.278 370.994 136.127 370.994 137.182C370.994 138.199 370.663 139.03 370 139.674ZM367.508 139.632C368.171 139.632 368.726 139.408 369.174 138.96C369.622 138.503 369.846 137.905 369.846 137.168C369.846 136.412 369.622 135.81 369.174 135.362C368.736 134.905 368.18 134.676 367.508 134.676C366.836 134.676 366.276 134.905 365.828 135.362C365.39 135.81 365.17 136.412 365.17 137.168C365.17 137.905 365.39 138.503 365.828 138.96C366.276 139.408 366.836 139.632 367.508 139.632ZM376.859 133.794H377.979V140.5H376.859V137.686C376.402 138.377 375.716 138.722 374.801 138.722C374.017 138.722 373.387 138.498 372.911 138.05C372.435 137.602 372.197 136.967 372.197 136.146V133.794H373.317V135.908C373.317 136.496 373.476 136.939 373.793 137.238C374.12 137.537 374.554 137.686 375.095 137.686C375.627 137.686 376.052 137.504 376.369 137.14C376.696 136.776 376.859 136.277 376.859 135.642V133.794ZM380.166 140.5V133.794H381.286V136.65H384.954V133.794H386.074V140.5H384.954V137.672H381.286V140.5H380.166ZM388.274 140.5V133.794H389.394V138.638L393.286 133.794H394.238V140.5H393.118V135.642L389.226 140.5H388.274ZM396.422 140.5V133.794H397.542V136.538H398.928L400.79 133.794H402.008L399.852 137L402.26 140.5H400.972L398.928 137.56H397.542V140.5H396.422ZM403.572 140.5V133.794H404.692V138.638L408.584 133.794H409.536V140.5H408.416V135.642L404.524 140.5H403.572Z" fill="white"/>
</svg>
