<svg width="1240" height="497" viewBox="0 0 1240 497" fill="none" xmlns="http://www.w3.org/2000/svg">
<rect width="1240" height="497" rx="15" fill="#1A1919"/>
<path d="M548.97 186.18C538.16 175.3 540.02 166.1 542.02 159.41C542.08 159.19 542.38 159.17 542.5 159.36C578.51 215.41 653.93 175.76 639.11 119.27C639.07 119.13 639.21 119 639.34 119.06C649.38 123.24 650.38 133.27 650.38 133.27C650.38 133.27 650.86 127.23 656.59 121.79C656.68 121.7 656.84 121.74 656.88 121.86C665.13 146.58 686.05 158.79 710.91 157.55C711.48 157.52 711.93 158.06 711.82 158.62C704.71 195.71 671.32 191.25 662.93 185.85C662.93 185.85 695.01 221.23 709.33 232.85C709.75 233.19 709.76 233.81 709.38 234.18L702.48 242.31C702.19 242.59 701.75 242.64 701.41 242.42L655.22 215.77L694.54 247C694.96 247.34 694.99 247.98 694.59 248.34L683.94 258.29C683.58 258.62 683.01 258.59 682.68 258.22C627.37 197.3 555.82 229.97 534.7 258.68C534.36 259.14 533.69 259.16 533.32 258.72L524.41 248.26C524.11 247.91 524.13 247.37 524.46 247.05L556.45 215.76L516.73 240.86C516.36 241.14 515.84 241.09 515.54 240.73L508.48 232.06C508.2 231.73 508.2 231.24 508.48 230.91L548.98 186.17L548.97 186.18Z" fill="#6D6D6D"/>
<path d="M696 298.5C696 298.5 667.47 347.22 609.35 347.16C554.4 347.1 527.02 302.81 527.02 302.81C527.02 302.81 550.87 273.28 580.91 298.01C570.31 284.35 577.38 265.03 593.28 264.05C602.76 263.47 609.19 268.29 612.59 275.46C615.76 268.78 622.11 263.39 632.15 264.05C646.98 265.02 655.12 284.35 644.69 297.33C672.78 275.13 696.01 298.49 696.01 298.49L696 298.5Z" fill="#6D6D6D"/>
<path d="M609.18 141.93C664.26 141.93 710.36 185.36 710.36 244.55C710.36 303.74 665.06 347.17 609.18 347.17C553.3 347.17 508 301.23 508 244.55C508 187.87 553.3 141.93 609.18 141.93Z" stroke="white" stroke-width="0.5" stroke-miterlimit="10"/>
<path d="M609.62 417.93C662.838 417.93 705.98 374.363 705.98 320.62C705.98 266.877 662.838 223.31 609.62 223.31C556.402 223.31 513.26 266.877 513.26 320.62C513.26 374.363 556.402 417.93 609.62 417.93Z" stroke="white" stroke-width="0.5" stroke-miterlimit="10"/>
<path d="M589.47 186.16C618.498 186.16 642.03 162.395 642.03 133.08C642.03 103.765 618.498 80 589.47 80C560.442 80 536.91 103.765 536.91 133.08C536.91 162.395 560.442 186.16 589.47 186.16Z" stroke="white" stroke-width="0.5" stroke-miterlimit="10"/>
<path d="M584.21 199.43C613.238 199.43 636.77 175.665 636.77 146.35C636.77 117.035 613.238 93.27 584.21 93.27C555.182 93.27 531.65 117.035 531.65 146.35C531.65 175.665 555.182 199.43 584.21 199.43Z" stroke="white" stroke-width="0.5" stroke-miterlimit="10"/>
<path d="M633.71 151.66C643.143 151.66 650.79 144.134 650.79 134.85C650.79 125.566 643.143 118.04 633.71 118.04C624.277 118.04 616.63 125.566 616.63 134.85C616.63 144.134 624.277 151.66 633.71 151.66Z" stroke="white" stroke-width="0.5" stroke-miterlimit="10"/>
<path d="M667.43 151.66C676.62 151.66 684.07 144.134 684.07 134.85C684.07 125.566 676.62 118.04 667.43 118.04C658.24 118.04 650.79 125.566 650.79 134.85C650.79 144.134 658.24 151.66 667.43 151.66Z" stroke="white" stroke-width="0.5" stroke-miterlimit="10"/>
<path d="M678.82 189.7C697.205 189.7 712.11 174.254 712.11 155.2C712.11 136.146 697.205 120.7 678.82 120.7C660.434 120.7 645.53 136.146 645.53 155.2C645.53 174.254 660.434 189.7 678.82 189.7Z" stroke="white" stroke-width="0.5" stroke-miterlimit="10"/>
<path d="M712.11 157.39C686.84 160.34 662.78 144.22 656.6 119.05" stroke="white" stroke-width="0.5" stroke-miterlimit="10"/>
<path d="M670.06 363.97C690.865 363.97 707.73 346.939 707.73 325.93C707.73 304.921 690.865 287.89 670.06 287.89C649.256 287.89 632.39 304.921 632.39 325.93C632.39 346.939 649.256 363.97 670.06 363.97Z" stroke="white" stroke-width="0.5" stroke-miterlimit="10"/>
<path d="M556.18 363.97C576.984 363.97 593.85 346.939 593.85 325.93C593.85 304.921 576.984 287.89 556.18 287.89C535.375 287.89 518.51 304.921 518.51 325.93C518.51 346.939 535.375 363.97 556.18 363.97Z" stroke="white" stroke-width="0.5" stroke-miterlimit="10"/>
<path d="M595.16 303.81C606.046 303.81 614.87 294.9 614.87 283.91C614.87 272.92 606.046 264.01 595.16 264.01C584.275 264.01 575.45 272.92 575.45 283.91C575.45 294.9 584.275 303.81 595.16 303.81Z" stroke="white" stroke-width="0.5" stroke-miterlimit="10"/>
<path d="M630.64 303.81C641.283 303.81 649.91 294.9 649.91 283.91C649.91 272.92 641.283 264.01 630.64 264.01C619.998 264.01 611.37 272.92 611.37 283.91C611.37 294.9 619.998 303.81 630.64 303.81Z" stroke="white" stroke-width="0.5" stroke-miterlimit="10"/>
<path d="M712.11 119.05H510.11V347.16H712.11V119.05Z" stroke="white" stroke-width="0.5" stroke-miterlimit="10"/>
<path d="M955.97 186.18C945.16 175.3 947.02 166.1 949.02 159.41C949.08 159.19 949.38 159.17 949.5 159.36C985.51 215.41 1060.93 175.76 1046.11 119.27C1046.07 119.13 1046.21 119 1046.34 119.06C1056.38 123.24 1057.38 133.27 1057.38 133.27C1057.38 133.27 1057.86 127.23 1063.59 121.79C1063.68 121.7 1063.84 121.74 1063.88 121.86C1072.13 146.58 1093.05 158.79 1117.91 157.55C1118.48 157.52 1118.93 158.06 1118.82 158.62C1111.71 195.71 1078.32 191.25 1069.93 185.85C1069.93 185.85 1102.01 221.23 1116.33 232.85C1116.75 233.19 1116.76 233.81 1116.38 234.18L1109.48 242.31C1109.19 242.59 1108.75 242.64 1108.41 242.42L1062.22 215.77L1101.54 247C1101.96 247.34 1101.99 247.98 1101.59 248.34L1090.94 258.29C1090.58 258.62 1090.01 258.59 1089.68 258.22C1034.37 197.3 962.82 229.97 941.7 258.68C941.36 259.14 940.69 259.16 940.32 258.72L931.41 248.26C931.11 247.91 931.13 247.37 931.46 247.05L963.45 215.76L923.73 240.86C923.36 241.14 922.84 241.09 922.54 240.73L915.48 232.06C915.2 231.73 915.2 231.24 915.48 230.91L955.98 186.17L955.97 186.18Z" fill="white"/>
<path d="M1103 298.5C1103 298.5 1074.47 347.22 1016.35 347.16C961.4 347.1 934.02 302.81 934.02 302.81C934.02 302.81 957.87 273.28 987.91 298.01C977.31 284.35 984.38 265.03 1000.28 264.05C1009.76 263.47 1016.19 268.29 1019.59 275.46C1022.76 268.78 1029.11 263.39 1039.15 264.05C1053.98 265.02 1062.12 284.35 1051.69 297.33C1079.78 275.13 1103 298.5 1103 298.5Z" fill="#6D6D6D"/>
<path d="M1103 298.5C1103 298.5 1074.47 347.22 1016.35 347.16C961.4 347.1 934.02 302.81 934.02 302.81C934.02 302.81 957.87 273.28 987.91 298.01C977.31 284.35 984.38 265.03 1000.28 264.05C1009.76 263.47 1016.19 268.29 1019.59 275.46C1022.76 268.78 1029.11 263.39 1039.15 264.05C1053.98 265.02 1062.12 284.35 1051.69 297.33C1079.78 275.13 1103 298.5 1103 298.5Z" fill="url(#paint0_radial_461_4815)"/>
<path d="M1016.18 141.93C1071.26 141.93 1117.36 185.36 1117.36 244.55C1117.36 303.74 1072.06 347.17 1016.18 347.17C960.3 347.17 915 301.23 915 244.55C915 187.87 960.3 141.93 1016.18 141.93Z" stroke="white" stroke-width="0.5" stroke-miterlimit="10"/>
<path d="M1016.62 417.93C1069.84 417.93 1112.98 374.363 1112.98 320.62C1112.98 266.877 1069.84 223.31 1016.62 223.31C963.402 223.31 920.26 266.877 920.26 320.62C920.26 374.363 963.402 417.93 1016.62 417.93Z" stroke="white" stroke-width="0.5" stroke-miterlimit="10"/>
<path d="M996.47 186.16C1025.5 186.16 1049.03 162.395 1049.03 133.08C1049.03 103.765 1025.5 80 996.47 80C967.442 80 943.91 103.765 943.91 133.08C943.91 162.395 967.442 186.16 996.47 186.16Z" stroke="white" stroke-width="0.5" stroke-miterlimit="10"/>
<path d="M991.21 199.43C1020.24 199.43 1043.77 175.665 1043.77 146.35C1043.77 117.035 1020.24 93.27 991.21 93.27C962.182 93.27 938.65 117.035 938.65 146.35C938.65 175.665 962.182 199.43 991.21 199.43Z" stroke="white" stroke-width="0.5" stroke-miterlimit="10"/>
<path d="M1040.71 151.66C1050.14 151.66 1057.79 144.134 1057.79 134.85C1057.79 125.566 1050.14 118.04 1040.71 118.04C1031.28 118.04 1023.63 125.566 1023.63 134.85C1023.63 144.134 1031.28 151.66 1040.71 151.66Z" stroke="white" stroke-width="0.5" stroke-miterlimit="10"/>
<path d="M1074.43 151.66C1083.62 151.66 1091.07 144.134 1091.07 134.85C1091.07 125.566 1083.62 118.04 1074.43 118.04C1065.24 118.04 1057.79 125.566 1057.79 134.85C1057.79 144.134 1065.24 151.66 1074.43 151.66Z" stroke="white" stroke-width="0.5" stroke-miterlimit="10"/>
<path d="M1085.82 189.7C1104.21 189.7 1119.11 174.254 1119.11 155.2C1119.11 136.146 1104.21 120.7 1085.82 120.7C1067.43 120.7 1052.53 136.146 1052.53 155.2C1052.53 174.254 1067.43 189.7 1085.82 189.7Z" stroke="white" stroke-width="0.5" stroke-miterlimit="10"/>
<path d="M1119.11 157.39C1093.84 160.34 1069.78 144.22 1063.6 119.05" stroke="white" stroke-width="0.5" stroke-miterlimit="10"/>
<path d="M1077.06 363.97C1097.86 363.97 1114.73 346.939 1114.73 325.93C1114.73 304.921 1097.86 287.89 1077.06 287.89C1056.26 287.89 1039.39 304.921 1039.39 325.93C1039.39 346.939 1056.26 363.97 1077.06 363.97Z" stroke="white" stroke-width="0.5" stroke-miterlimit="10"/>
<path d="M963.18 363.97C983.984 363.97 1000.85 346.939 1000.85 325.93C1000.85 304.921 983.984 287.89 963.18 287.89C942.375 287.89 925.51 304.921 925.51 325.93C925.51 346.939 942.375 363.97 963.18 363.97Z" stroke="white" stroke-width="0.5" stroke-miterlimit="10"/>
<path d="M1002.16 303.81C1013.05 303.81 1021.87 294.9 1021.87 283.91C1021.87 272.92 1013.05 264.01 1002.16 264.01C991.275 264.01 982.45 272.92 982.45 283.91C982.45 294.9 991.275 303.81 1002.16 303.81Z" stroke="white" stroke-width="0.5" stroke-miterlimit="10"/>
<path d="M1037.64 303.81C1048.28 303.81 1056.91 294.9 1056.91 283.91C1056.91 272.92 1048.28 264.01 1037.64 264.01C1027 264.01 1018.37 272.92 1018.37 283.91C1018.37 294.9 1027 303.81 1037.64 303.81Z" stroke="white" stroke-width="0.5" stroke-miterlimit="10"/>
<path d="M1119.11 119.05H917.11V347.16H1119.11V119.05Z" stroke="white" stroke-width="0.5" stroke-miterlimit="10"/>
<path d="M202.18 141.93C257.26 141.93 303.36 185.36 303.36 244.55C303.36 303.74 258.06 347.17 202.18 347.17C146.3 347.17 101 301.23 101 244.55C101 187.87 146.3 141.93 202.18 141.93Z" stroke="white" stroke-width="0.5" stroke-miterlimit="10"/>
<path d="M202.62 417.93C255.838 417.93 298.98 374.363 298.98 320.62C298.98 266.877 255.838 223.31 202.62 223.31C149.402 223.31 106.26 266.877 106.26 320.62C106.26 374.363 149.402 417.93 202.62 417.93Z" stroke="white" stroke-width="0.5" stroke-miterlimit="10"/>
<path d="M182.47 186.16C211.498 186.16 235.03 162.395 235.03 133.08C235.03 103.765 211.498 80 182.47 80C153.442 80 129.91 103.765 129.91 133.08C129.91 162.395 153.442 186.16 182.47 186.16Z" stroke="white" stroke-width="0.5" stroke-miterlimit="10"/>
<path d="M177.21 199.43C206.238 199.43 229.77 175.665 229.77 146.35C229.77 117.035 206.238 93.27 177.21 93.27C148.182 93.27 124.65 117.035 124.65 146.35C124.65 175.665 148.182 199.43 177.21 199.43Z" stroke="white" stroke-width="0.5" stroke-miterlimit="10"/>
<path d="M226.71 151.66C236.143 151.66 243.79 144.134 243.79 134.85C243.79 125.566 236.143 118.04 226.71 118.04C217.277 118.04 209.63 125.566 209.63 134.85C209.63 144.134 217.277 151.66 226.71 151.66Z" stroke="white" stroke-width="0.5" stroke-miterlimit="10"/>
<path d="M260.43 151.66C269.62 151.66 277.07 144.134 277.07 134.85C277.07 125.566 269.62 118.04 260.43 118.04C251.24 118.04 243.79 125.566 243.79 134.85C243.79 144.134 251.24 151.66 260.43 151.66Z" stroke="white" stroke-width="0.5" stroke-miterlimit="10"/>
<path d="M271.82 189.7C290.205 189.7 305.11 174.254 305.11 155.2C305.11 136.146 290.205 120.7 271.82 120.7C253.434 120.7 238.53 136.146 238.53 155.2C238.53 174.254 253.434 189.7 271.82 189.7Z" stroke="white" stroke-width="0.5" stroke-miterlimit="10"/>
<path d="M305.11 157.39C279.84 160.34 255.78 144.22 249.6 119.05" stroke="white" stroke-width="0.5" stroke-miterlimit="10"/>
<path d="M263.06 363.97C283.865 363.97 300.73 346.939 300.73 325.93C300.73 304.921 283.865 287.89 263.06 287.89C242.256 287.89 225.39 304.921 225.39 325.93C225.39 346.939 242.256 363.97 263.06 363.97Z" stroke="white" stroke-width="0.5" stroke-miterlimit="10"/>
<path d="M149.18 363.97C169.984 363.97 186.85 346.939 186.85 325.93C186.85 304.921 169.984 287.89 149.18 287.89C128.375 287.89 111.51 304.921 111.51 325.93C111.51 346.939 128.375 363.97 149.18 363.97Z" stroke="white" stroke-width="0.5" stroke-miterlimit="10"/>
<path d="M188.16 303.81C199.046 303.81 207.87 294.9 207.87 283.91C207.87 272.92 199.046 264.01 188.16 264.01C177.275 264.01 168.45 272.92 168.45 283.91C168.45 294.9 177.275 303.81 188.16 303.81Z" stroke="white" stroke-width="0.5" stroke-miterlimit="10"/>
<path d="M223.64 303.81C234.283 303.81 242.91 294.9 242.91 283.91C242.91 272.92 234.283 264.01 223.64 264.01C212.998 264.01 204.37 272.92 204.37 283.91C204.37 294.9 212.998 303.81 223.64 303.81Z" stroke="white" stroke-width="0.5" stroke-miterlimit="10"/>
<path d="M305.11 119.05H103.11V347.16H305.11V119.05Z" stroke="white" stroke-width="0.5" stroke-miterlimit="10"/>
<defs>
<radialGradient id="paint0_radial_461_4815" cx="0" cy="0" r="1" gradientUnits="userSpaceOnUse" gradientTransform="translate(1018.12 347.16) rotate(-90) scale(86.7431 150.005)">
<stop stop-color="#9D0501"/>
<stop offset="0.5" stop-color="#DB4703"/>
<stop offset="1" stop-color="#EF8522"/>
</radialGradient>
</defs>
</svg>
