<svg width="232" height="179" viewBox="0 0 232 179" fill="none" xmlns="http://www.w3.org/2000/svg">
<path d="M14.0953 25.2008C48.5004 -16.8052 92.6869 2.56279 92.6869 22.638C92.6869 54.6726 66.2049 44.2472 50.8283 53.8183C17.3414 74.6622 35.4517 112.335 55.5267 112.335L63.6421 128.566C19.6479 137.963 -22.6379 70.0491 14.0953 25.2008Z" fill="url(#paint0_linear_492_1206)"/>
<mask id="mask0_492_1206" style="mask-type:alpha" maskUnits="userSpaceOnUse" x="0" y="0" width="94" height="130">
<path d="M14.5314 24.9711C48.9365 -17.0348 93.123 2.33318 93.123 22.4084C93.123 54.443 66.641 44.0176 51.2644 53.5887C16.658 75.1294 35.8878 112.96 55.9628 112.96L61.5155 129.19C17.094 135.17 -22.2018 69.8194 14.5314 24.9711Z" fill="url(#paint1_linear_492_1206)"/>
</mask>
<g mask="url(#mask0_492_1206)">
<g filter="url(#filter0_f_492_1206)">
<path d="M30.3261 53.8182C33.7432 19.3062 71.3305 30.6109 89.697 40.5772L60.6523 74.7475C49.1198 82.151 26.9091 88.3302 30.3261 53.8182Z" fill="#FC5015"/>
</g>
<g filter="url(#filter1_f_492_1206)">
<path d="M-1.70846 61.5065C2.39198 80.9835 26.1973 93.8259 37.5874 97.8124C49.2622 99.3786 67.7426 103.963 48.2655 109.772C28.7885 115.581 3.70182 99.3786 -6.40687 90.5512C-6.54925 72.7542 -5.80889 42.0294 -1.70846 61.5065Z" fill="#FA7922"/>
</g>
</g>
<path d="M225.097 126.43C224.755 117.887 208.723 116.891 200.75 117.46L185.374 129.42C198.757 131.983 225.438 134.973 225.097 126.43Z" fill="url(#paint2_linear_492_1206)"/>
<path d="M154.193 13.6681C152.827 14.0098 150.492 33.1736 149.495 42.7128C152.57 34.8536 166.153 29.7566 172.56 28.1904C167.007 23.2073 155.56 13.3264 154.193 13.6681Z" fill="#F78F21"/>
<path d="M154.193 13.6681C152.827 14.3515 150.492 33.316 149.495 42.7128C150.178 38.6124 156.614 34.455 159.746 32.8889L154.193 13.6681Z" fill="url(#paint3_linear_492_1206)"/>
<path d="M210.737 14.7154C212.046 15.236 211.81 34.5401 211.528 44.1271C209.526 35.9286 196.743 29.0693 190.601 26.6644C196.768 22.4645 209.428 14.1949 210.737 14.7154Z" fill="#F78F21"/>
<path d="M210.737 14.7154C212.001 15.5747 211.791 34.6812 211.528 44.1271C211.397 39.9722 205.572 34.9954 202.676 33.0263L210.737 14.7154Z" fill="url(#paint4_linear_492_1206)"/>
<path d="M213.74 48.4749C198.705 9.86251 153.047 27.9812 149.495 41.0044C148.498 44.6618 144.459 58.5552 135.575 59.5803C124.47 60.8617 101.832 41.2138 77.4857 56.1633C42.2903 79.3991 54.5963 124.713 64.2448 133.046C73.8932 141.38 103.365 137.535 121.304 134.755C151.775 133.618 182.132 133.046 182.132 133.046C205.197 126.639 227.408 85.208 213.74 48.4749Z" fill="url(#paint5_linear_492_1206)"/>
<path d="M190.426 53.8442C189.355 52.2939 185.293 53.1174 184.624 53.8442C183.91 54.4255 187.078 57.2353 187.748 57.2353C188.417 57.2353 190.961 54.813 190.426 53.8442Z" fill="#E54611"/>
<g filter="url(#filter2_f_492_1206)">
<path d="M172.56 115.325C183.495 92.0889 170.042 88.8428 161.882 88.8428C152.058 88.8428 142.234 97.129 140.525 109.772C137.45 130.958 139.671 139.671 170.424 138.39C182.811 138.39 206.73 141.38 206.73 133.264C206.73 126.396 187.937 123.013 178.113 122.159C175.265 122.016 170.168 120.45 172.56 115.325Z" fill="url(#paint6_radial_492_1206)"/>
</g>
<mask id="mask1_492_1206" style="mask-type:alpha" maskUnits="userSpaceOnUse" x="139" y="88" width="68" height="51">
<path d="M172.302 115.325C183.237 92.0889 169.784 88.8428 161.624 88.8428C151.8 88.8428 141.976 97.129 140.268 109.772C137.192 130.958 139.413 139.671 170.167 138.39C182.553 138.39 206.473 141.38 206.473 133.264C206.473 126.396 187.679 123.013 177.855 122.159C175.007 122.016 169.91 120.45 172.302 115.325Z" fill="url(#paint7_radial_492_1206)"/>
</mask>
<g mask="url(#mask1_492_1206)">
<g filter="url(#filter3_f_492_1206)">
<ellipse cx="198.188" cy="132.41" rx="17.9394" ry="11.9596" fill="#FF9C1F"/>
</g>
</g>
<path d="M172.221 41.0044C179.392 41.284 181.599 51.7986 172.772 53.5883C161.739 55.8254 165.325 41.0044 172.221 41.0044Z" fill="#FFC153"/>
<path d="M199.381 41.0044C192.21 41.284 190.003 51.7986 198.83 53.5883C209.863 55.8254 206.277 41.0044 199.381 41.0044Z" fill="#FFC153"/>
<ellipse cx="2.13564" cy="4.69841" rx="2.13564" ry="4.69841" transform="matrix(-1 0 0 1 199.896 42.7129)" fill="#CC4305"/>
<ellipse cx="2.13564" cy="4.69841" rx="2.13564" ry="4.69841" transform="matrix(-1 0 0 1 174.268 42.7129)" fill="#CC4305"/>
<g filter="url(#filter4_f_492_1206)">
<path d="M115.752 123.867C126.686 82.863 95.819 79.7307 79.0186 83.2901C60.225 90.1242 63.215 134.545 92.2596 137.963C105.216 139.102 131.214 139.756 131.555 133.264C131.897 126.772 121.162 124.294 115.752 123.867Z" fill="url(#paint8_linear_492_1206)"/>
</g>
<mask id="mask2_492_1206" style="mask-type:alpha" maskUnits="userSpaceOnUse" x="67" y="82" width="65" height="57">
<path d="M116.057 123.677C126.992 82.6725 96.1245 79.5403 79.3241 83.0997C60.5304 89.9337 63.5205 134.355 92.5651 137.772C105.521 138.911 131.519 139.566 131.861 133.074C132.203 126.581 121.467 124.104 116.057 123.677Z" fill="url(#paint9_linear_492_1206)"/>
</mask>
<g mask="url(#mask2_492_1206)">
<g filter="url(#filter5_f_492_1206)">
<ellipse cx="103.625" cy="90.603" rx="19.2208" ry="10.0696" transform="rotate(32.6359 103.625 90.603)" fill="#F2940C"/>
</g>
<g filter="url(#filter6_f_492_1206)">
<ellipse cx="80.5603" cy="129.045" rx="19.2208" ry="10.0696" transform="rotate(32.6359 80.5603 129.045)" fill="#FC4315"/>
</g>
</g>
<defs>
<filter id="filter0_f_492_1206" x="17.3728" y="17.9104" width="84.9242" height="75.2083" filterUnits="userSpaceOnUse" color-interpolation-filters="sRGB">
<feFlood flood-opacity="0" result="BackgroundImageFix"/>
<feBlend mode="normal" in="SourceGraphic" in2="BackgroundImageFix" result="shape"/>
<feGaussianBlur stdDeviation="6.3" result="effect1_foregroundBlur_492_1206"/>
</filter>
<filter id="filter1_f_492_1206" x="-24.523" y="37.1646" width="99.3945" height="91.9356" filterUnits="userSpaceOnUse" color-interpolation-filters="sRGB">
<feFlood flood-opacity="0" result="BackgroundImageFix"/>
<feBlend mode="normal" in="SourceGraphic" in2="BackgroundImageFix" result="shape"/>
<feGaussianBlur stdDeviation="9.05" result="effect1_foregroundBlur_492_1206"/>
</filter>
<filter id="filter2_f_492_1206" x="114.502" y="63.8428" width="117.229" height="100.085" filterUnits="userSpaceOnUse" color-interpolation-filters="sRGB">
<feFlood flood-opacity="0" result="BackgroundImageFix"/>
<feBlend mode="normal" in="SourceGraphic" in2="BackgroundImageFix" result="shape"/>
<feGaussianBlur stdDeviation="0" result="effect1_foregroundBlur_492_1206"/>
</filter>
<filter id="filter3_f_492_1206" x="163.348" y="103.55" width="69.6788" height="57.7192" filterUnits="userSpaceOnUse" color-interpolation-filters="sRGB">
<feFlood flood-opacity="0" result="BackgroundImageFix"/>
<feBlend mode="normal" in="SourceGraphic" in2="BackgroundImageFix" result="shape"/>
<feGaussianBlur stdDeviation="8.45" result="effect1_foregroundBlur_492_1206"/>
</filter>
<filter id="filter4_f_492_1206" x="27.1808" y="42.1991" width="144.383" height="136.496" filterUnits="userSpaceOnUse" color-interpolation-filters="sRGB">
<feFlood flood-opacity="0" result="BackgroundImageFix"/>
<feBlend mode="normal" in="SourceGraphic" in2="BackgroundImageFix" result="shape"/>
<feGaussianBlur stdDeviation="0" result="effect1_foregroundBlur_492_1206"/>
</filter>
<filter id="filter5_f_492_1206" x="71.3479" y="62.0103" width="64.5548" height="57.1854" filterUnits="userSpaceOnUse" color-interpolation-filters="sRGB">
<feFlood flood-opacity="0" result="BackgroundImageFix"/>
<feBlend mode="normal" in="SourceGraphic" in2="BackgroundImageFix" result="shape"/>
<feGaussianBlur stdDeviation="7.6" result="effect1_foregroundBlur_492_1206"/>
</filter>
<filter id="filter6_f_492_1206" x="48.2829" y="100.452" width="64.5548" height="57.1854" filterUnits="userSpaceOnUse" color-interpolation-filters="sRGB">
<feFlood flood-opacity="0" result="BackgroundImageFix"/>
<feBlend mode="normal" in="SourceGraphic" in2="BackgroundImageFix" result="shape"/>
<feGaussianBlur stdDeviation="7.6" result="effect1_foregroundBlur_492_1206"/>
</filter>
<linearGradient id="paint0_linear_492_1206" x1="46.1255" y1="0.229614" x2="46.1255" y2="129.803" gradientUnits="userSpaceOnUse">
<stop stop-color="#FA9C1D"/>
<stop offset="1" stop-color="#FB3817"/>
</linearGradient>
<linearGradient id="paint1_linear_492_1206" x1="46.5615" y1="0" x2="46.5615" y2="129.573" gradientUnits="userSpaceOnUse">
<stop stop-color="#FA9C1D"/>
<stop offset="1" stop-color="#FA362B"/>
</linearGradient>
<linearGradient id="paint2_linear_492_1206" x1="225.1" y1="124.71" x2="191.354" y2="117.033" gradientUnits="userSpaceOnUse">
<stop stop-color="#F17E1A"/>
<stop offset="1" stop-color="#FA3B15"/>
</linearGradient>
<linearGradient id="paint3_linear_492_1206" x1="147.359" y1="21.3564" x2="160.173" y2="32.8889" gradientUnits="userSpaceOnUse">
<stop stop-color="#F77D10"/>
<stop offset="1" stop-color="#ED4423"/>
</linearGradient>
<linearGradient id="paint4_linear_492_1206" x1="216.487" y1="23.2448" x2="202.253" y2="32.9695" gradientUnits="userSpaceOnUse">
<stop stop-color="#F77D10"/>
<stop offset="1" stop-color="#ED4423"/>
</linearGradient>
<linearGradient id="paint5_linear_492_1206" x1="135.874" y1="25.6278" x2="135.874" y2="133.046" gradientUnits="userSpaceOnUse">
<stop stop-color="#F79B1B"/>
<stop offset="1" stop-color="#FD3B17"/>
</linearGradient>
<radialGradient id="paint6_radial_492_1206" cx="0" cy="0" r="1" gradientUnits="userSpaceOnUse" gradientTransform="translate(144.797 139.244) rotate(-51.8182) scale(55.9685 75.1261)">
<stop stop-color="#FD5306"/>
<stop offset="1" stop-color="#F77A0C"/>
</radialGradient>
<radialGradient id="paint7_radial_492_1206" cx="0" cy="0" r="1" gradientUnits="userSpaceOnUse" gradientTransform="translate(144.539 139.244) rotate(-51.8182) scale(55.9685 75.1261)">
<stop stop-color="#FD5306"/>
<stop offset="1" stop-color="#F77A0C"/>
</radialGradient>
<linearGradient id="paint8_linear_492_1206" x1="99.3721" y1="82.1991" x2="99.3721" y2="138.695" gradientUnits="userSpaceOnUse">
<stop stop-color="#F7900D"/>
<stop offset="1" stop-color="#F96003"/>
</linearGradient>
<linearGradient id="paint9_linear_492_1206" x1="99.6776" y1="82.0087" x2="99.6776" y2="138.505" gradientUnits="userSpaceOnUse">
<stop stop-color="#F7900D"/>
<stop offset="1" stop-color="#F96003"/>
</linearGradient>
</defs>
</svg>
