<svg width="90" height="124" viewBox="0 0 90 124" fill="none" xmlns="http://www.w3.org/2000/svg">
<path d="M59.6647 64.5337C57.0846 56.1055 49.3284 40.0616 38.9447 43.311C25.9652 47.3727 36.0108 64.2868 59.6647 64.5337Z" fill="#D9D9D9"/>
<path d="M59.6647 64.5337C57.0846 56.1055 49.3284 40.0616 38.9447 43.311C25.9652 47.3727 36.0108 64.2868 59.6647 64.5337Z" fill="url(#paint0_linear_2001_936)"/>
<path d="M59.6647 64.5337C57.0846 56.1055 49.3284 40.0616 38.9447 43.311C25.9652 47.3727 36.0108 64.2868 59.6647 64.5337Z" fill="url(#paint1_linear_2001_936)"/>
<path d="M59.6647 64.5337C57.0846 56.1055 49.3284 40.0616 38.9447 43.311C25.9652 47.3727 36.0108 64.2868 59.6647 64.5337Z" fill="url(#paint2_linear_2001_936)"/>
<path d="M66.2873 82.5861C70.5999 78.3772 80.5156 71.2984 85.6779 76.654C92.1307 83.3484 80.5562 90.1981 66.2873 82.5861Z" fill="#D9D9D9"/>
<path d="M66.2873 82.5861C70.5999 78.3772 80.5156 71.2984 85.6779 76.654C92.1307 83.3484 80.5562 90.1981 66.2873 82.5861Z" fill="url(#paint3_linear_2001_936)"/>
<path d="M66.2873 82.5861C70.5999 78.3772 80.5156 71.2984 85.6779 76.654C92.1307 83.3484 80.5562 90.1981 66.2873 82.5861Z" fill="url(#paint4_linear_2001_936)"/>
<path d="M66.2873 82.5861C70.5999 78.3772 80.5156 71.2984 85.6779 76.654C92.1307 83.3484 80.5562 90.1981 66.2873 82.5861Z" fill="url(#paint5_linear_2001_936)"/>
<path d="M61.6509 69.8607C59.4955 59.2678 58.4578 37.4371 71.5498 34.8577C87.9149 31.6335 86.9952 55.7426 61.6509 69.8607Z" fill="#D9D9D9"/>
<path d="M61.6509 69.8607C59.4955 59.2678 58.4578 37.4371 71.5498 34.8577C87.9149 31.6335 86.9952 55.7426 61.6509 69.8607Z" fill="url(#paint6_linear_2001_936)"/>
<path d="M61.6509 69.8607C59.4955 59.2678 58.4578 37.4371 71.5498 34.8577C87.9149 31.6335 86.9952 55.7426 61.6509 69.8607Z" fill="url(#paint7_linear_2001_936)"/>
<path d="M61.6509 69.8607C59.4955 59.2678 58.4578 37.4371 71.5498 34.8577C87.9149 31.6335 86.9952 55.7426 61.6509 69.8607Z" fill="url(#paint8_linear_2001_936)"/>
<path d="M51.8039 19.9758C51.8039 19.9758 49.4812 45.7583 67.1341 88.0324H69.9214C69.9214 88.0324 50.6426 47.3843 54.359 21.834L51.8039 19.9758Z" fill="url(#paint9_linear_2001_936)"/>
<path d="M73.4158 3.05896C61.4836 -1.38489 39.619 13.4423 51.9125 24.8971C64.2061 36.3519 77.2723 14.9942 73.4158 3.05896Z" fill="#D9D9D9"/>
<path d="M73.4158 3.05896C61.4836 -1.38489 39.619 13.4423 51.9125 24.8971C64.2061 36.3519 77.2723 14.9942 73.4158 3.05896Z" fill="url(#paint10_linear_2001_936)"/>
<path d="M73.4158 3.05896C61.4836 -1.38489 39.619 13.4423 51.9125 24.8971C64.2061 36.3519 77.2723 14.9942 73.4158 3.05896Z" fill="url(#paint11_linear_2001_936)"/>
<path d="M57.218 19.3167C59.3207 14.3411 57.4522 7.19879 56.2552 4.24956C49.6245 6.39205 43.562 18.6031 51.9375 26.3931C58.6378 32.6251 67.4308 27.0012 70.9898 23.4103C65.5163 17.9535 59.528 18.4076 57.218 19.3167Z" fill="url(#paint12_linear_2001_936)"/>
<path d="M57.218 19.3167C59.3207 14.3411 57.4522 7.19879 56.2552 4.24956C49.6245 6.39205 43.562 18.6031 51.9375 26.3931C58.6378 32.6251 67.4308 27.0012 70.9898 23.4103C65.5163 17.9535 59.528 18.4076 57.218 19.3167Z" fill="url(#paint13_linear_2001_936)"/>
<path d="M53.2174 77.8005C45.3537 71.5046 27.6986 61.3517 19.9874 71.1066C10.3485 83.3002 30.7256 92.8003 53.2174 77.8005Z" fill="#D9D9D9"/>
<path d="M53.2174 77.8005C45.3537 71.5046 27.6986 61.3517 19.9874 71.1066C10.3485 83.3002 30.7256 92.8003 53.2174 77.8005Z" fill="url(#paint14_linear_2001_936)"/>
<path d="M53.2174 77.8005C45.3537 71.5046 27.6986 61.3517 19.9874 71.1066C10.3485 83.3002 30.7256 92.8003 53.2174 77.8005Z" fill="url(#paint15_linear_2001_936)"/>
<path d="M35.2149 54.3764C35.2149 54.3764 44.8573 76.4183 77.9156 103.115L80.1557 101.889C80.1557 101.889 46.5165 77.2329 38.0979 54.767L35.2149 54.3764Z" fill="url(#paint16_linear_2001_936)"/>
<path d="M35.2149 54.3764C35.2149 54.3764 44.8573 76.4183 77.9156 103.115L80.1557 101.889C80.1557 101.889 46.5165 77.2329 38.0979 54.767L35.2149 54.3764Z" fill="url(#paint17_linear_2001_936)"/>
<path d="M35.2149 54.3764C35.2149 54.3764 44.8573 76.4183 77.9156 103.115L80.1557 101.889C80.1557 101.889 46.5165 77.2329 38.0979 54.767L35.2149 54.3764Z" fill="url(#paint18_linear_2001_936)"/>
<path d="M37.4265 42.3417C36.4694 36.9031 39.0894 34.7135 41.4704 34.0848C42.406 33.8378 43.35 34.3868 43.6904 35.2926C45.1388 39.1468 42.9977 42.0255 40.6378 43.7299C39.3802 44.6382 37.6953 43.8696 37.4265 42.3417Z" fill="url(#paint19_linear_2001_936)"/>
<path d="M37.4265 42.3417C36.4694 36.9031 39.0894 34.7135 41.4704 34.0848C42.406 33.8378 43.35 34.3868 43.6904 35.2926C45.1388 39.1468 42.9977 42.0255 40.6378 43.7299C39.3802 44.6382 37.6953 43.8696 37.4265 42.3417Z" fill="url(#paint20_linear_2001_936)"/>
<path d="M36.099 42.456C37.2518 36.8377 34.3421 34.6162 31.7636 34.0073C30.8472 33.7909 29.9234 34.2986 29.5591 35.1668C27.8903 39.1434 30.3189 42.1166 32.9028 43.833C34.1603 44.6682 35.7956 43.9348 36.099 42.456Z" fill="url(#paint21_linear_2001_936)"/>
<path d="M36.099 42.456C37.2518 36.8377 34.3421 34.6162 31.7636 34.0073C30.8472 33.7909 29.9234 34.2986 29.5591 35.1668C27.8903 39.1434 30.3189 42.1166 32.9028 43.833C34.1603 44.6682 35.7956 43.9348 36.099 42.456Z" fill="url(#paint22_linear_2001_936)"/>
<path d="M38.3728 32.4384C46.0765 39.3807 42.477 47.967 38.4996 51.0834C37.7573 51.6651 36.7202 51.583 35.9822 50.9957C28.4707 45.0178 30.9172 36.1004 35.597 32.2978C36.4156 31.6327 37.5892 31.7324 38.3728 32.4384Z" fill="url(#paint23_linear_2001_936)"/>
<path d="M38.3728 32.4384C46.0765 39.3807 42.477 47.967 38.4996 51.0834C37.7573 51.6651 36.7202 51.583 35.9822 50.9957C28.4707 45.0178 30.9172 36.1004 35.597 32.2978C36.4156 31.6327 37.5892 31.7324 38.3728 32.4384Z" fill="url(#paint24_linear_2001_936)"/>
<path d="M36.2536 54.5508C33.2433 42.9152 39.3657 39.0164 44.0569 38.3337C45.0003 38.1964 45.9081 38.7197 46.3199 39.5795C50.1677 47.6122 44.5272 53.2919 39.5908 56.0382C38.2553 56.7812 36.6364 56.0303 36.2536 54.5508Z" fill="url(#paint25_linear_2001_936)"/>
<path d="M36.2536 54.5508C33.2433 42.9152 39.3657 39.0164 44.0569 38.3337C45.0003 38.1964 45.9081 38.7197 46.3199 39.5795C50.1677 47.6122 44.5272 53.2919 39.5908 56.0382C38.2553 56.7812 36.6364 56.0303 36.2536 54.5508Z" fill="url(#paint26_linear_2001_936)"/>
<path d="M38.6273 54.6023C41.6774 42.9944 34.3454 38.9711 29.3697 38.2592C28.436 38.1256 27.5304 38.6258 27.116 39.473C23.1944 47.4904 29.9949 53.3161 35.2988 56.0903C36.6387 56.7911 38.243 56.0647 38.6273 54.6023Z" fill="url(#paint27_linear_2001_936)"/>
<path d="M38.6273 54.6023C41.6774 42.9944 34.3454 38.9711 29.3697 38.2592C28.436 38.1256 27.5304 38.6258 27.116 39.473C23.1944 47.4904 29.9949 53.3161 35.2988 56.0903C36.6387 56.7911 38.243 56.0647 38.6273 54.6023Z" fill="url(#paint28_linear_2001_936)"/>
<defs>
<linearGradient id="paint0_linear_2001_936" x1="48.5453" y1="45.5149" x2="42.4281" y2="60.9192" gradientUnits="userSpaceOnUse">
<stop stop-color="#FFA345"/>
<stop offset="0.893609" stop-color="#F36003"/>
</linearGradient>
<linearGradient id="paint1_linear_2001_936" x1="58.5095" y1="39.6708" x2="46.9362" y2="58.9429" gradientUnits="userSpaceOnUse">
<stop stop-color="#FFA345"/>
<stop offset="0.539973" stop-color="#F36003"/>
<stop offset="1" stop-color="#9D0501"/>
</linearGradient>
<linearGradient id="paint2_linear_2001_936" x1="47.0825" y1="37.8232" x2="43.3758" y2="63.3914" gradientUnits="userSpaceOnUse">
<stop stop-color="#FFA345"/>
<stop offset="0.283654" stop-color="#F36003"/>
<stop offset="0.596154" stop-color="#9D0501"/>
<stop offset="1" stop-color="#0F0E0E"/>
</linearGradient>
<linearGradient id="paint3_linear_2001_936" x1="79.1963" y1="74.8263" x2="77.8118" y2="86.0729" gradientUnits="userSpaceOnUse">
<stop stop-color="#FFA345"/>
<stop offset="0.893609" stop-color="#F36003"/>
</linearGradient>
<linearGradient id="paint4_linear_2001_936" x1="75.1369" y1="68.052" x2="75.7562" y2="83.4085" gradientUnits="userSpaceOnUse">
<stop stop-color="#FFA345"/>
<stop offset="0.539973" stop-color="#F36003"/>
<stop offset="1" stop-color="#9D0501"/>
</linearGradient>
<linearGradient id="paint5_linear_2001_936" x1="75.1369" y1="68.052" x2="75.7562" y2="83.4085" gradientUnits="userSpaceOnUse">
<stop stop-color="#FFA345"/>
<stop offset="0.283654" stop-color="#F36003"/>
<stop offset="0.596154" stop-color="#9D0501"/>
<stop offset="1" stop-color="#0F0E0E"/>
</linearGradient>
<linearGradient id="paint6_linear_2001_936" x1="62.4952" y1="42.8549" x2="78.108" y2="55.8719" gradientUnits="userSpaceOnUse">
<stop stop-color="#FFA345"/>
<stop offset="0.893609" stop-color="#F36003"/>
</linearGradient>
<linearGradient id="paint7_linear_2001_936" x1="48.3356" y1="42.3927" x2="72.0928" y2="56.3822" gradientUnits="userSpaceOnUse">
<stop stop-color="#FFA345"/>
<stop offset="0.539973" stop-color="#F36003"/>
<stop offset="1" stop-color="#9D0501"/>
</linearGradient>
<linearGradient id="paint8_linear_2001_936" x1="64.7264" y1="28.1731" x2="82.1568" y2="59.9599" gradientUnits="userSpaceOnUse">
<stop stop-color="#FFA345"/>
<stop offset="0.283654" stop-color="#F36003"/>
<stop offset="0.596154" stop-color="#9D0501"/>
<stop offset="1" stop-color="#0F0E0E"/>
</linearGradient>
<linearGradient id="paint9_linear_2001_936" x1="55.8337" y1="21.2495" x2="32.2262" y2="38.1573" gradientUnits="userSpaceOnUse">
<stop stop-color="#FFA345"/>
<stop offset="0.283654" stop-color="#F36003"/>
<stop offset="0.596154" stop-color="#9D0501"/>
<stop offset="1" stop-color="#0F0E0E"/>
</linearGradient>
<linearGradient id="paint10_linear_2001_936" x1="75.4568" y1="0.974138" x2="64.815" y2="28.3257" gradientUnits="userSpaceOnUse">
<stop stop-color="#FFA345"/>
<stop offset="0.766283" stop-color="#F36003"/>
</linearGradient>
<linearGradient id="paint11_linear_2001_936" x1="48.5474" y1="-0.846574" x2="66.5594" y2="19.7033" gradientUnits="userSpaceOnUse">
<stop stop-color="#FFA345"/>
<stop offset="0.539973" stop-color="#F36003"/>
<stop offset="1" stop-color="#9D0501"/>
</linearGradient>
<linearGradient id="paint12_linear_2001_936" x1="75.1449" y1="18.8944" x2="59.6079" y2="35.5115" gradientUnits="userSpaceOnUse">
<stop offset="0.27885" stop-color="#FFA345"/>
<stop offset="0.913462" stop-color="#F36003"/>
</linearGradient>
<linearGradient id="paint13_linear_2001_936" x1="45.8817" y1="-1.67494" x2="66.8644" y2="15.392" gradientUnits="userSpaceOnUse">
<stop stop-color="#FFA345"/>
<stop offset="0.539973" stop-color="#F36003"/>
<stop offset="1" stop-color="#9D0501"/>
</linearGradient>
<linearGradient id="paint14_linear_2001_936" x1="30.4711" y1="67.0047" x2="34.6158" y2="85.4882" gradientUnits="userSpaceOnUse">
<stop stop-color="#FFA345"/>
<stop offset="0.893609" stop-color="#F36003"/>
</linearGradient>
<linearGradient id="paint15_linear_2001_936" x1="40.5" y1="53.5" x2="52.1033" y2="79.8798" gradientUnits="userSpaceOnUse">
<stop stop-color="#FFA345"/>
<stop offset="0.539973" stop-color="#F36003"/>
<stop offset="0.836538" stop-color="#9D0501"/>
<stop offset="1" stop-color="#370505"/>
</linearGradient>
<linearGradient id="paint16_linear_2001_936" x1="55.9732" y1="88.3001" x2="55.4046" y2="132.647" gradientUnits="userSpaceOnUse">
<stop stop-color="#F36003"/>
<stop offset="0.885027" stop-color="#9D0501"/>
<stop offset="1" stop-color="#2B0200"/>
</linearGradient>
<linearGradient id="paint17_linear_2001_936" x1="35.8898" y1="28.6666" x2="15.2713" y2="58.061" gradientUnits="userSpaceOnUse">
<stop stop-color="#FFA345"/>
<stop offset="0.539973" stop-color="#F36003"/>
<stop offset="1" stop-color="#9D0501"/>
</linearGradient>
<linearGradient id="paint18_linear_2001_936" x1="34.2986" y1="48.781" x2="21.5258" y2="75.4178" gradientUnits="userSpaceOnUse">
<stop stop-color="#FFA345"/>
<stop offset="0.283654" stop-color="#F36003"/>
<stop offset="0.596154" stop-color="#9D0501"/>
<stop offset="1" stop-color="#0F0E0E"/>
</linearGradient>
<linearGradient id="paint19_linear_2001_936" x1="41.0923" y1="33.4776" x2="44.9221" y2="42.9736" gradientUnits="userSpaceOnUse">
<stop stop-color="#FFA345"/>
<stop offset="0.581731" stop-color="#F36003"/>
</linearGradient>
<linearGradient id="paint20_linear_2001_936" x1="38.7894" y1="29.9044" x2="45.9044" y2="38.1615" gradientUnits="userSpaceOnUse">
<stop stop-color="#FFA345"/>
<stop offset="0.539973" stop-color="#F36003"/>
<stop offset="1" stop-color="#9D0501"/>
</linearGradient>
<linearGradient id="paint21_linear_2001_936" x1="32.3105" y1="33.4381" x2="28.5621" y2="43.0574" gradientUnits="userSpaceOnUse">
<stop stop-color="#FFA345"/>
<stop offset="0.581731" stop-color="#F36003"/>
</linearGradient>
<linearGradient id="paint22_linear_2001_936" x1="34.7904" y1="29.8864" x2="27.6722" y2="38.5048" gradientUnits="userSpaceOnUse">
<stop stop-color="#FFA345"/>
<stop offset="0.539973" stop-color="#F36003"/>
<stop offset="1" stop-color="#9D0501"/>
</linearGradient>
<linearGradient id="paint23_linear_2001_936" x1="36.0824" y1="50.7932" x2="29.713" y2="36.1416" gradientUnits="userSpaceOnUse">
<stop offset="0.325243" stop-color="#F36003"/>
<stop offset="0.405678" stop-color="#F36003"/>
<stop offset="1" stop-color="#FFA345"/>
</linearGradient>
<linearGradient id="paint24_linear_2001_936" x1="46.9655" y1="54.6147" x2="30.1355" y2="46.1248" gradientUnits="userSpaceOnUse">
<stop stop-color="#FFA345"/>
<stop offset="0.539973" stop-color="#F36003"/>
<stop offset="1" stop-color="#9D0501"/>
</linearGradient>
<linearGradient id="paint25_linear_2001_936" x1="44.0705" y1="39.0958" x2="45.7212" y2="55.3783" gradientUnits="userSpaceOnUse">
<stop stop-color="#FFA345"/>
<stop offset="0.706968" stop-color="#F36003"/>
</linearGradient>
<linearGradient id="paint26_linear_2001_936" x1="38.1902" y1="31.4929" x2="50.1664" y2="45.8659" gradientUnits="userSpaceOnUse">
<stop stop-color="#FFA345"/>
<stop offset="0.539973" stop-color="#F36003"/>
<stop offset="1" stop-color="#9D0501"/>
</linearGradient>
<linearGradient id="paint27_linear_2001_936" x1="31.5096" y1="39.3999" x2="25.8539" y2="54.0073" gradientUnits="userSpaceOnUse">
<stop stop-color="#FFA345"/>
<stop offset="0.913462" stop-color="#F36003"/>
</linearGradient>
<linearGradient id="paint28_linear_2001_936" x1="36.4841" y1="31.485" x2="24.6409" y2="46.9337" gradientUnits="userSpaceOnUse">
<stop stop-color="#FFA345"/>
<stop offset="0.539973" stop-color="#F36003"/>
<stop offset="1" stop-color="#9D0501"/>
</linearGradient>
</defs>
</svg>
