<svg width="40" height="40" viewBox="0 0 40 40" fill="none" xmlns="http://www.w3.org/2000/svg">
<rect width="40" height="40" rx="20" fill="#4E4E4E" fill-opacity="0.5"/>
<path fill-rule="evenodd" clip-rule="evenodd" d="M15.9437 11.2189C16.2356 11.5108 16.2356 11.984 15.9437 12.2759L13.5518 14.6678H21.8339C25.7916 14.6678 29 17.8762 29 21.8339C29 25.7916 25.7916 29 21.8339 29H11.7474C11.3346 29 11 28.6654 11 28.2526C11 27.8398 11.3346 27.5052 11.7474 27.5052H21.8339C24.9661 27.5052 27.5052 24.9661 27.5052 21.8339C27.5052 18.7018 24.9661 16.1626 21.8339 16.1626H13.5518L15.9437 18.5546C16.2356 18.8464 16.2356 19.3197 15.9437 19.6115C15.6518 19.9034 15.1786 19.9034 14.8867 19.6115L11.2189 15.9437C10.927 15.6518 10.927 15.1786 11.2189 14.8867L14.8867 11.2189C15.1786 10.927 15.6518 10.927 15.9437 11.2189Z" fill="white"/>
</svg>
