<svg width="16" height="16" viewBox="0 0 16 16" fill="none" xmlns="http://www.w3.org/2000/svg">
<path d="M7.85401 9.2938L4.60277 5.42841M7.85401 9.2938L11.4008 5.42841M7.85401 9.2938L12.5092 8.77456M7.85401 9.2938L5.71115 11.5438M7.85401 9.2938C6.19312 9.55876 4.78226 9.21838 3.64218 8.61716M7.85401 9.2938L10.0708 11.5438M7.85401 9.2938V5.19764M4.60277 5.42841C4.92297 4.19764 6.02149 1.47072 7.85401 0.40918C8.98701 1.12072 11.2826 3.12072 11.4008 5.42841M4.60277 5.42841C3.69144 5.17841 1.588 4.82841 0.464844 5.42841C0.922287 6.34735 2.002 7.7522 3.64218 8.61716M11.4008 5.42841C12.6422 5.05918 14.6274 5.27456 15.4648 5.42841C14.8146 6.99764 13.2235 8.31303 12.5092 8.77456M12.5092 8.77456C14.4599 9.7438 15.2924 11.4092 15.4648 12.1207C13.3368 12.5823 10.9821 11.9284 10.0708 11.5438M5.71115 11.5438C5.04612 11.8899 3.06583 12.4899 0.464844 12.1207C0.563366 11.3427 1.33676 9.55277 3.64218 8.61716M5.71115 11.5438C5.53381 13.3089 7.06583 14.8562 7.85401 15.4092C9.33184 14.6246 9.9476 12.5053 10.0708 11.5438M7.85401 5.19764L6.89342 4.21687L7.85401 2.65918L8.88849 4.21687L7.85401 5.19764Z" stroke="white" stroke-width="0.7"/>
</svg>
