<svg width="61" height="61" viewBox="0 0 61 61" fill="none" xmlns="http://www.w3.org/2000/svg">
<g filter="url(#filter0_iii_742_277)">
<path d="M0 30.3797C0 13.6274 13.5805 0 30.3328 0V0C47.0852 0 60.6657 13.6274 60.6657 30.3797V30.3797C60.6657 47.1321 47.0852 60.7595 30.3328 60.7595V60.7595C13.5805 60.7595 0 47.1321 0 30.3797V30.3797Z" fill="black"/>
</g>
<path fill-rule="evenodd" clip-rule="evenodd" d="M24.7801 43.2257C24.0967 42.5293 24.0967 41.4005 24.7801 40.7041L35.2091 30.0772L24.7801 19.4503C24.0967 18.7539 24.0967 17.6249 24.7801 16.9285C25.4635 16.2322 26.5716 16.2322 27.255 16.9285L38.9214 28.8163C39.6048 29.5127 39.6048 30.6416 38.9214 31.338L27.255 43.2257C26.5716 43.9221 25.4635 43.9221 24.7801 43.2257Z" fill="white"/>
<defs>
<filter id="filter0_iii_742_277" x="0" y="0" width="80.6656" height="75.7598" filterUnits="userSpaceOnUse" color-interpolation-filters="sRGB">
<feFlood flood-opacity="0" result="BackgroundImageFix"/>
<feBlend mode="normal" in="SourceGraphic" in2="BackgroundImageFix" result="shape"/>
<feColorMatrix in="SourceAlpha" type="matrix" values="0 0 0 0 0 0 0 0 0 0 0 0 0 0 0 0 0 0 127 0" result="hardAlpha"/>
<feOffset dx="35" dy="15"/>
<feGaussianBlur stdDeviation="10"/>
<feComposite in2="hardAlpha" operator="arithmetic" k2="-1" k3="1"/>
<feColorMatrix type="matrix" values="0 0 0 0 1 0 0 0 0 0 0 0 0 0 0 0 0 0 1 0"/>
<feBlend mode="normal" in2="shape" result="effect1_innerShadow_742_277"/>
<feColorMatrix in="SourceAlpha" type="matrix" values="0 0 0 0 0 0 0 0 0 0 0 0 0 0 0 0 0 0 127 0" result="hardAlpha"/>
<feOffset dx="25" dy="10"/>
<feGaussianBlur stdDeviation="10"/>
<feComposite in2="hardAlpha" operator="arithmetic" k2="-1" k3="1"/>
<feColorMatrix type="matrix" values="0 0 0 0 1 0 0 0 0 0.366667 0 0 0 0 0 0 0 0 1 0"/>
<feBlend mode="normal" in2="effect1_innerShadow_742_277" result="effect2_innerShadow_742_277"/>
<feColorMatrix in="SourceAlpha" type="matrix" values="0 0 0 0 0 0 0 0 0 0 0 0 0 0 0 0 0 0 127 0" result="hardAlpha"/>
<feOffset dx="10" dy="5"/>
<feGaussianBlur stdDeviation="10"/>
<feComposite in2="hardAlpha" operator="arithmetic" k2="-1" k3="1"/>
<feColorMatrix type="matrix" values="0 0 0 0 1 0 0 0 0 0.916667 0 0 0 0 0 0 0 0 1 0"/>
<feBlend mode="normal" in2="effect2_innerShadow_742_277" result="effect3_innerShadow_742_277"/>
</filter>
</defs>
</svg>
