<svg width="15" height="15" viewBox="0 0 15 15" fill="none" xmlns="http://www.w3.org/2000/svg">
<path d="M0.350098 0.614258L3.78646 2.65062C4.42282 2.39608 6.00101 1.88699 7.22283 1.88699C8.44464 1.88699 10.1077 2.39608 10.7865 2.65062L14.3501 0.614258V8.75971C13.9259 10.7112 11.9065 14.6143 7.22283 14.6143C2.53919 14.6143 0.689492 10.7112 0.350098 8.75971V0.614258Z" stroke="white" stroke-width="0.7" stroke-linecap="round"/>
<path d="M3.91608 6.72363C2.64333 6.72363 2.51605 9.26909 3.78881 9.26909C5.44825 9.26909 5.06152 6.72363 3.91608 6.72363Z" fill="white"/>
<path d="M10.5041 6.72363C11.7768 6.72363 11.9041 9.26909 10.6314 9.26909C8.97192 9.26909 9.35864 6.72363 10.5041 6.72363Z" fill="white"/>
<path d="M7.22285 9.1416C6.30648 9.1416 6.07739 9.56584 6.07739 9.77797C6.07739 10.0325 6.4083 10.5416 7.22285 10.5416C8.03739 10.5416 8.49557 10.0325 8.49557 9.77797C8.49557 9.52342 8.13921 9.1416 7.22285 9.1416Z" fill="white"/>
</svg>
