<svg width="21" height="15" viewBox="0 0 21 15" fill="none" xmlns="http://www.w3.org/2000/svg">
<path d="M6.36633 4.54004C4.94859 4.54004 4.80681 7.34015 6.22456 7.34015C8.07303 7.34015 7.64225 4.54004 6.36633 4.54004Z" fill="white"/>
<path d="M13.6129 4.54004C15.0307 4.54004 15.1724 7.34015 13.7547 7.34015C11.9062 7.34015 12.337 4.54004 13.6129 4.54004Z" fill="white"/>
<path d="M7.53945 11.5396C8.09947 11.5863 9.38752 11.4556 10.0595 10.5596M10.0595 10.5596C10.7316 9.66357 11.4596 8.55286 11.7396 8.10951H8.51949L10.0595 10.5596ZM10.0595 10.5596C10.5496 11.3296 11.4036 11.6516 12.5796 11.5396M4.80935 3.20937L3.6893 5.44946C1.96257 6.35949 -0.986874 9.00559 1.0292 12.3097C3.04528 15.6138 7.88947 13.6864 10.0595 12.3097C12.2063 13.8498 16.9198 16.0059 19.1599 12.3097C20.9418 9.36961 18.2732 6.19615 16.3598 5.44946L15.3097 3.20937C15.8698 2.64935 16.7378 1.3473 15.7298 0.619272C14.7217 -0.108756 13.723 0.969285 13.3497 1.59931C12.883 1.31928 11.6136 0.759209 10.2696 0.759209C8.92551 0.759209 7.42278 1.31928 6.83943 1.59931C6.32607 0.945951 5.11736 -0.164758 4.38933 0.619272C3.66131 1.4033 4.366 2.67268 4.80935 3.20937Z" stroke="white" stroke-width="0.7"/>
</svg>
