<svg width="81" height="86" viewBox="0 0 81 86" fill="none" xmlns="http://www.w3.org/2000/svg">
<path d="M17.9646 77.8221C17.1536 70.9362 12.9448 56.6369 2.59724 54.5273C-0.323548 60.5127 -1.33918 73.5512 17.9646 77.8221Z" fill="#D9D9D9"/>
<path d="M17.9646 77.8221C17.1536 70.9362 12.9448 56.6369 2.59724 54.5273C-0.323548 60.5127 -1.33918 73.5512 17.9646 77.8221Z" fill="url(#paint0_linear_304_1525)"/>
<path d="M17.9646 77.8221C17.1536 70.9362 12.9448 56.6369 2.59724 54.5273C-0.323548 60.5127 -1.33918 73.5512 17.9646 77.8221Z" fill="url(#paint1_linear_304_1525)"/>
<path d="M17.9646 77.8221C17.1536 70.9362 12.9448 56.6369 2.59724 54.5273C-0.323548 60.5127 -1.33918 73.5512 17.9646 77.8221Z" fill="url(#paint2_linear_304_1525)"/>
<path d="M18.4287 76.5559C22.8008 71.1746 34.0123 61.3518 43.881 65.111C43.1427 71.73 37.0187 83.2855 18.4287 76.5559Z" fill="#D9D9D9"/>
<path d="M18.4287 76.5559C22.8008 71.1746 34.0123 61.3518 43.881 65.111C43.1427 71.73 37.0187 83.2855 18.4287 76.5559Z" fill="url(#paint3_linear_304_1525)"/>
<path d="M18.4287 76.5559C22.8008 71.1746 34.0123 61.3518 43.881 65.111C43.1427 71.73 37.0187 83.2855 18.4287 76.5559Z" fill="url(#paint4_linear_304_1525)"/>
<path d="M18.4287 76.5559C22.8008 71.1746 34.0123 61.3518 43.881 65.111C43.1427 71.73 37.0187 83.2855 18.4287 76.5559Z" fill="url(#paint5_linear_304_1525)"/>
<path d="M18.3345 75.3464C20.0926 71.3719 22.381 62.3133 17.4697 57.8753C13.985 60.1739 9.27926 66.8862 18.3345 75.3464Z" fill="#D9D9D9"/>
<path d="M18.3345 75.3464C20.0926 71.3719 22.381 62.3133 17.4697 57.8753C13.985 60.1739 9.27926 66.8862 18.3345 75.3464Z" fill="url(#paint6_linear_304_1525)"/>
<path d="M18.3345 75.3464C20.0926 71.3719 22.381 62.3133 17.4697 57.8753C13.985 60.1739 9.27926 66.8862 18.3345 75.3464Z" fill="url(#paint7_linear_304_1525)"/>
<path d="M18.3345 75.3464C20.0926 71.3719 22.381 62.3133 17.4697 57.8753C13.985 60.1739 9.27926 66.8862 18.3345 75.3464Z" fill="url(#paint8_linear_304_1525)"/>
<path d="M34.3953 51.3176C34.3953 51.3176 27.0099 66.1276 19.5528 77.8462H14.3901C14.8204 77.4148 27.7269 61.4546 29.4478 51.3176H34.3953Z" fill="url(#paint9_linear_304_1525)"/>
<path d="M34.3953 51.3176C34.3953 51.3176 27.0099 66.1276 19.5528 77.8462H14.3901C14.8204 77.4148 27.7269 61.4546 29.4478 51.3176H34.3953Z" fill="url(#paint10_linear_304_1525)"/>
<path d="M30.037 57.4062C7.2714 51.5033 7.89212 -1.35635 41.5678 2.36166C67.2312 5.19505 60.6382 57.4062 30.037 57.4062Z" fill="url(#paint11_linear_304_1525)"/>
<path d="M30.037 57.4062C7.2714 51.5033 7.89212 -1.35635 41.5678 2.36166C67.2312 5.19505 60.6382 57.4062 30.037 57.4062Z" fill="url(#paint12_linear_304_1525)"/>
<path d="M45.6465 57.4061C35.8555 51.5242 48.083 6.30353 69.4206 15.6083C79.8601 20.1608 58.8073 57.4061 45.6465 57.4061Z" fill="url(#paint13_linear_304_1525)"/>
<path d="M24.7561 46.0988C34.417 40.266 25.509 -14.7796 8.84146 3.82097C6.50006 6.43391 11.7701 46.0988 24.7561 46.0988Z" fill="url(#paint14_linear_304_1525)"/>
<path d="M54.9563 29.4617C59.0587 20.612 68.7553 24.3018 71.2973 16.8463C81.9573 35.2743 55.8831 65.0853 39.7497 59.284L54.9563 29.4617Z" fill="url(#paint15_linear_304_1525)"/>
<path d="M54.9563 29.4617C59.0587 20.612 68.7553 24.3018 71.2973 16.8463C81.9573 35.2743 55.8831 65.0853 39.7497 59.284L54.9563 29.4617Z" fill="url(#paint16_linear_304_1525)"/>
<path d="M17.7758 20.6143C18.9311 10.9447 8.9667 8.96955 10.6998 1.30469C-7.66897 11.328 3.33471 49.3575 15.0319 53.9269L17.7758 20.6143Z" fill="url(#paint17_linear_304_1525)"/>
<path d="M17.7758 20.6143C18.9311 10.9447 8.9667 8.96955 10.6998 1.30469C-7.66897 11.328 3.33471 49.3575 15.0319 53.9269L17.7758 20.6143Z" fill="url(#paint18_linear_304_1525)"/>
<path d="M26.9933 35.2138C9.11207 11.3842 67.1535 12.4138 47.0733 36.0964L26.9933 35.2138Z" fill="url(#paint19_linear_304_1525)"/>
<path d="M26.9933 35.2138C9.11207 11.3842 67.1535 12.4138 47.0733 36.0964L26.9933 35.2138Z" fill="url(#paint20_linear_304_1525)"/>
<path d="M30.5467 60.3165C16.1004 55.9606 40.3565 18.4332 56.6417 20.5241C72.9268 22.615 73.9888 66.3368 30.5467 60.3165Z" fill="url(#paint21_linear_304_1525)"/>
<path d="M30.5467 60.3165C16.1004 55.9606 40.3565 18.4332 56.6417 20.5241C72.9268 22.615 73.9888 66.3368 30.5467 60.3165Z" fill="url(#paint22_linear_304_1525)"/>
<path d="M30.5467 60.3165C16.1004 55.9606 40.3565 18.4332 56.6417 20.5241C72.9268 22.615 73.9888 66.3368 30.5467 60.3165Z" fill="url(#paint23_linear_304_1525)"/>
<path d="M37.2659 60.8252C51.4928 56.4734 32.1724 14.5127 16.1347 16.6015C0.0970001 18.6904 0.762466 62.7322 37.2659 60.8252Z" fill="url(#paint24_linear_304_1525)"/>
<path d="M37.2659 60.8252C51.4928 56.4734 32.1724 14.5127 16.1347 16.6015C0.0970001 18.6904 0.762466 62.7322 37.2659 60.8252Z" fill="url(#paint25_linear_304_1525)"/>
<path d="M37.2659 60.8252C51.4928 56.4734 32.1724 14.5127 16.1347 16.6015C0.0970001 18.6904 0.762466 62.7322 37.2659 60.8252Z" fill="url(#paint26_linear_304_1525)"/>
<defs>
<linearGradient id="paint0_linear_304_1525" x1="10.4826" y1="56.6137" x2="15.2619" y2="75.2626" gradientUnits="userSpaceOnUse">
<stop stop-color="#FFA345"/>
<stop offset="0.893609" stop-color="#DB4703"/>
</linearGradient>
<linearGradient id="paint1_linear_304_1525" x1="5.82814" y1="46.8843" x2="17.724" y2="67.5462" gradientUnits="userSpaceOnUse">
<stop stop-color="#FFA345"/>
<stop offset="0.539973" stop-color="#F36003"/>
<stop offset="1" stop-color="#9D0501"/>
</linearGradient>
<linearGradient id="paint2_linear_304_1525" x1="5.82814" y1="46.8843" x2="17.724" y2="67.5462" gradientUnits="userSpaceOnUse">
<stop stop-color="#FFA345"/>
<stop offset="0.283654" stop-color="#F36003"/>
<stop offset="0.596154" stop-color="#9D0501"/>
<stop offset="1" stop-color="#0F0E0E"/>
</linearGradient>
<linearGradient id="paint3_linear_304_1525" x1="36.1042" y1="62.6506" x2="22.0818" y2="75.8414" gradientUnits="userSpaceOnUse">
<stop stop-color="#FFA345"/>
<stop offset="0.893609" stop-color="#DB4703"/>
</linearGradient>
<linearGradient id="paint4_linear_304_1525" x1="45.2449" y1="56.926" x2="24.1343" y2="68.0061" gradientUnits="userSpaceOnUse">
<stop stop-color="#FFA345"/>
<stop offset="0.539973" stop-color="#F36003"/>
<stop offset="1" stop-color="#9D0501"/>
</linearGradient>
<linearGradient id="paint5_linear_304_1525" x1="45.2449" y1="56.926" x2="24.1343" y2="68.0061" gradientUnits="userSpaceOnUse">
<stop stop-color="#FFA345"/>
<stop offset="0.283654" stop-color="#F36003"/>
<stop offset="0.596154" stop-color="#9D0501"/>
<stop offset="1" stop-color="#0F0E0E"/>
</linearGradient>
<linearGradient id="paint6_linear_304_1525" x1="21.0597" y1="61.5156" x2="17.6922" y2="73.1034" gradientUnits="userSpaceOnUse">
<stop stop-color="#FFA345"/>
<stop offset="0.893609" stop-color="#DB4703"/>
</linearGradient>
<linearGradient id="paint7_linear_304_1525" x1="21.6504" y1="54.781" x2="21.4815" y2="69.7244" gradientUnits="userSpaceOnUse">
<stop stop-color="#FFA345"/>
<stop offset="0.539973" stop-color="#F36003"/>
<stop offset="1" stop-color="#9D0501"/>
</linearGradient>
<linearGradient id="paint8_linear_304_1525" x1="21.6504" y1="54.781" x2="21.4815" y2="69.7244" gradientUnits="userSpaceOnUse">
<stop stop-color="#FFA345"/>
<stop offset="0.283654" stop-color="#F36003"/>
<stop offset="0.596154" stop-color="#9D0501"/>
<stop offset="1" stop-color="#0F0E0E"/>
</linearGradient>
<linearGradient id="paint9_linear_304_1525" x1="31.814" y1="54.3371" x2="53.457" y2="93.1394" gradientUnits="userSpaceOnUse">
<stop stop-color="#F36003"/>
<stop offset="0.885027" stop-color="#9D0501"/>
<stop offset="1" stop-color="#2B0200"/>
</linearGradient>
<linearGradient id="paint10_linear_304_1525" x1="28.1822" y1="52.1543" x2="33.7771" y2="73.6091" gradientUnits="userSpaceOnUse">
<stop stop-color="#FFA345"/>
<stop offset="0.283654" stop-color="#F36003"/>
<stop offset="0.596154" stop-color="#9D0501"/>
<stop offset="1" stop-color="#0F0E0E"/>
</linearGradient>
<linearGradient id="paint11_linear_304_1525" x1="39.5013" y1="-2.71883" x2="57.6705" y2="47.8498" gradientUnits="userSpaceOnUse">
<stop stop-color="#FFA345"/>
<stop offset="0.539973" stop-color="#F36003"/>
<stop offset="1" stop-color="#9D0501"/>
</linearGradient>
<linearGradient id="paint12_linear_304_1525" x1="23.8333" y1="-17.2321" x2="56.9046" y2="30.9452" gradientUnits="userSpaceOnUse">
<stop stop-color="#FFA345"/>
<stop offset="0.539973" stop-color="#F36003"/>
<stop offset="1" stop-color="#9D0501"/>
</linearGradient>
<linearGradient id="paint13_linear_304_1525" x1="49.7167" y1="-2.50646" x2="77.6927" y2="31.0993" gradientUnits="userSpaceOnUse">
<stop stop-color="#FFA345"/>
<stop offset="0.539973" stop-color="#F36003"/>
<stop offset="1" stop-color="#9D0501"/>
</linearGradient>
<linearGradient id="paint14_linear_304_1525" x1="24.2586" y1="-16.1977" x2="-4.80571" y2="7.88536" gradientUnits="userSpaceOnUse">
<stop stop-color="#FFA345"/>
<stop offset="0.539973" stop-color="#F36003"/>
<stop offset="1" stop-color="#9D0501"/>
</linearGradient>
<linearGradient id="paint15_linear_304_1525" x1="60.5302" y1="25.7987" x2="44.241" y2="27.2202" gradientUnits="userSpaceOnUse">
<stop stop-color="#FFA345"/>
<stop offset="1" stop-color="#F36003"/>
</linearGradient>
<linearGradient id="paint16_linear_304_1525" x1="87.2692" y1="4.96785" x2="49.8476" y2="6.14099" gradientUnits="userSpaceOnUse">
<stop stop-color="#FFA345"/>
<stop offset="0.539973" stop-color="#F36003"/>
<stop offset="1" stop-color="#9D0501"/>
</linearGradient>
<linearGradient id="paint17_linear_304_1525" x1="15.0319" y1="14.5708" x2="28.0273" y2="24.099" gradientUnits="userSpaceOnUse">
<stop stop-color="#FFA345"/>
<stop offset="1" stop-color="#F36003"/>
</linearGradient>
<linearGradient id="paint18_linear_304_1525" x1="4.62847" y1="-17.1851" x2="34.4757" y2="0.792916" gradientUnits="userSpaceOnUse">
<stop stop-color="#FFA345"/>
<stop offset="0.539973" stop-color="#F36003"/>
<stop offset="1" stop-color="#9D0501"/>
</linearGradient>
<linearGradient id="paint19_linear_304_1525" x1="38.426" y1="17.1209" x2="37.3926" y2="36.096" gradientUnits="userSpaceOnUse">
<stop offset="0.151483" stop-color="#FFA345"/>
<stop offset="1" stop-color="#F36003"/>
</linearGradient>
<linearGradient id="paint20_linear_304_1525" x1="29.6276" y1="11.4129" x2="36.9554" y2="32.2799" gradientUnits="userSpaceOnUse">
<stop stop-color="#FFA345"/>
<stop offset="0.539973" stop-color="#F36003"/>
<stop offset="1" stop-color="#9D0501"/>
</linearGradient>
<linearGradient id="paint21_linear_304_1525" x1="46.1232" y1="12.864" x2="61.1115" y2="48.7357" gradientUnits="userSpaceOnUse">
<stop stop-color="#FFA345"/>
<stop offset="0.539973" stop-color="#F36003"/>
</linearGradient>
<linearGradient id="paint22_linear_304_1525" x1="60.1731" y1="30.6362" x2="67.834" y2="48.2505" gradientUnits="userSpaceOnUse">
<stop stop-color="#FFA345"/>
<stop offset="1" stop-color="#F36003"/>
</linearGradient>
<linearGradient id="paint23_linear_304_1525" x1="35.0982" y1="6.22876" x2="56.5611" y2="46.7696" gradientUnits="userSpaceOnUse">
<stop stop-color="#FFA345"/>
<stop offset="0.539973" stop-color="#F36003"/>
<stop offset="1" stop-color="#9D0501"/>
</linearGradient>
<linearGradient id="paint24_linear_304_1525" x1="21.3833" y1="11.0025" x2="6.25845" y2="46.6852" gradientUnits="userSpaceOnUse">
<stop stop-color="#FFA345"/>
<stop offset="0.539973" stop-color="#F36003"/>
</linearGradient>
<linearGradient id="paint25_linear_304_1525" x1="12.1657" y1="27.7091" x2="2.55859" y2="45.4924" gradientUnits="userSpaceOnUse">
<stop stop-color="#FFA345"/>
<stop offset="1" stop-color="#F36003"/>
</linearGradient>
<linearGradient id="paint26_linear_304_1525" x1="34.3063" y1="0.939667" x2="8.1726" y2="40.6806" gradientUnits="userSpaceOnUse">
<stop stop-color="#FFA345"/>
<stop offset="0.539973" stop-color="#F36003"/>
<stop offset="1" stop-color="#9D0501"/>
</linearGradient>
</defs>
</svg>
