<svg width="80" height="80" viewBox="0 0 80 80" fill="none" xmlns="http://www.w3.org/2000/svg">
<circle cx="40" cy="40" r="40" fill="white"/>
<g clip-path="url(#clip0_536_506)">
<path d="M59.0215 39.8975C59.0215 39.711 58.8699 39.5566 58.6834 39.5478C51.9903 39.2943 47.9169 38.4406 45.0671 35.5909C42.2116 32.7353 41.3608 28.6589 41.1073 21.9513C41.1014 21.7648 40.947 21.6133 40.7576 21.6133H39.9767C39.7902 21.6133 39.6358 21.7648 39.6271 21.9513C39.3735 28.656 38.5227 32.7353 35.6672 35.5909C32.8145 38.4435 28.7439 39.2943 22.0509 39.5478C21.8644 39.5537 21.7129 39.7081 21.7129 39.8975V40.6784C21.7129 40.8649 21.8644 41.0193 22.0509 41.028C28.7439 41.2816 32.8175 42.1353 35.6672 44.985C38.5169 47.8347 39.3677 51.8996 39.6241 58.5808C39.63 58.7673 39.7844 58.9189 39.9738 58.9189H40.7576C40.9441 58.9189 41.0985 58.7673 41.1073 58.5808C41.3637 51.8996 42.2145 47.8347 45.0642 44.985C47.9169 42.1324 51.9874 41.2816 58.6805 41.028C58.867 41.0222 59.0186 40.8678 59.0186 40.6784V39.8975H59.0215Z" fill="black"/>
</g>
<defs>
<clipPath id="clip0_536_506">
<rect width="37.6" height="37.6" fill="white" transform="translate(21.5996 21.5977)"/>
</clipPath>
</defs>
</svg>
