<svg width="320" height="320" viewBox="0 0 320 320" fill="none" xmlns="http://www.w3.org/2000/svg">
<path d="M0 20C0 8.95431 8.9543 0 20 0H243H300C311.046 0 320 8.95431 320 20V300C320 311.046 311.046 320 300 320H20C8.95431 320 0 311.046 0 300V20Z" fill="#FB7420"/>
<path d="M184.594 65.4842C368.265 77.2846 244.13 194.148 182.437 254.266C261.638 107.125 228.696 222.034 117.56 206.469C-21.1054 187.049 37.9442 56.0622 184.594 65.4842Z" fill="black"/>
<path d="M129.765 255.315C104.241 206.786 120.826 134.542 205.823 138.803C273.765 142.209 205.15 220.606 129.765 255.315Z" fill="#FB7420" stroke="#FB7420" stroke-width="0.865427"/>
<path d="M208.322 175.63C169.965 216.864 138.387 209.316 117.56 206.469C127.029 209.586 166.505 237.484 182.587 254.265L208.322 175.63Z" fill="black"/>
</svg>
