<svg width="16" height="15" viewBox="0 0 16 15" fill="none" xmlns="http://www.w3.org/2000/svg">
<path d="M5.39245 2.48184C4.34251 5.28167 5.86638 6.56497 6.81424 6.85662C5.32683 6.76909 4.48107 4.99733 4.18943 4.1224C0.864625 2.80998 0.25216 5.47128 0.361529 6.96599C3.16137 10.1158 5.53828 9.26273 6.37677 8.38778C5.41433 9.7002 3.71548 9.84603 2.98635 9.80957C0.886467 12.8719 3.20508 14.0749 4.62687 14.2937C8.47665 12.5438 8.38186 10.2835 7.79856 9.26273C8.76101 10.2252 8.38186 11.924 8.12667 12.7625C10.7515 15.7374 12.3556 13.8562 12.8295 12.5438C12.4795 8.60651 10.0953 7.91385 8.89225 8.05967C10.6421 7.35971 11.991 8.2055 12.5014 8.71588C16.0012 7.14097 14.7617 5.14317 13.7045 4.34114C9.94219 3.37869 8.30895 5.58065 8.0173 6.74725C7.9298 5.17234 9.40264 3.72136 10.0953 3.24742C9.7672 0.185095 6.70488 -1.01796 5.39245 2.48184Z" stroke="white" stroke-width="0.7"/>
</svg>
