<svg width="1240" height="497" viewBox="0 0 1240 497" fill="none" xmlns="http://www.w3.org/2000/svg">
<rect width="1240" height="497" rx="15" fill="#1A1919"/>
<rect x="407.136" y="183.197" width="16.9388" height="16.9388" rx="8.46939" fill="url(#paint0_linear_522_1364)"/>
<rect x="436.497" y="183.197" width="16.9388" height="16.9388" rx="8.46939" fill="url(#paint1_linear_522_1364)"/>
<rect x="465.857" y="183.197" width="16.9388" height="16.9388" rx="8.46939" fill="url(#paint2_linear_522_1364)"/>
<path d="M713.163 164C725.636 164 735.748 174.112 735.748 186.585V205.782C735.748 217.08 735.748 222.729 735.748 222.737C735.765 227.839 735.147 227.221 740.25 227.238C740.257 227.238 743.012 227.238 748.522 227.238H843.027C857.372 227.238 869 238.867 869 253.211V306.286C869 320.63 857.372 332.259 843.027 332.259H396.973C382.628 332.259 371 320.63 371 306.286V253.211C371 238.867 382.628 227.238 396.973 227.238H499.383C504.892 227.238 507.647 227.238 507.654 227.238C512.757 227.221 512.139 227.839 512.156 222.736C512.156 222.729 512.156 217.08 512.156 205.782V186.585C512.156 174.112 522.268 164 534.741 164H713.163Z" fill="url(#paint3_linear_522_1364)"/>
<path d="M714.857 188.844L707.8 195.901M700.742 202.959L707.8 195.901M707.8 195.901L700.742 188.844M707.8 195.901L714.857 202.959" stroke="white" stroke-width="1.69388" stroke-linecap="round"/>
<path d="M467.761 271.505C467.463 271.505 467.178 271.619 466.969 271.82C466.761 272.021 466.645 272.291 466.645 272.571C466.645 272.851 466.761 273.121 466.969 273.322L472.726 278.86L473.13 279.249H457.035C456.736 279.249 456.452 279.363 456.244 279.563C456.035 279.763 455.92 280.034 455.92 280.313C455.92 280.592 456.036 280.862 456.244 281.062C456.452 281.263 456.736 281.377 457.035 281.378H473.13L472.726 281.766L466.969 287.304C466.866 287.404 466.784 287.521 466.729 287.65C466.674 287.779 466.645 287.917 466.645 288.055C466.645 288.194 466.674 288.332 466.729 288.461C466.784 288.589 466.866 288.707 466.969 288.806C467.072 288.906 467.196 288.985 467.332 289.039C467.468 289.093 467.614 289.121 467.761 289.121C467.909 289.121 468.056 289.093 468.192 289.039C468.328 288.984 468.451 288.906 468.554 288.806L476.599 281.064V281.063C476.703 280.964 476.785 280.847 476.84 280.718C476.896 280.59 476.924 280.452 476.924 280.313C476.924 280.174 476.896 280.037 476.84 279.908C476.799 279.811 476.742 279.721 476.673 279.64L476.599 279.562L468.554 271.82C468.345 271.619 468.06 271.505 467.761 271.505Z" fill="white" stroke="url(#paint4_linear_522_1364)" stroke-width="0.451701"/>
<path d="M412.008 271.505C412.306 271.505 412.591 271.619 412.8 271.82C413.008 272.021 413.124 272.291 413.124 272.571C413.124 272.851 413.008 273.121 412.8 273.322L407.043 278.86L406.639 279.249H422.734C423.033 279.249 423.317 279.363 423.525 279.563C423.734 279.763 423.849 280.034 423.849 280.313C423.849 280.592 423.733 280.862 423.525 281.062C423.317 281.263 423.033 281.377 422.734 281.378H406.639L407.043 281.766L412.8 287.304C412.903 287.404 412.985 287.521 413.04 287.65C413.095 287.779 413.124 287.917 413.124 288.055C413.124 288.194 413.095 288.332 413.04 288.461C412.985 288.589 412.903 288.707 412.8 288.806C412.697 288.906 412.573 288.985 412.438 289.039C412.302 289.093 412.155 289.121 412.008 289.121C411.86 289.121 411.713 289.093 411.577 289.039C411.441 288.984 411.318 288.906 411.215 288.806L403.17 281.064V281.063C403.067 280.964 402.984 280.847 402.929 280.718C402.873 280.59 402.845 280.452 402.845 280.313C402.845 280.174 402.873 280.037 402.929 279.908C402.97 279.811 403.027 279.721 403.096 279.64L403.17 279.562L411.215 271.82C411.424 271.619 411.709 271.505 412.008 271.505Z" fill="white" stroke="url(#paint5_linear_522_1364)" stroke-width="0.451701"/>
<path fill-rule="evenodd" clip-rule="evenodd" d="M529.125 273.596C527.767 272.368 526.049 271.612 524.226 271.443C522.404 271.273 520.575 271.699 519.015 272.655C517.454 273.612 516.246 275.049 515.57 276.75C514.895 278.452 514.789 280.326 515.268 282.093C515.747 283.859 516.785 285.423 518.228 286.55C519.671 287.677 521.439 288.306 523.269 288.343C525.099 288.381 526.892 287.824 528.38 286.757C529.867 285.689 530.968 284.169 531.519 282.424C531.593 282.218 531.744 282.049 531.94 281.952C532.136 281.855 532.362 281.837 532.57 281.903C532.779 281.969 532.954 282.113 533.059 282.304C533.164 282.496 533.19 282.721 533.133 282.932C532.472 285.027 531.15 286.852 529.366 288.132C527.581 289.413 525.429 290.081 523.233 290.036C521.037 289.991 518.914 289.236 517.183 287.883C515.452 286.531 514.206 284.654 513.631 282.534C513.057 280.414 513.184 278.164 513.995 276.123C514.806 274.081 516.257 272.357 518.13 271.21C520.002 270.062 522.197 269.551 524.384 269.755C526.571 269.959 528.633 270.866 530.262 272.34L529.125 273.596Z" fill="white"/>
<path d="M527.352 275.557L532.228 270.173C532.287 270.108 532.364 270.061 532.45 270.039C532.536 270.017 532.627 270.02 532.712 270.047C532.798 270.075 532.875 270.126 532.934 270.194C532.994 270.263 533.032 270.347 533.046 270.435L533.947 276.15C533.992 276.441 533.764 276.693 533.47 276.676L527.694 276.345C527.605 276.34 527.518 276.309 527.444 276.257C527.37 276.205 527.311 276.134 527.275 276.051C527.239 275.968 527.228 275.878 527.241 275.79C527.255 275.703 527.293 275.622 527.352 275.557Z" fill="white"/>
<path d="M571.136 276.248L578.476 270.203C579.31 269.516 580.513 269.516 581.347 270.203L588.688 276.248C589.208 276.677 589.51 277.316 589.51 277.991V287.089C589.51 288.336 588.499 289.347 587.252 289.347H572.571C571.324 289.347 570.313 288.336 570.313 287.089V277.991C570.313 277.316 570.615 276.677 571.136 276.248Z" stroke="white" stroke-width="1.69388" stroke-linecap="round"/>
<rect x="622.823" y="249.823" width="223.592" height="59.8503" rx="15.8095" fill="white"/>
<path d="M660.089 272.832C660.887 272.832 661.653 273.114 662.218 273.617C662.783 274.12 663.1 274.802 663.1 275.514V278.196H657.077V275.514C657.077 274.802 657.395 274.12 657.959 273.617C658.524 273.114 659.29 272.832 660.089 272.832ZM666.111 278.399V275.514C666.111 274.091 665.477 272.727 664.347 271.721C663.218 270.715 661.686 270.15 660.089 270.15C658.491 270.15 656.959 270.715 655.83 271.721C654.701 272.727 654.066 274.091 654.066 275.514V278.399C652.44 278.845 651.055 280.001 651.055 281.682V288.119C651.055 290.307 653.407 291.605 655.572 291.605H664.606C666.771 291.605 669.123 290.307 669.123 288.119V281.682C669.123 280.001 667.737 278.845 666.111 278.399Z" fill="url(#paint6_linear_522_1364)"/>
<circle cx="545.469" cy="195.054" r="15.2449" fill="white"/>
<path d="M540.018 191.277C539.105 190.364 539.18 189.583 539.341 188.991C539.362 188.914 539.466 188.903 539.51 188.969C542.78 193.79 549.401 190.267 548.327 185.639C548.312 185.576 548.393 185.528 548.438 185.575L549.284 186.473L549.743 185.529C549.767 185.478 549.842 185.485 549.86 185.538C550.625 187.797 552.327 188.713 554.459 188.792C554.631 188.798 554.771 188.937 554.759 189.108C554.522 192.446 550.431 191.283 550.431 191.283C550.431 191.283 553.105 194.231 554.493 195.427C554.637 195.55 554.647 195.772 554.511 195.903L554.014 196.378C553.912 196.477 553.756 196.492 553.635 196.417L549.726 193.962L553.108 196.631C553.257 196.749 553.266 196.972 553.127 197.102L552.521 197.664C552.394 197.782 552.193 197.77 552.074 197.645C547.194 192.508 541.006 195.112 538.896 197.627C538.766 197.781 538.526 197.791 538.395 197.638L537.914 197.076C537.807 196.952 537.816 196.767 537.933 196.652L540.701 193.962L537.408 196.465C537.278 196.564 537.092 196.544 536.985 196.42L536.501 195.854C536.402 195.739 536.401 195.569 536.499 195.453L540.018 191.277Z" fill="url(#paint7_linear_522_1364)"/>
<path d="M552.864 200.966C552.864 200.966 550.508 205.083 545.41 205.078C540.591 205.073 538.189 201.354 538.189 201.354C538.189 201.354 540.281 198.874 542.915 200.951C541.985 199.804 542.605 198.182 544 198.1C544.831 198.051 545.395 198.456 545.694 199.058C545.971 198.497 546.528 198.044 547.409 198.1C548.71 198.181 549.424 199.804 548.509 200.894C550.973 199.029 552.864 200.966 552.864 200.966Z" fill="url(#paint8_radial_522_1364)"/>
<path d="M574.898 188.201H577.043V196.241L585.219 188.201H587.997L581.199 194.705L588.268 204.327H585.558L579.731 196.173L577.043 198.68V204.327H574.898V188.201ZM599.99 204.281C599.658 204.477 599.199 204.575 598.612 204.575C598.115 204.575 597.716 204.44 597.415 204.169C597.129 203.882 596.986 203.423 596.986 202.791C596.459 203.423 595.842 203.882 595.134 204.169C594.441 204.44 593.688 204.575 592.875 204.575C592.348 204.575 591.844 204.515 591.362 204.394C590.895 204.274 590.489 204.086 590.143 203.83C589.796 203.574 589.518 203.243 589.307 202.836C589.111 202.414 589.013 201.91 589.013 201.323C589.013 200.66 589.126 200.118 589.352 199.697C589.578 199.275 589.872 198.936 590.233 198.68C590.609 198.409 591.031 198.206 591.498 198.071C591.98 197.935 592.469 197.822 592.966 197.732C593.493 197.626 593.99 197.551 594.456 197.506C594.938 197.446 595.36 197.37 595.721 197.28C596.082 197.175 596.369 197.032 596.579 196.851C596.79 196.655 596.896 196.377 596.896 196.015C596.896 195.594 596.813 195.255 596.647 194.999C596.497 194.743 596.293 194.547 596.037 194.412C595.796 194.276 595.518 194.186 595.202 194.141C594.9 194.096 594.599 194.073 594.298 194.073C593.485 194.073 592.808 194.231 592.266 194.547C591.724 194.848 591.43 195.428 591.385 196.286H589.465C589.495 195.564 589.646 194.954 589.917 194.457C590.188 193.96 590.549 193.561 591.001 193.26C591.453 192.944 591.964 192.718 592.537 192.582C593.124 192.447 593.749 192.379 594.411 192.379C594.938 192.379 595.458 192.417 595.97 192.492C596.497 192.567 596.971 192.725 597.392 192.966C597.814 193.192 598.153 193.516 598.409 193.938C598.665 194.359 598.793 194.909 598.793 195.586V201.594C598.793 202.046 598.815 202.377 598.86 202.588C598.921 202.798 599.101 202.904 599.402 202.904C599.568 202.904 599.764 202.866 599.99 202.791V204.281ZM596.873 198.296C596.632 198.477 596.316 198.613 595.924 198.703C595.533 198.778 595.119 198.846 594.682 198.906C594.261 198.951 593.831 199.012 593.395 199.087C592.958 199.147 592.567 199.253 592.22 199.403C591.874 199.554 591.588 199.772 591.362 200.058C591.151 200.329 591.046 200.706 591.046 201.187C591.046 201.504 591.106 201.775 591.227 202C591.362 202.211 591.528 202.384 591.724 202.52C591.934 202.655 592.175 202.753 592.446 202.813C592.717 202.874 593.003 202.904 593.304 202.904C593.937 202.904 594.479 202.821 594.931 202.655C595.382 202.475 595.751 202.256 596.037 202C596.323 201.729 596.534 201.443 596.67 201.142C596.805 200.826 596.873 200.532 596.873 200.261V198.296ZM601.709 192.65H603.515V195.112H603.561C604.027 194.163 604.599 193.463 605.277 193.012C605.955 192.56 606.813 192.349 607.852 192.379V194.412C607.084 194.412 606.429 194.517 605.887 194.728C605.345 194.939 604.908 195.247 604.577 195.654C604.246 196.061 604.005 196.557 603.854 197.145C603.704 197.717 603.628 198.379 603.628 199.132V204.327H601.709V192.65ZM619.641 204.281C619.31 204.477 618.851 204.575 618.264 204.575C617.767 204.575 617.368 204.44 617.067 204.169C616.781 203.882 616.637 203.423 616.637 202.791C616.11 203.423 615.493 203.882 614.786 204.169C614.093 204.44 613.34 204.575 612.527 204.575C612 204.575 611.496 204.515 611.014 204.394C610.547 204.274 610.141 204.086 609.794 203.83C609.448 203.574 609.169 203.243 608.959 202.836C608.763 202.414 608.665 201.91 608.665 201.323C608.665 200.66 608.778 200.118 609.004 199.697C609.23 199.275 609.523 198.936 609.885 198.68C610.261 198.409 610.683 198.206 611.149 198.071C611.631 197.935 612.12 197.822 612.617 197.732C613.144 197.626 613.641 197.551 614.108 197.506C614.59 197.446 615.011 197.37 615.373 197.28C615.734 197.175 616.02 197.032 616.231 196.851C616.442 196.655 616.547 196.377 616.547 196.015C616.547 195.594 616.464 195.255 616.299 194.999C616.148 194.743 615.945 194.547 615.689 194.412C615.448 194.276 615.169 194.186 614.853 194.141C614.552 194.096 614.251 194.073 613.95 194.073C613.137 194.073 612.459 194.231 611.917 194.547C611.375 194.848 611.082 195.428 611.036 196.286H609.117C609.147 195.564 609.297 194.954 609.568 194.457C609.839 193.96 610.201 193.561 610.652 193.26C611.104 192.944 611.616 192.718 612.188 192.582C612.775 192.447 613.4 192.379 614.063 192.379C614.59 192.379 615.109 192.417 615.621 192.492C616.148 192.567 616.622 192.725 617.044 192.966C617.466 193.192 617.804 193.516 618.06 193.938C618.316 194.359 618.444 194.909 618.444 195.586V201.594C618.444 202.046 618.467 202.377 618.512 202.588C618.572 202.798 618.753 202.904 619.054 202.904C619.22 202.904 619.415 202.866 619.641 202.791V204.281ZM616.525 198.296C616.284 198.477 615.967 198.613 615.576 198.703C615.185 198.778 614.77 198.846 614.334 198.906C613.912 198.951 613.483 199.012 613.046 199.087C612.61 199.147 612.218 199.253 611.872 199.403C611.526 199.554 611.24 199.772 611.014 200.058C610.803 200.329 610.698 200.706 610.698 201.187C610.698 201.504 610.758 201.775 610.878 202C611.014 202.211 611.179 202.384 611.375 202.52C611.586 202.655 611.827 202.753 612.098 202.813C612.369 202.874 612.655 202.904 612.956 202.904C613.588 202.904 614.131 202.821 614.582 202.655C615.034 202.475 615.403 202.256 615.689 202C615.975 201.729 616.186 201.443 616.321 201.142C616.457 200.826 616.525 200.532 616.525 200.261V198.296ZM621.428 192.65H623.235V194.367H623.28C624.153 193.042 625.41 192.379 627.052 192.379C627.774 192.379 628.429 192.53 629.017 192.831C629.604 193.132 630.018 193.644 630.259 194.367C630.65 193.734 631.162 193.245 631.795 192.899C632.442 192.552 633.15 192.379 633.917 192.379C634.505 192.379 635.032 192.447 635.498 192.582C635.98 192.703 636.387 192.899 636.718 193.17C637.064 193.441 637.328 193.795 637.509 194.231C637.704 194.653 637.802 195.165 637.802 195.767V204.327H635.882V196.67C635.882 196.309 635.852 195.97 635.792 195.654C635.732 195.338 635.619 195.067 635.453 194.841C635.288 194.6 635.054 194.412 634.753 194.276C634.467 194.141 634.091 194.073 633.624 194.073C632.675 194.073 631.93 194.344 631.388 194.886C630.846 195.428 630.575 196.151 630.575 197.054V204.327H628.655V196.67C628.655 196.294 628.618 195.948 628.542 195.631C628.482 195.315 628.369 195.044 628.203 194.818C628.038 194.577 627.812 194.397 627.526 194.276C627.255 194.141 626.901 194.073 626.464 194.073C625.907 194.073 625.426 194.186 625.019 194.412C624.628 194.638 624.304 194.909 624.048 195.225C623.807 195.541 623.626 195.872 623.506 196.219C623.4 196.55 623.348 196.828 623.348 197.054V204.327H621.428V192.65ZM640.75 188.201H642.67V194.231H642.715C643.031 193.584 643.528 193.117 644.206 192.831C644.883 192.53 645.629 192.379 646.442 192.379C647.345 192.379 648.128 192.545 648.791 192.876C649.468 193.207 650.025 193.659 650.462 194.231C650.914 194.788 651.252 195.436 651.478 196.173C651.704 196.911 651.817 197.694 651.817 198.522C651.817 199.35 651.704 200.133 651.478 200.871C651.267 201.609 650.936 202.256 650.484 202.813C650.048 203.356 649.491 203.785 648.813 204.101C648.151 204.417 647.375 204.575 646.487 204.575C646.201 204.575 645.877 204.545 645.516 204.485C645.169 204.425 644.823 204.327 644.477 204.191C644.131 204.056 643.799 203.875 643.483 203.649C643.182 203.408 642.926 203.115 642.715 202.768H642.67V204.327H640.75V188.201ZM649.784 198.387C649.784 197.845 649.709 197.318 649.559 196.806C649.423 196.279 649.205 195.812 648.904 195.406C648.617 194.999 648.241 194.675 647.774 194.434C647.323 194.194 646.788 194.073 646.171 194.073C645.523 194.073 644.974 194.201 644.522 194.457C644.07 194.713 643.701 195.052 643.415 195.473C643.129 195.88 642.919 196.347 642.783 196.874C642.663 197.401 642.602 197.935 642.602 198.477C642.602 199.049 642.67 199.606 642.806 200.148C642.941 200.675 643.152 201.142 643.438 201.549C643.739 201.955 644.123 202.286 644.59 202.542C645.057 202.783 645.621 202.904 646.284 202.904C646.946 202.904 647.496 202.776 647.932 202.52C648.384 202.264 648.745 201.925 649.016 201.504C649.287 201.082 649.483 200.6 649.604 200.058C649.724 199.516 649.784 198.959 649.784 198.387ZM655.471 198.5C655.471 199.207 655.561 199.84 655.742 200.397C655.937 200.939 656.201 201.398 656.532 201.775C656.863 202.136 657.247 202.414 657.684 202.61C658.136 202.806 658.61 202.904 659.107 202.904C659.604 202.904 660.07 202.806 660.507 202.61C660.959 202.414 661.35 202.136 661.682 201.775C662.013 201.398 662.269 200.939 662.449 200.397C662.645 199.84 662.743 199.207 662.743 198.5C662.743 197.792 662.645 197.167 662.449 196.625C662.269 196.068 662.013 195.601 661.682 195.225C661.35 194.848 660.959 194.562 660.507 194.367C660.07 194.171 659.604 194.073 659.107 194.073C658.61 194.073 658.136 194.171 657.684 194.367C657.247 194.562 656.863 194.848 656.532 195.225C656.201 195.601 655.937 196.068 655.742 196.625C655.561 197.167 655.471 197.792 655.471 198.5ZM653.438 198.5C653.438 197.641 653.558 196.843 653.799 196.106C654.04 195.353 654.402 194.705 654.883 194.163C655.365 193.606 655.96 193.17 656.668 192.853C657.375 192.537 658.188 192.379 659.107 192.379C660.04 192.379 660.853 192.537 661.546 192.853C662.254 193.17 662.848 193.606 663.33 194.163C663.812 194.705 664.173 195.353 664.414 196.106C664.655 196.843 664.776 197.641 664.776 198.5C664.776 199.358 664.655 200.156 664.414 200.894C664.173 201.632 663.812 202.279 663.33 202.836C662.848 203.378 662.254 203.807 661.546 204.123C660.853 204.425 660.04 204.575 659.107 204.575C658.188 204.575 657.375 204.425 656.668 204.123C655.96 203.807 655.365 203.378 654.883 202.836C654.402 202.279 654.04 201.632 653.799 200.894C653.558 200.156 653.438 199.358 653.438 198.5ZM667.152 188.201H669.072V204.327H667.152V188.201Z" fill="white"/>
<path d="M697.783 274.024H699.703V283.577L705.033 278.473H707.607L702.978 282.719L707.946 290.15H705.507L701.51 284.052L699.703 285.723V290.15H697.783V274.024ZM719.726 290.104C719.394 290.3 718.935 290.398 718.348 290.398C717.851 290.398 717.452 290.263 717.151 289.992C716.865 289.705 716.722 289.246 716.722 288.614C716.195 289.246 715.577 289.705 714.87 289.992C714.177 290.263 713.424 290.398 712.611 290.398C712.084 290.398 711.58 290.338 711.098 290.217C710.631 290.097 710.225 289.909 709.878 289.653C709.532 289.397 709.254 289.066 709.043 288.659C708.847 288.237 708.749 287.733 708.749 287.146C708.749 286.483 708.862 285.941 709.088 285.52C709.314 285.098 709.607 284.759 709.969 284.503C710.345 284.232 710.767 284.029 711.234 283.894C711.715 283.758 712.205 283.645 712.702 283.555C713.229 283.449 713.725 283.374 714.192 283.329C714.674 283.269 715.096 283.193 715.457 283.103C715.818 282.998 716.104 282.855 716.315 282.674C716.526 282.478 716.631 282.2 716.631 281.838C716.631 281.417 716.549 281.078 716.383 280.822C716.232 280.566 716.029 280.37 715.773 280.235C715.532 280.099 715.254 280.009 714.938 279.964C714.636 279.919 714.335 279.896 714.034 279.896C713.221 279.896 712.544 280.054 712.001 280.37C711.459 280.671 711.166 281.251 711.121 282.109H709.201C709.231 281.387 709.382 280.777 709.653 280.28C709.924 279.783 710.285 279.384 710.737 279.083C711.188 278.767 711.7 278.541 712.273 278.405C712.86 278.27 713.485 278.202 714.147 278.202C714.674 278.202 715.194 278.24 715.705 278.315C716.232 278.39 716.707 278.548 717.128 278.789C717.55 279.015 717.889 279.339 718.145 279.761C718.401 280.182 718.529 280.732 718.529 281.409V287.417C718.529 287.869 718.551 288.2 718.596 288.411C718.657 288.621 718.837 288.727 719.138 288.727C719.304 288.727 719.5 288.689 719.726 288.614V290.104ZM716.609 284.119C716.368 284.3 716.052 284.436 715.66 284.526C715.269 284.601 714.855 284.669 714.418 284.729C713.997 284.774 713.567 284.835 713.131 284.91C712.694 284.97 712.303 285.076 711.956 285.226C711.61 285.377 711.324 285.595 711.098 285.881C710.887 286.152 710.782 286.529 710.782 287.01C710.782 287.327 710.842 287.598 710.963 287.823C711.098 288.034 711.264 288.207 711.459 288.343C711.67 288.478 711.911 288.576 712.182 288.636C712.453 288.697 712.739 288.727 713.04 288.727C713.673 288.727 714.215 288.644 714.667 288.478C715.118 288.298 715.487 288.079 715.773 287.823C716.059 287.552 716.27 287.266 716.406 286.965C716.541 286.649 716.609 286.355 716.609 286.084V284.119ZM721.445 278.473H723.251V280.935H723.296C723.763 279.986 724.335 279.286 725.013 278.835C725.69 278.383 726.549 278.172 727.588 278.202V280.235C726.82 280.235 726.165 280.34 725.623 280.551C725.081 280.762 724.644 281.07 724.313 281.477C723.982 281.884 723.741 282.38 723.59 282.968C723.44 283.54 723.364 284.202 723.364 284.955V290.15H721.445V278.473ZM739.377 290.104C739.046 290.3 738.587 290.398 738 290.398C737.503 290.398 737.104 290.263 736.803 289.992C736.516 289.705 736.373 289.246 736.373 288.614C735.846 289.246 735.229 289.705 734.521 289.992C733.829 290.263 733.076 290.398 732.263 290.398C731.736 290.398 731.232 290.338 730.75 290.217C730.283 290.097 729.876 289.909 729.53 289.653C729.184 289.397 728.905 289.066 728.694 288.659C728.499 288.237 728.401 287.733 728.401 287.146C728.401 286.483 728.514 285.941 728.74 285.52C728.965 285.098 729.259 284.759 729.62 284.503C729.997 284.232 730.418 284.029 730.885 283.894C731.367 283.758 731.856 283.645 732.353 283.555C732.88 283.449 733.377 283.374 733.844 283.329C734.326 283.269 734.747 283.193 735.109 283.103C735.47 282.998 735.756 282.855 735.967 282.674C736.178 282.478 736.283 282.2 736.283 281.838C736.283 281.417 736.2 281.078 736.035 280.822C735.884 280.566 735.681 280.37 735.425 280.235C735.184 280.099 734.905 280.009 734.589 279.964C734.288 279.919 733.987 279.896 733.686 279.896C732.873 279.896 732.195 280.054 731.653 280.37C731.111 280.671 730.817 281.251 730.772 282.109H728.853C728.883 281.387 729.033 280.777 729.304 280.28C729.575 279.783 729.937 279.384 730.388 279.083C730.84 278.767 731.352 278.541 731.924 278.405C732.511 278.27 733.136 278.202 733.799 278.202C734.326 278.202 734.845 278.24 735.357 278.315C735.884 278.39 736.358 278.548 736.78 278.789C737.202 279.015 737.54 279.339 737.796 279.761C738.052 280.182 738.18 280.732 738.18 281.409V287.417C738.18 287.869 738.203 288.2 738.248 288.411C738.308 288.621 738.489 288.727 738.79 288.727C738.956 288.727 739.151 288.689 739.377 288.614V290.104ZM736.26 284.119C736.02 284.3 735.703 284.436 735.312 284.526C734.92 284.601 734.506 284.669 734.07 284.729C733.648 284.774 733.219 284.835 732.782 284.91C732.346 284.97 731.954 285.076 731.608 285.226C731.262 285.377 730.976 285.595 730.75 285.881C730.539 286.152 730.434 286.529 730.434 287.01C730.434 287.327 730.494 287.598 730.614 287.823C730.75 288.034 730.915 288.207 731.111 288.343C731.322 288.478 731.563 288.576 731.834 288.636C732.105 288.697 732.391 288.727 732.692 288.727C733.324 288.727 733.866 288.644 734.318 288.478C734.77 288.298 735.139 288.079 735.425 287.823C735.711 287.552 735.922 287.266 736.057 286.965C736.193 286.649 736.26 286.355 736.26 286.084V284.119ZM741.164 278.473H742.971V280.19H743.016C743.889 278.865 745.146 278.202 746.788 278.202C747.51 278.202 748.165 278.353 748.752 278.654C749.34 278.955 749.754 279.467 749.995 280.19C750.386 279.557 750.898 279.068 751.53 278.722C752.178 278.375 752.886 278.202 753.653 278.202C754.241 278.202 754.768 278.27 755.234 278.405C755.716 278.526 756.123 278.722 756.454 278.993C756.8 279.264 757.064 279.618 757.244 280.054C757.44 280.476 757.538 280.988 757.538 281.59V290.15H755.618V282.493C755.618 282.132 755.588 281.793 755.528 281.477C755.468 281.161 755.355 280.89 755.189 280.664C755.024 280.423 754.79 280.235 754.489 280.099C754.203 279.964 753.827 279.896 753.36 279.896C752.411 279.896 751.666 280.167 751.124 280.709C750.582 281.251 750.311 281.974 750.311 282.877V290.15H748.391V282.493C748.391 282.117 748.353 281.771 748.278 281.454C748.218 281.138 748.105 280.867 747.939 280.641C747.774 280.4 747.548 280.22 747.262 280.099C746.991 279.964 746.637 279.896 746.2 279.896C745.643 279.896 745.161 280.009 744.755 280.235C744.363 280.461 744.04 280.732 743.784 281.048C743.543 281.364 743.362 281.695 743.242 282.042C743.136 282.373 743.084 282.651 743.084 282.877V290.15H741.164V278.473ZM760.486 274.024H762.406V280.054H762.451C762.767 279.407 763.264 278.94 763.942 278.654C764.619 278.353 765.365 278.202 766.178 278.202C767.081 278.202 767.864 278.368 768.527 278.699C769.204 279.03 769.761 279.482 770.198 280.054C770.65 280.611 770.988 281.259 771.214 281.996C771.44 282.734 771.553 283.517 771.553 284.345C771.553 285.173 771.44 285.956 771.214 286.694C771.003 287.432 770.672 288.079 770.22 288.636C769.784 289.179 769.227 289.608 768.549 289.924C767.887 290.24 767.111 290.398 766.223 290.398C765.937 290.398 765.613 290.368 765.252 290.308C764.905 290.248 764.559 290.15 764.213 290.014C763.866 289.879 763.535 289.698 763.219 289.472C762.918 289.231 762.662 288.938 762.451 288.591H762.406V290.15H760.486V274.024ZM769.52 284.21C769.52 283.668 769.445 283.141 769.294 282.629C769.159 282.102 768.941 281.635 768.639 281.229C768.353 280.822 767.977 280.498 767.51 280.257C767.059 280.017 766.524 279.896 765.907 279.896C765.259 279.896 764.71 280.024 764.258 280.28C763.806 280.536 763.437 280.875 763.151 281.296C762.865 281.703 762.654 282.17 762.519 282.697C762.398 283.224 762.338 283.758 762.338 284.3C762.338 284.872 762.406 285.429 762.542 285.971C762.677 286.498 762.888 286.965 763.174 287.372C763.475 287.778 763.859 288.109 764.326 288.365C764.792 288.606 765.357 288.727 766.02 288.727C766.682 288.727 767.232 288.599 767.668 288.343C768.12 288.087 768.481 287.748 768.752 287.327C769.023 286.905 769.219 286.423 769.34 285.881C769.46 285.339 769.52 284.782 769.52 284.21ZM775.207 284.323C775.207 285.03 775.297 285.663 775.478 286.22C775.673 286.762 775.937 287.221 776.268 287.598C776.599 287.959 776.983 288.237 777.42 288.433C777.872 288.629 778.346 288.727 778.843 288.727C779.34 288.727 779.806 288.629 780.243 288.433C780.695 288.237 781.086 287.959 781.417 287.598C781.749 287.221 782.005 286.762 782.185 286.22C782.381 285.663 782.479 285.03 782.479 284.323C782.479 283.615 782.381 282.99 782.185 282.448C782.005 281.891 781.749 281.424 781.417 281.048C781.086 280.671 780.695 280.385 780.243 280.19C779.806 279.994 779.34 279.896 778.843 279.896C778.346 279.896 777.872 279.994 777.42 280.19C776.983 280.385 776.599 280.671 776.268 281.048C775.937 281.424 775.673 281.891 775.478 282.448C775.297 282.99 775.207 283.615 775.207 284.323ZM773.174 284.323C773.174 283.464 773.294 282.666 773.535 281.929C773.776 281.176 774.138 280.528 774.619 279.986C775.101 279.429 775.696 278.993 776.404 278.676C777.111 278.36 777.924 278.202 778.843 278.202C779.776 278.202 780.589 278.36 781.282 278.676C781.99 278.993 782.584 279.429 783.066 279.986C783.548 280.528 783.909 281.176 784.15 281.929C784.391 282.666 784.512 283.464 784.512 284.323C784.512 285.181 784.391 285.979 784.15 286.717C783.909 287.455 783.548 288.102 783.066 288.659C782.584 289.201 781.99 289.63 781.282 289.946C780.589 290.248 779.776 290.398 778.843 290.398C777.924 290.398 777.111 290.248 776.404 289.946C775.696 289.63 775.101 289.201 774.619 288.659C774.138 288.102 773.776 287.455 773.535 286.717C773.294 285.979 773.174 285.181 773.174 284.323ZM786.888 274.024H788.808V290.15H786.888V274.024ZM792.211 287.643H794.718V290.15H792.211V287.643ZM798 278.473H799.807V280.935H799.852C800.319 279.986 800.891 279.286 801.568 278.835C802.246 278.383 803.104 278.172 804.143 278.202V280.235C803.375 280.235 802.72 280.34 802.178 280.551C801.636 280.762 801.199 281.07 800.868 281.477C800.537 281.884 800.296 282.38 800.145 282.968C799.995 283.54 799.92 284.202 799.92 284.955V290.15H798V278.473ZM815.255 290.15H813.448V288.298H813.403C812.996 289.02 812.477 289.555 811.845 289.901C811.212 290.232 810.467 290.398 809.609 290.398C808.841 290.398 808.201 290.3 807.689 290.104C807.177 289.894 806.763 289.6 806.447 289.224C806.131 288.847 805.905 288.403 805.769 287.891C805.649 287.364 805.589 286.784 805.589 286.152V278.473H807.508V286.378C807.508 287.101 807.719 287.673 808.141 288.094C808.562 288.516 809.142 288.727 809.88 288.727C810.467 288.727 810.971 288.636 811.393 288.456C811.83 288.275 812.191 288.019 812.477 287.688C812.763 287.357 812.974 286.973 813.109 286.536C813.26 286.084 813.335 285.595 813.335 285.068V278.473H815.255V290.15Z" fill="url(#paint9_linear_522_1364)"/>
<defs>
<linearGradient id="paint0_linear_522_1364" x1="424.075" y1="200.136" x2="404.473" y2="196.086" gradientUnits="userSpaceOnUse">
<stop stop-color="#F36003"/>
<stop offset="1" stop-color="#9D0501"/>
</linearGradient>
<linearGradient id="paint1_linear_522_1364" x1="453.435" y1="200.136" x2="433.834" y2="196.086" gradientUnits="userSpaceOnUse">
<stop stop-color="#F36003"/>
<stop offset="1" stop-color="#9D0501"/>
</linearGradient>
<linearGradient id="paint2_linear_522_1364" x1="482.796" y1="200.136" x2="463.194" y2="196.086" gradientUnits="userSpaceOnUse">
<stop stop-color="#F36003"/>
<stop offset="1" stop-color="#9D0501"/>
</linearGradient>
<linearGradient id="paint3_linear_522_1364" x1="869" y1="332.259" x2="431.653" y2="64.815" gradientUnits="userSpaceOnUse">
<stop stop-color="#F36003"/>
<stop offset="1" stop-color="#9D0501"/>
</linearGradient>
<linearGradient id="paint4_linear_522_1364" x1="455.694" y1="289.347" x2="480.113" y2="283.356" gradientUnits="userSpaceOnUse">
<stop stop-color="#F36003"/>
<stop offset="1" stop-color="#9D0501"/>
</linearGradient>
<linearGradient id="paint5_linear_522_1364" x1="424.075" y1="289.347" x2="399.656" y2="283.356" gradientUnits="userSpaceOnUse">
<stop stop-color="#F36003"/>
<stop offset="1" stop-color="#9D0501"/>
</linearGradient>
<linearGradient id="paint6_linear_522_1364" x1="669.123" y1="291.605" x2="647.962" y2="287.924" gradientUnits="userSpaceOnUse">
<stop stop-color="#F36003"/>
<stop offset="1" stop-color="#9D0501"/>
</linearGradient>
<linearGradient id="paint7_linear_522_1364" x1="554.76" y1="197.748" x2="534.568" y2="191.506" gradientUnits="userSpaceOnUse">
<stop stop-color="#F36003"/>
<stop offset="1" stop-color="#9D0501"/>
</linearGradient>
<radialGradient id="paint8_radial_522_1364" cx="0" cy="0" r="1" gradientUnits="userSpaceOnUse" gradientTransform="translate(545.565 205.078) rotate(-90) scale(7.2831 13.1561)">
<stop stop-color="#9D0501"/>
<stop offset="0.5" stop-color="#DB4703"/>
<stop offset="1" stop-color="#EF8522"/>
</radialGradient>
<linearGradient id="paint9_linear_522_1364" x1="817.055" y1="289.347" x2="762.879" y2="218.895" gradientUnits="userSpaceOnUse">
<stop stop-color="#F36003"/>
<stop offset="1" stop-color="#9D0501"/>
</linearGradient>
</defs>
</svg>
