<svg width="40" height="40" viewBox="0 0 40 40" fill="none" xmlns="http://www.w3.org/2000/svg">
<rect width="40" height="40" rx="20" fill="white"/>
<path d="M11.6837 18.5727L22.6756 9.4731C23.9709 8.39921 26 9.27198 26 10.9018L26 29.101C26.0003 29.4658 25.8895 29.8229 25.6809 30.1296C25.4723 30.4363 25.1746 30.6796 24.8236 30.8304C24.4726 30.9811 24.0831 31.0329 23.7018 30.9796C23.3205 30.9263 22.9635 30.7701 22.6736 30.5297L11.6857 21.4301C11.4703 21.252 11.2977 21.0324 11.1795 20.786C11.0612 20.5396 11 20.2721 11 20.0014C11 19.7308 11.0612 19.4633 11.1795 19.2168C11.2977 18.9704 11.4703 18.7508 11.6857 18.5727H11.6837Z" fill="black"/>
</svg>
