<svg width="253" height="179" viewBox="0 0 253 179" fill="none" xmlns="http://www.w3.org/2000/svg">
<rect x="0.456921" y="0.456921" width="252.086" height="178.086" rx="4.11229" stroke="white" stroke-width="0.913842" stroke-dasharray="9.14 4.57"/>
<rect x="18.1875" y="18.2764" width="160.032" height="142.085" rx="7.47814" fill="#7A7474"/>
<rect x="185.698" y="76.6064" width="48.6079" height="83.7551" rx="7.47814" fill="#444040"/>
<path d="M31.5351 97.1631L45.0795 67.2984H27.467V63.661H49.6262V66.2455L36.0339 97.1631H31.5351ZM52.1527 97.1631V94.4829L60.6239 85.9638C63.9422 82.6136 66.08 80.3323 67.0372 79.1198C69.0154 76.5992 70.0045 74.4136 70.0045 72.563C70.0045 70.8081 69.3983 69.3883 68.1858 68.3035C66.9734 67.1867 65.378 66.6284 63.3998 66.6284C61.5811 66.6284 60.0177 67.107 58.7095 68.0642C57.4333 68.9894 56.6356 70.2657 56.3165 71.893L52.9663 70.7443C53.5087 68.3832 54.7212 66.5326 56.6037 65.1925C58.5181 63.8525 60.8313 63.1824 63.5434 63.1824C66.6064 63.1824 69.1111 64.012 71.0574 65.6712C73.0356 67.3303 74.0247 69.484 74.0247 72.1323C74.0247 73.3447 73.7854 74.5731 73.3068 75.8175C72.8602 77.0299 72.1423 78.2584 71.1531 79.5027C70.1959 80.7471 69.3504 81.7681 68.6166 82.5658C67.9146 83.3634 66.9415 84.3844 65.6971 85.6288C65.378 85.9479 65.1387 86.1872 64.9792 86.3467L57.7045 93.6693H74.3119V97.1631H52.1527Z" fill="#FFF8F4"/>
<path d="M27.3563 120.006V112.677H30.1726C30.9334 112.677 31.5371 112.89 31.9838 113.316C32.4305 113.742 32.6538 114.314 32.6538 115.033C32.6538 115.752 32.4305 116.324 31.9838 116.75C31.5371 117.169 30.9334 117.378 30.1726 117.378H28.2148V120.006H27.3563ZM28.2148 116.582H30.1516C30.6681 116.582 31.066 116.446 31.3451 116.174C31.6243 115.902 31.7639 115.521 31.7639 115.033C31.7639 114.537 31.6243 114.153 31.3451 113.881C31.066 113.609 30.6681 113.473 30.1516 113.473H28.2148V116.582ZM37.6943 119.388C37.1987 119.87 36.5775 120.111 35.8307 120.111C35.0839 120.111 34.4627 119.873 33.9672 119.399C33.4716 118.917 33.2238 118.292 33.2238 117.525C33.2238 116.736 33.4681 116.101 33.9567 115.619C34.4522 115.131 35.0769 114.886 35.8307 114.886C36.5775 114.886 37.1987 115.131 37.6943 115.619C38.1898 116.101 38.4376 116.736 38.4376 117.525C38.4376 118.285 38.1898 118.907 37.6943 119.388ZM35.8307 119.357C36.3263 119.357 36.7415 119.189 37.0766 118.854C37.4116 118.512 37.5791 118.066 37.5791 117.514C37.5791 116.949 37.4116 116.499 37.0766 116.164C36.7485 115.822 36.3332 115.651 35.8307 115.651C35.3282 115.651 34.9094 115.822 34.5744 116.164C34.2463 116.499 34.0823 116.949 34.0823 117.514C34.0823 118.066 34.2463 118.512 34.5744 118.854C34.9094 119.189 35.3282 119.357 35.8307 119.357ZM41.9023 120.111C41.1764 120.111 40.5727 119.87 40.0911 119.388C39.6095 118.907 39.3687 118.282 39.3687 117.514C39.3687 116.746 39.606 116.118 40.0806 115.63C40.5622 115.134 41.1694 114.886 41.9023 114.886C42.4467 114.886 42.9248 115.019 43.3366 115.284C43.7484 115.542 44.0171 115.898 44.1428 116.352L43.3994 116.614C43.3296 116.321 43.1586 116.087 42.8864 115.912C42.6142 115.738 42.2966 115.651 41.9337 115.651C41.4451 115.651 41.0368 115.825 40.7088 116.174C40.3877 116.516 40.2272 116.959 40.2272 117.504C40.2272 118.055 40.3877 118.502 40.7088 118.844C41.0368 119.186 41.4486 119.357 41.9442 119.357C42.3001 119.357 42.6142 119.27 42.8864 119.095C43.1586 118.914 43.3296 118.676 43.3994 118.383L44.1428 118.634C44.0171 119.095 43.7484 119.458 43.3366 119.723C42.9248 119.981 42.4467 120.111 41.9023 120.111ZM47.5153 120.111C46.7894 120.111 46.1857 119.87 45.7041 119.388C45.2225 118.907 44.9817 118.282 44.9817 117.514C44.9817 116.746 45.219 116.118 45.6936 115.63C46.1752 115.134 46.7824 114.886 47.5153 114.886C48.0597 114.886 48.5378 115.019 48.9496 115.284C49.3614 115.542 49.6301 115.898 49.7557 116.352L49.0124 116.614C48.9426 116.321 48.7716 116.087 48.4994 115.912C48.2272 115.738 47.9096 115.651 47.5467 115.651C47.0581 115.651 46.6498 115.825 46.3218 116.174C46.0007 116.516 45.8402 116.959 45.8402 117.504C45.8402 118.055 46.0007 118.502 46.3218 118.844C46.6498 119.186 47.0616 119.357 47.5572 119.357C47.9131 119.357 48.2272 119.27 48.4994 119.095C48.7716 118.914 48.9426 118.676 49.0124 118.383L49.7557 118.634C49.6301 119.095 49.3614 119.458 48.9496 119.723C48.5378 119.981 48.0597 120.111 47.5153 120.111ZM50.9402 120.006V114.991H51.7777V118.613L54.6882 114.991H55.4001V120.006H54.5626V116.373L51.6521 120.006H50.9402ZM56.5521 120.006L57.777 118.205C57.4071 118.107 57.1139 117.922 56.8976 117.65C56.6812 117.371 56.573 117.036 56.573 116.645C56.573 116.122 56.7336 115.717 57.0546 115.431C57.3827 115.138 57.8224 114.991 58.3738 114.991H60.8341V120.006H60.0279V118.299H58.6146L57.4629 120.006H56.5521ZM58.4052 117.546H60.0279V115.755H58.4052C58.0981 115.755 57.8503 115.836 57.6618 115.996C57.4734 116.15 57.3792 116.366 57.3792 116.645C57.3792 116.924 57.4734 117.144 57.6618 117.305C57.8503 117.465 58.0981 117.546 58.4052 117.546ZM62.4626 120.006V114.991H63.3002V117.127H66.0432V114.991H66.8807V120.006H66.0432V117.891H63.3002V120.006H62.4626ZM70.2793 121.576V119.263H70.698C70.8935 119.263 71.0645 119.21 71.211 119.105C71.3576 119.001 71.4414 118.837 71.4623 118.613L71.7659 114.991H75.493V119.263H76.1526V121.576H75.315V120.006H71.1168V121.576H70.2793ZM72.08 119.263H74.6555V115.755H72.5302L72.2999 118.645C72.2719 118.938 72.1987 119.144 72.08 119.263ZM79.1377 120.111C78.4118 120.111 77.8116 119.873 77.3369 119.399C76.8623 118.917 76.625 118.285 76.625 117.504C76.625 116.722 76.8588 116.09 77.3265 115.609C77.8011 115.127 78.3978 114.886 79.1167 114.886C79.8287 114.886 80.408 115.117 80.8547 115.577C81.3083 116.038 81.5352 116.649 81.5352 117.409C81.5352 117.493 81.5282 117.584 81.5142 117.682H77.4626C77.4905 118.212 77.658 118.634 77.9651 118.948C78.2722 119.263 78.6631 119.42 79.1377 119.42C79.5006 119.42 79.8147 119.332 80.0799 119.158C80.3452 118.976 80.5127 118.732 80.5825 118.425L81.3258 118.666C81.2002 119.119 80.9349 119.475 80.5301 119.734C80.1323 119.985 79.6681 120.111 79.1377 120.111ZM77.5045 117.022H80.7081C80.6523 116.596 80.4813 116.251 80.1951 115.986C79.9089 115.72 79.553 115.588 79.1272 115.588C78.7084 115.588 78.3525 115.717 78.0593 115.975C77.7662 116.233 77.5812 116.582 77.5045 117.022ZM85.4781 114.886C86.1831 114.886 86.7694 115.131 87.237 115.619C87.7046 116.108 87.9384 116.736 87.9384 117.504C87.9384 118.271 87.7046 118.9 87.237 119.388C86.7694 119.87 86.1866 120.111 85.4886 120.111C84.658 120.111 84.0438 119.789 83.646 119.147V122.1H82.8084V114.991H83.646V115.839C84.0438 115.204 84.6545 114.886 85.4781 114.886ZM84.1171 118.854C84.4382 119.196 84.8465 119.367 85.342 119.367C85.8376 119.367 86.2494 119.196 86.5774 118.854C86.9124 118.512 87.0799 118.062 87.0799 117.504C87.0799 116.945 86.9124 116.495 86.5774 116.153C86.2494 115.804 85.8376 115.63 85.342 115.63C84.8465 115.63 84.4382 115.804 84.1171 116.153C83.803 116.502 83.646 116.952 83.646 117.504C83.646 118.055 83.803 118.505 84.1171 118.854ZM88.5698 120.006L90.381 117.389L88.7582 114.991H89.6691L91.0301 117.043H92.098V114.991H92.9355V117.043H93.9929L95.354 114.991H96.2648L94.6525 117.389L96.4532 120.006H95.4901L93.9929 117.807H92.9355V120.006H92.098V117.807H91.0301L89.533 120.006H88.5698ZM101.557 119.388C101.613 119.388 101.672 119.381 101.735 119.367V120.079C101.63 120.1 101.512 120.111 101.379 120.111C101.121 120.111 100.904 120.048 100.73 119.922C100.555 119.789 100.451 119.605 100.416 119.367C100.053 119.863 99.4944 120.111 98.7406 120.111C98.2102 120.111 97.7775 119.978 97.4424 119.713C97.1144 119.447 96.9504 119.081 96.9504 118.613C96.9504 118.153 97.1109 117.8 97.432 117.556C97.753 117.312 98.1544 117.165 98.6359 117.116L100.405 116.917V116.823C100.405 116.425 100.287 116.118 100.049 115.902C99.812 115.685 99.5049 115.577 99.128 115.577C98.8209 115.577 98.5592 115.658 98.3428 115.818C98.1334 115.972 97.9938 116.181 97.924 116.446L97.1807 116.279C97.2924 115.825 97.5297 115.48 97.8926 115.242C98.2556 115.005 98.6813 114.886 99.1699 114.886C99.805 114.886 100.308 115.054 100.677 115.389C101.054 115.717 101.243 116.188 101.243 116.802V119.085C101.243 119.287 101.348 119.388 101.557 119.388ZM99.0128 119.441C99.4386 119.413 99.7771 119.27 100.028 119.011C100.28 118.746 100.405 118.387 100.405 117.933V117.577L98.772 117.765C98.116 117.835 97.7879 118.114 97.7879 118.603C97.7879 118.889 97.9066 119.105 98.1439 119.252C98.3882 119.399 98.6778 119.461 99.0128 119.441ZM103.967 120.006V115.755H102.229V114.991H106.532V115.755H104.805V120.006H103.967ZM109.274 121.576V119.263H109.692C109.888 119.263 110.059 119.21 110.205 119.105C110.352 119.001 110.436 118.837 110.457 118.613L110.76 114.991H114.487V119.263H115.147V121.576H114.309V120.006H110.111V121.576H109.274ZM111.074 119.263H113.65V115.755H111.525L111.294 118.645C111.266 118.938 111.193 119.144 111.074 119.263ZM120.079 119.388C119.584 119.87 118.963 120.111 118.216 120.111C117.469 120.111 116.848 119.873 116.352 119.399C115.857 118.917 115.609 118.292 115.609 117.525C115.609 116.736 115.853 116.101 116.342 115.619C116.837 115.131 117.462 114.886 118.216 114.886C118.963 114.886 119.584 115.131 120.079 115.619C120.575 116.101 120.823 116.736 120.823 117.525C120.823 118.285 120.575 118.907 120.079 119.388ZM118.216 119.357C118.711 119.357 119.127 119.189 119.462 118.854C119.797 118.512 119.964 118.066 119.964 117.514C119.964 116.949 119.797 116.499 119.462 116.164C119.134 115.822 118.718 115.651 118.216 115.651C117.713 115.651 117.295 115.822 116.96 116.164C116.631 116.499 116.467 116.949 116.467 117.514C116.467 118.066 116.631 118.512 116.96 118.854C117.295 119.189 117.713 119.357 118.216 119.357ZM127.083 114.991H127.962V120.006H127.125V116.593L125.324 120.006H124.738L122.937 116.572V120.006H122.099V114.991H122.989L125.041 118.948L127.083 114.991ZM133.865 119.388C133.921 119.388 133.98 119.381 134.043 119.367V120.079C133.938 120.1 133.819 120.111 133.687 120.111C133.429 120.111 133.212 120.048 133.038 119.922C132.863 119.789 132.759 119.605 132.724 119.367C132.361 119.863 131.802 120.111 131.049 120.111C130.518 120.111 130.085 119.978 129.75 119.713C129.422 119.447 129.258 119.081 129.258 118.613C129.258 118.153 129.419 117.8 129.74 117.556C130.061 117.312 130.462 117.165 130.944 117.116L132.713 116.917V116.823C132.713 116.425 132.595 116.118 132.357 115.902C132.12 115.685 131.813 115.577 131.436 115.577C131.129 115.577 130.867 115.658 130.651 115.818C130.441 115.972 130.302 116.181 130.232 116.446L129.489 116.279C129.6 115.825 129.838 115.48 130.201 115.242C130.563 115.005 130.989 114.886 131.478 114.886C132.113 114.886 132.615 115.054 132.985 115.389C133.362 115.717 133.551 116.188 133.551 116.802V119.085C133.551 119.287 133.655 119.388 133.865 119.388ZM131.321 119.441C131.746 119.413 132.085 119.27 132.336 119.011C132.588 118.746 132.713 118.387 132.713 117.933V117.577L131.08 117.765C130.424 117.835 130.096 118.114 130.096 118.603C130.096 118.889 130.214 119.105 130.452 119.252C130.696 119.399 130.986 119.461 131.321 119.441ZM135.186 120.006V114.991H136.024V119.242H138.767V114.991H139.604V119.242H142.347V114.991H143.185V120.006H135.186ZM144.817 120.006V114.991H145.655V117.127H148.398V114.991H149.235V120.006H148.398V117.891H145.655V120.006H144.817ZM150.88 120.006V114.991H151.717V118.613L154.628 114.991H155.34V120.006H154.502V116.373L151.592 120.006H150.88ZM161.193 114.991L159.287 117.504L161.193 120.006H160.261L158.753 118.048L157.235 120.006H156.314L158.23 117.493L156.335 114.991H157.256L158.764 116.959L160.261 114.991H161.193ZM27.2307 132.006V126.991H31.6488V132.006H30.8112V127.755H28.0682V132.006H27.2307ZM33.2935 132.006V126.991H34.1311V130.613L37.0416 126.991H37.7535V132.006H36.9159V128.373L34.0054 132.006H33.2935ZM40.4758 132.006V127.755H38.7379V126.991H43.0408V127.755H41.3134V132.006H40.4758ZM48.041 131.388C47.5454 131.87 46.9242 132.111 46.1774 132.111C45.4306 132.111 44.8094 131.873 44.3139 131.399C43.8183 130.917 43.5705 130.292 43.5705 129.525C43.5705 128.736 43.8148 128.101 44.3034 127.619C44.7989 127.131 45.4236 126.886 46.1774 126.886C46.9242 126.886 47.5454 127.131 48.041 127.619C48.5365 128.101 48.7843 128.736 48.7843 129.525C48.7843 130.285 48.5365 130.907 48.041 131.388ZM46.1774 131.357C46.673 131.357 47.0883 131.189 47.4233 130.854C47.7583 130.512 47.9258 130.066 47.9258 129.514C47.9258 128.949 47.7583 128.499 47.4233 128.164C47.0952 127.822 46.6799 127.651 46.1774 127.651C45.6749 127.651 45.2561 127.822 44.9211 128.164C44.593 128.499 44.429 128.949 44.429 129.514C44.429 130.066 44.593 130.512 44.9211 130.854C45.2561 131.189 45.6749 131.357 46.1774 131.357ZM55.0443 126.991H55.9238V132.006H55.0862V128.593L53.2855 132.006H52.6992L50.8985 128.572V132.006H50.0609V126.991H50.9508L53.0028 130.948L55.0443 126.991ZM62.1928 133.597V132.006H57.5653V126.991H58.4029V131.242H61.1459V126.991H61.9834V131.242H63.0304V133.597H62.1928ZM66.0203 132.111C65.2944 132.111 64.6941 131.873 64.2195 131.399C63.7449 130.917 63.5076 130.285 63.5076 129.504C63.5076 128.722 63.7414 128.09 64.2091 127.609C64.6837 127.127 65.2804 126.886 65.9993 126.886C66.7112 126.886 67.2906 127.117 67.7372 127.577C68.1909 128.038 68.4178 128.649 68.4178 129.409C68.4178 129.493 68.4108 129.584 68.3968 129.682H64.3452C64.3731 130.212 64.5406 130.634 64.8477 130.948C65.1548 131.263 65.5457 131.42 66.0203 131.42C66.3832 131.42 66.6973 131.332 66.9625 131.158C67.2277 130.976 67.3952 130.732 67.465 130.425L68.2084 130.666C68.0827 131.119 67.8175 131.475 67.4127 131.734C67.0149 131.985 66.5507 132.111 66.0203 132.111ZM64.387 129.022H67.5907C67.5348 128.596 67.3638 128.251 67.0777 127.986C66.7915 127.72 66.4356 127.588 66.0098 127.588C65.591 127.588 65.2351 127.717 64.9419 127.975C64.6488 128.233 64.4638 128.582 64.387 129.022ZM69.691 132.006V126.991H72.3188C72.8144 126.991 73.1948 127.103 73.46 127.326C73.7322 127.549 73.8683 127.863 73.8683 128.268C73.8683 128.513 73.816 128.729 73.7113 128.917C73.6066 129.099 73.4565 129.231 73.2611 129.315C73.7706 129.504 74.0253 129.908 74.0253 130.53C74.0253 131.004 73.8788 131.371 73.5856 131.629C73.2995 131.88 72.8772 132.006 72.3188 132.006H69.691ZM70.4972 128.991H72.3188C72.5631 128.991 72.7481 128.931 72.8737 128.813C72.9993 128.687 73.0622 128.52 73.0622 128.31C73.0622 127.891 72.8004 127.682 72.277 127.682H70.4972V128.991ZM70.4972 131.315H72.2874C72.6015 131.315 72.8353 131.242 72.9889 131.095C73.1494 130.948 73.2297 130.746 73.2297 130.488C73.2297 129.957 72.9295 129.692 72.3293 129.692H70.4972V131.315ZM79.2128 133.524C78.0332 132.372 77.4434 130.875 77.4434 129.033C77.4434 127.19 78.0332 125.693 79.2128 124.541L79.9142 124.897C79.3907 125.421 78.9894 126.042 78.7102 126.761C78.4311 127.473 78.2915 128.23 78.2915 129.033C78.2915 129.835 78.4311 130.596 78.7102 131.315C78.9894 132.027 79.3907 132.644 79.9142 133.168L79.2128 133.524ZM80.8965 132.006V126.991H81.7341V129.043H82.7706L84.163 126.991H85.0738L83.4615 129.389L85.2623 132.006H84.2991L82.7706 129.807H81.7341V132.006H80.8965ZM90.1844 131.388C89.6888 131.87 89.0676 132.111 88.3208 132.111C87.574 132.111 86.9528 131.873 86.4573 131.399C85.9617 130.917 85.7139 130.292 85.7139 129.525C85.7139 128.736 85.9582 128.101 86.4468 127.619C86.9423 127.131 87.567 126.886 88.3208 126.886C89.0676 126.886 89.6888 127.131 90.1844 127.619C90.6799 128.101 90.9277 128.736 90.9277 129.525C90.9277 130.285 90.6799 130.907 90.1844 131.388ZM88.3208 131.357C88.8164 131.357 89.2316 131.189 89.5667 130.854C89.9017 130.512 90.0692 130.066 90.0692 129.514C90.0692 128.949 89.9017 128.499 89.5667 128.164C89.2386 127.822 88.8233 127.651 88.3208 127.651C87.8183 127.651 87.3995 127.822 87.0645 128.164C86.7364 128.499 86.5724 128.949 86.5724 129.514C86.5724 130.066 86.7364 130.512 87.0645 130.854C87.3995 131.189 87.8183 131.357 88.3208 131.357ZM92.2043 132.006V126.991H93.0419V131.242H95.7848V126.991H96.6224V131.242H99.3654V126.991H100.203V132.006H92.2043ZM104.002 132.111C103.277 132.111 102.676 131.873 102.202 131.399C101.727 130.917 101.49 130.285 101.49 129.504C101.49 128.722 101.724 128.09 102.191 127.609C102.666 127.127 103.263 126.886 103.982 126.886C104.693 126.886 105.273 127.117 105.719 127.577C106.173 128.038 106.4 128.649 106.4 129.409C106.4 129.493 106.393 129.584 106.379 129.682H102.327C102.355 130.212 102.523 130.634 102.83 130.948C103.137 131.263 103.528 131.42 104.002 131.42C104.365 131.42 104.68 131.332 104.945 131.158C105.21 130.976 105.377 130.732 105.447 130.425L106.191 130.666C106.065 131.119 105.8 131.475 105.395 131.734C104.997 131.985 104.533 132.111 104.002 132.111ZM102.369 129.022H105.573C105.517 128.596 105.346 128.251 105.06 127.986C104.774 127.72 104.418 127.588 103.992 127.588C103.573 127.588 103.217 127.717 102.924 127.975C102.631 128.233 102.446 128.582 102.369 129.022ZM107.673 132.006V126.991H108.511V129.043H109.547L110.94 126.991H111.851L110.238 129.389L112.039 132.006H111.076L109.547 129.807H108.511V132.006H107.673ZM113.397 133.189L113.052 132.843C113.38 132.55 113.565 132.278 113.607 132.027C113.314 131.943 113.167 131.751 113.167 131.451C113.167 131.283 113.226 131.144 113.345 131.032C113.464 130.914 113.607 130.854 113.774 130.854C113.949 130.854 114.095 130.914 114.214 131.032C114.34 131.151 114.402 131.315 114.402 131.524C114.402 132.027 114.067 132.582 113.397 133.189ZM120.607 132.111C119.881 132.111 119.277 131.87 118.796 131.388C118.314 130.907 118.073 130.282 118.073 129.514C118.073 128.746 118.31 128.118 118.785 127.63C119.267 127.134 119.874 126.886 120.607 126.886C121.151 126.886 121.629 127.019 122.041 127.284C122.453 127.542 122.722 127.898 122.847 128.352L122.104 128.614C122.034 128.321 121.863 128.087 121.591 127.912C121.319 127.738 121.001 127.651 120.638 127.651C120.15 127.651 119.741 127.825 119.413 128.174C119.092 128.516 118.932 128.959 118.932 129.504C118.932 130.055 119.092 130.502 119.413 130.844C119.741 131.186 120.153 131.357 120.649 131.357C121.005 131.357 121.319 131.27 121.591 131.095C121.863 130.914 122.034 130.676 122.104 130.383L122.847 130.634C122.722 131.095 122.453 131.458 122.041 131.723C121.629 131.981 121.151 132.111 120.607 132.111ZM128.146 131.388C127.651 131.87 127.029 132.111 126.283 132.111C125.536 132.111 124.915 131.873 124.419 131.399C123.923 130.917 123.676 130.292 123.676 129.525C123.676 128.736 123.92 128.101 124.409 127.619C124.904 127.131 125.529 126.886 126.283 126.886C127.029 126.886 127.651 127.131 128.146 127.619C128.642 128.101 128.889 128.736 128.889 129.525C128.889 130.285 128.642 130.907 128.146 131.388ZM126.283 131.357C126.778 131.357 127.193 131.189 127.528 130.854C127.863 130.512 128.031 130.066 128.031 129.514C128.031 128.949 127.863 128.499 127.528 128.164C127.2 127.822 126.785 127.651 126.283 127.651C125.78 127.651 125.361 127.822 125.026 128.164C124.698 128.499 124.534 128.949 124.534 129.514C124.534 130.066 124.698 130.512 125.026 130.854C125.361 131.189 125.78 131.357 126.283 131.357ZM132.281 132.111C131.555 132.111 130.962 131.887 130.501 131.441C130.04 130.994 129.81 130.334 129.81 129.462C129.81 129.162 129.838 128.851 129.894 128.53C129.95 128.202 130.051 127.846 130.197 127.462C130.344 127.078 130.526 126.726 130.742 126.405C130.958 126.084 131.248 125.787 131.611 125.515C131.974 125.243 132.379 125.044 132.825 124.918L134.375 124.489L134.385 125.243L133.097 125.62C132.455 125.808 131.953 126.087 131.59 126.457C131.227 126.827 130.937 127.382 130.721 128.122C131.154 127.528 131.747 127.232 132.501 127.232C133.171 127.232 133.722 127.455 134.155 127.902C134.595 128.349 134.814 128.928 134.814 129.64C134.814 130.387 134.577 130.987 134.103 131.441C133.628 131.887 133.021 132.111 132.281 132.111ZM131.14 130.896C131.454 131.203 131.845 131.357 132.312 131.357C132.78 131.357 133.171 131.203 133.485 130.896C133.799 130.589 133.956 130.181 133.956 129.671C133.956 129.169 133.799 128.764 133.485 128.457C133.171 128.15 132.776 127.996 132.302 127.996C131.834 127.996 131.443 128.153 131.129 128.467C130.822 128.781 130.669 129.186 130.669 129.682C130.669 130.184 130.826 130.589 131.14 130.896ZM140.357 131.388C140.413 131.388 140.472 131.381 140.535 131.367V132.079C140.43 132.1 140.312 132.111 140.179 132.111C139.921 132.111 139.704 132.048 139.53 131.922C139.355 131.789 139.251 131.605 139.216 131.367C138.853 131.863 138.295 132.111 137.541 132.111C137.01 132.111 136.578 131.978 136.243 131.713C135.915 131.447 135.751 131.081 135.751 130.613C135.751 130.153 135.911 129.8 136.232 129.556C136.553 129.312 136.954 129.165 137.436 129.116L139.205 128.917V128.823C139.205 128.425 139.087 128.118 138.849 127.902C138.612 127.685 138.305 127.577 137.928 127.577C137.621 127.577 137.359 127.658 137.143 127.818C136.934 127.972 136.794 128.181 136.724 128.446L135.981 128.279C136.093 127.825 136.33 127.48 136.693 127.242C137.056 127.005 137.481 126.886 137.97 126.886C138.605 126.886 139.108 127.054 139.478 127.389C139.855 127.717 140.043 128.188 140.043 128.802V131.085C140.043 131.287 140.148 131.388 140.357 131.388ZM137.813 131.441C138.239 131.413 138.577 131.27 138.829 131.011C139.08 130.746 139.205 130.387 139.205 129.933V129.577L137.572 129.765C136.916 129.835 136.588 130.114 136.588 130.603C136.588 130.889 136.707 131.105 136.944 131.252C137.188 131.399 137.478 131.461 137.813 131.441ZM141.678 132.006V126.991H142.516V129.043H143.552L144.945 126.991H145.856L144.243 129.389L146.044 132.006H145.081L143.552 129.807H142.516V132.006H141.678ZM147.402 133.189L147.057 132.843C147.385 132.55 147.57 132.278 147.612 132.027C147.319 131.943 147.172 131.751 147.172 131.451C147.172 131.283 147.231 131.144 147.35 131.032C147.469 130.914 147.612 130.854 147.779 130.854C147.954 130.854 148.1 130.914 148.219 131.032C148.345 131.151 148.407 131.315 148.407 131.524C148.407 132.027 148.072 132.582 147.402 133.189ZM27.2307 144.006V138.991H30.6751V139.755H28.0682V144.006H27.2307ZM34.2354 138.886C34.9403 138.886 35.5266 139.131 35.9942 139.619C36.4618 140.108 36.6957 140.736 36.6957 141.504C36.6957 142.271 36.4618 142.9 35.9942 143.388C35.5266 143.87 34.9438 144.111 34.2458 144.111C33.4153 144.111 32.801 143.789 32.4032 143.147V146.1H31.5657V138.991H32.4032V139.839C32.801 139.204 33.4118 138.886 34.2354 138.886ZM32.8743 142.854C33.1954 143.196 33.6037 143.367 34.0993 143.367C34.5948 143.367 35.0066 143.196 35.3346 142.854C35.6697 142.512 35.8372 142.062 35.8372 141.504C35.8372 140.945 35.6697 140.495 35.3346 140.153C35.0066 139.804 34.5948 139.63 34.0993 139.63C33.6037 139.63 33.1954 139.804 32.8743 140.153C32.5603 140.502 32.4032 140.952 32.4032 141.504C32.4032 142.055 32.5603 142.505 32.8743 142.854ZM37.9761 144.006V138.991H38.8137V140.603H40.3841C40.9843 140.603 41.4554 140.76 41.7974 141.074C42.1394 141.382 42.3104 141.8 42.3104 142.331C42.3104 142.847 42.1394 143.256 41.7974 143.556C41.4554 143.856 40.9843 144.006 40.3841 144.006H37.9761ZM43.0433 144.006V138.991H43.8809V144.006H43.0433ZM38.8137 143.242H40.4155C40.7226 143.242 40.9704 143.158 41.1588 142.99C41.3542 142.823 41.452 142.596 41.452 142.31C41.452 142.017 41.3542 141.786 41.1588 141.619C40.9704 141.444 40.7226 141.357 40.4155 141.357H38.8137V143.242ZM47.0631 144.111C46.5257 144.111 46.0651 143.981 45.6812 143.723C45.2973 143.458 45.0565 143.109 44.9588 142.676L45.7126 142.456C45.7754 142.729 45.9255 142.948 46.1628 143.116C46.4001 143.276 46.6862 143.357 47.0213 143.357C47.3493 143.357 47.6215 143.28 47.8379 143.126C48.0542 142.973 48.1624 142.777 48.1624 142.54C48.1624 142.282 48.0508 142.086 47.8274 141.954C47.611 141.814 47.3179 141.744 46.948 141.744H46.1942V141.085H46.948C47.283 141.085 47.5552 141.026 47.7646 140.907C47.974 140.788 48.0787 140.614 48.0787 140.383C48.0787 140.167 47.974 139.993 47.7646 139.86C47.5622 139.72 47.3004 139.651 46.9794 139.651C46.6513 139.651 46.3722 139.731 46.1418 139.891C45.9185 140.045 45.7754 140.251 45.7126 140.509L44.9588 140.3C45.0565 139.874 45.2868 139.532 45.6498 139.274C46.0197 139.015 46.4664 138.886 46.9899 138.886C47.5622 138.886 48.0298 139.022 48.3928 139.295C48.7627 139.56 48.9476 139.905 48.9476 140.331C48.9476 140.834 48.6859 141.197 48.1624 141.42C48.7417 141.664 49.0314 142.066 49.0314 142.624C49.0314 143.057 48.8464 143.413 48.4765 143.692C48.1136 143.971 47.6424 144.111 47.0631 144.111ZM54.0543 138.991H54.9442L51.7301 146.1H50.9135L51.8872 144.006L49.5839 138.991H50.4843L52.2745 143.011L54.0543 138.991ZM55.8272 144.006V138.991H56.6648V141.127H59.4078V138.991H60.2453V144.006H59.4078V141.891H56.6648V144.006H55.8272ZM66.0046 143.388C65.509 143.87 64.8878 144.111 64.141 144.111C63.3942 144.111 62.773 143.873 62.2775 143.399C61.7819 142.917 61.5341 142.292 61.5341 141.525C61.5341 140.736 61.7784 140.101 62.267 139.619C62.7625 139.131 63.3872 138.886 64.141 138.886C64.8878 138.886 65.509 139.131 66.0046 139.619C66.5001 140.101 66.7479 140.736 66.7479 141.525C66.7479 142.285 66.5001 142.907 66.0046 143.388ZM64.141 143.357C64.6366 143.357 65.0518 143.189 65.3869 142.854C65.7219 142.512 65.8894 142.066 65.8894 141.514C65.8894 140.949 65.7219 140.499 65.3869 140.164C65.0588 139.822 64.6435 139.651 64.141 139.651C63.6385 139.651 63.2197 139.822 62.8847 140.164C62.5566 140.499 62.3926 140.949 62.3926 141.514C62.3926 142.066 62.5566 142.512 62.8847 142.854C63.2197 143.189 63.6385 143.357 64.141 143.357ZM68.0245 144.006V138.991H70.6523C71.1479 138.991 71.5283 139.103 71.7935 139.326C72.0657 139.549 72.2018 139.863 72.2018 140.268C72.2018 140.513 72.1494 140.729 72.0447 140.917C71.9401 141.099 71.79 141.231 71.5946 141.315C72.1041 141.504 72.3588 141.908 72.3588 142.53C72.3588 143.004 72.2123 143.371 71.9191 143.629C71.633 143.88 71.2107 144.006 70.6523 144.006H68.0245ZM68.8306 140.991H70.6523C70.8966 140.991 71.0816 140.931 71.2072 140.813C71.3328 140.687 71.3956 140.52 71.3956 140.31C71.3956 139.891 71.1339 139.682 70.6104 139.682H68.8306V140.991ZM68.8306 143.315H70.6209C70.935 143.315 71.1688 143.242 71.3224 143.095C71.4829 142.948 71.5632 142.746 71.5632 142.488C71.5632 141.957 71.263 141.692 70.6628 141.692H68.8306V143.315ZM76.1015 144.006V138.991H76.939V142.613L79.8495 138.991H80.5614V144.006H79.7239V140.373L76.8134 144.006H76.1015ZM81.5145 144.111V143.346H81.7448C82.3241 143.346 82.6347 143.018 82.6766 142.362L82.9278 138.991H86.9376V144.006H86.1001V139.755H83.7131L83.5141 142.383C83.4723 142.941 83.3013 143.371 83.0011 143.671C82.701 143.964 82.2822 144.111 81.7448 144.111H81.5145ZM88.5748 144.006V138.991H89.4123V142.613L92.3228 138.991H93.0347V144.006H92.1972V140.373L89.2867 144.006H88.5748ZM99.1336 144.111C98.5683 144.111 98.0658 143.967 97.6261 143.681C97.1863 143.395 96.8792 143.001 96.7047 142.498H97.6365C97.9646 143.092 98.4671 143.388 99.1441 143.388C99.5838 143.388 99.9607 143.252 100.275 142.98C100.589 142.708 100.781 142.345 100.851 141.891L97.9506 141.87V141.116H100.851C100.774 140.656 100.578 140.293 100.264 140.027C99.9572 139.755 99.5838 139.619 99.1441 139.619C98.4601 139.619 97.9576 139.916 97.6365 140.509H96.7047C96.8792 140.007 97.1829 139.612 97.6156 139.326C98.0553 139.033 98.5613 138.886 99.1336 138.886C99.8805 138.886 100.502 139.131 100.997 139.619C101.493 140.101 101.741 140.736 101.741 141.525C101.741 142.285 101.493 142.907 100.997 143.388C100.502 143.87 99.8805 144.111 99.1336 144.111ZM103.032 144.006V138.991H103.869V141.043H104.906L106.298 138.991H107.209L105.597 141.389L107.397 144.006H106.434L104.906 141.807H103.869V144.006H103.032ZM110.033 144.111C109.495 144.111 109.035 143.981 108.651 143.723C108.267 143.458 108.026 143.109 107.929 142.676L108.682 142.456C108.745 142.729 108.895 142.948 109.132 143.116C109.37 143.276 109.656 143.357 109.991 143.357C110.319 143.357 110.591 143.28 110.808 143.126C111.024 142.973 111.132 142.777 111.132 142.54C111.132 142.282 111.02 142.086 110.797 141.954C110.581 141.814 110.288 141.744 109.918 141.744H109.164V141.085H109.918C110.253 141.085 110.525 141.026 110.734 140.907C110.944 140.788 111.048 140.614 111.048 140.383C111.048 140.167 110.944 139.993 110.734 139.86C110.532 139.72 110.27 139.651 109.949 139.651C109.621 139.651 109.342 139.731 109.112 139.891C108.888 140.045 108.745 140.251 108.682 140.509L107.929 140.3C108.026 139.874 108.257 139.532 108.619 139.274C108.989 139.015 109.436 138.886 109.96 138.886C110.532 138.886 111 139.022 111.362 139.295C111.732 139.56 111.917 139.905 111.917 140.331C111.917 140.834 111.656 141.197 111.132 141.42C111.711 141.664 112.001 142.066 112.001 142.624C112.001 143.057 111.816 143.413 111.446 143.692C111.083 143.971 110.612 144.111 110.033 144.111ZM117.39 143.388C116.895 143.87 116.274 144.111 115.527 144.111C114.78 144.111 114.159 143.873 113.663 143.399C113.168 142.917 112.92 142.292 112.92 141.525C112.92 140.736 113.164 140.101 113.653 139.619C114.148 139.131 114.773 138.886 115.527 138.886C116.274 138.886 116.895 139.131 117.39 139.619C117.886 140.101 118.134 140.736 118.134 141.525C118.134 142.285 117.886 142.907 117.39 143.388ZM115.527 143.357C116.022 143.357 116.438 143.189 116.773 142.854C117.108 142.512 117.275 142.066 117.275 141.514C117.275 140.949 117.108 140.499 116.773 140.164C116.445 139.822 116.029 139.651 115.527 139.651C115.024 139.651 114.606 139.822 114.271 140.164C113.943 140.499 113.779 140.949 113.779 141.514C113.779 142.066 113.943 142.512 114.271 142.854C114.606 143.189 115.024 143.357 115.527 143.357ZM120.397 144.006V139.755H118.659V138.991H122.962V139.755H121.235V144.006H120.397ZM123.95 144.006V138.991H124.787V142.613L127.698 138.991H128.41V144.006H127.572V140.373L124.662 144.006H123.95ZM130.043 144.006V138.991H130.881V141.043H131.917L133.31 138.991H134.221L132.608 141.389L134.409 144.006H133.446L131.917 141.807H130.881V144.006H130.043ZM139.139 138.991H140.028L136.814 146.1H135.998L136.971 144.006L134.668 138.991H135.569L137.359 143.011L139.139 138.991ZM141.089 145.524L140.388 145.168C140.912 144.638 141.313 144.016 141.592 143.304C141.871 142.592 142.011 141.835 142.011 141.033C142.011 140.23 141.871 139.473 141.592 138.761C141.313 138.049 140.912 137.428 140.388 136.897L141.089 136.541C142.269 137.693 142.859 139.19 142.859 141.033C142.859 142.875 142.269 144.372 141.089 145.524Z" fill="#FFF8F4"/>
<path d="M83.637 64.9661C83.0268 65.5404 82.2491 65.8276 81.3038 65.8276C80.3586 65.8276 79.5809 65.5404 78.9706 64.9661C78.3604 64.3798 78.0553 63.6141 78.0553 62.6688C78.0553 61.6997 78.3604 60.916 78.9706 60.3177C79.5809 59.7195 80.3586 59.4203 81.3038 59.4203C82.2491 59.4203 83.0268 59.7195 83.637 60.3177C84.2592 60.916 84.5703 61.6997 84.5703 62.6688C84.5703 63.6141 84.2592 64.3798 83.637 64.9661ZM80.3347 72.1631L89.1828 59.5998H90.9057L82.0576 72.1631H80.3347ZM80.0654 63.9431C80.4124 64.2781 80.8252 64.4456 81.3038 64.4456C81.7824 64.4456 82.1952 64.2781 82.5422 63.9431C82.8892 63.5961 83.0627 63.1654 83.0627 62.6509C83.0627 62.1244 82.8892 61.6877 82.5422 61.3407C82.1952 60.9818 81.7824 60.8023 81.3038 60.8023C80.8252 60.8023 80.4124 60.9818 80.0654 61.3407C79.7304 61.6877 79.5629 62.1244 79.5629 62.6509C79.5629 63.1654 79.7304 63.5961 80.0654 63.9431ZM92.2518 71.4631C91.6416 72.0494 90.8639 72.3426 89.9186 72.3426C88.9734 72.3426 88.1957 72.0494 87.5855 71.4631C86.9752 70.8768 86.6701 70.1171 86.6701 69.1838C86.6701 68.2146 86.9752 67.4309 87.5855 66.8327C88.1957 66.2344 88.9734 65.9353 89.9186 65.9353C90.8639 65.9353 91.6416 66.2344 92.2518 66.8327C92.862 67.4309 93.1671 68.2146 93.1671 69.1838C93.1671 70.1171 92.862 70.8768 92.2518 71.4631ZM89.9186 70.9606C90.4092 70.9606 90.822 70.7931 91.157 70.4581C91.504 70.1111 91.6775 69.6744 91.6775 69.1479C91.6775 68.6214 91.504 68.1847 91.157 67.8377C90.822 67.4907 90.4092 67.3173 89.9186 67.3173C89.44 67.3173 89.0272 67.4907 88.6803 67.8377C88.3452 68.1847 88.1777 68.6214 88.1777 69.1479C88.1777 69.6744 88.3452 70.1111 88.6803 70.4581C89.0272 70.7931 89.44 70.9606 89.9186 70.9606Z" fill="#FFF8F4"/>
</svg>
