<svg width="18" height="18" viewBox="0 0 18 18" fill="none" xmlns="http://www.w3.org/2000/svg">
<path d="M7.52415 8.84668L4.85749 4.34668M7.52415 8.84668L10.9908 4.84668M7.52415 8.84668L13.9242 9.34668M7.52415 8.84668L3.79082 12.5967M4.85749 4.34668L5.12415 2.09668L8.32415 0.59668L10.1908 2.34668L10.9908 4.84668M4.85749 4.34668H2.45749L0.59082 5.59668L1.39082 8.09668V10.8467L3.79082 12.5967M10.9908 4.84668L13.1242 3.84668L16.5908 5.34668L15.7908 8.59668L13.9242 9.34668M13.9242 9.34668L14.4575 11.8467L12.5908 13.5967L10.9908 16.5967L6.45749 16.3467L3.79082 12.5967" stroke="white"/>
</svg>
