<svg width="897" height="897" viewBox="0 0 897 897" fill="none" xmlns="http://www.w3.org/2000/svg">
<path d="M326.881 608.564C-73.5843 552.478 96.951 174.188 520.476 201.399C1050.92 235.478 692.416 572.977 514.246 746.599C592.276 601.635 632.613 544.743 639.154 530.92C646.542 519.346 652.343 508.188 656.321 497.654C662.196 482.1 664.112 467.875 661.279 455.675C655.596 431.2 630.907 415.173 581.806 412.711C458.931 406.551 385.409 455.701 351.875 524.025C339.009 550.239 332.037 579.262 330.418 609.044C329.242 608.889 328.063 608.729 326.881 608.564Z" fill="#FB7420"/>
<path d="M589 519.5C478.225 638.583 387.028 616.785 326.881 608.564C354.228 617.564 468.234 698.135 514.679 746.599L589 519.5Z" fill="#FB7420"/>
</svg>
