<svg width="14" height="8" viewBox="0 0 14 8" fill="none" xmlns="http://www.w3.org/2000/svg">
<path d="M0.5 3.18213C0.223858 3.18213 0 3.40599 0 3.68213C0 3.95827 0.223858 4.18213 0.5 4.18213L0.5 3.68213L0.5 3.18213ZM13.8536 4.03568C14.0488 3.84042 14.0488 3.52384 13.8536 3.32858L10.6716 0.146595C10.4763 -0.0486672 10.1597 -0.0486672 9.96447 0.146595C9.7692 0.341857 9.7692 0.65844 9.96447 0.853702L12.7929 3.68213L9.96447 6.51056C9.7692 6.70582 9.7692 7.0224 9.96447 7.21766C10.1597 7.41293 10.4763 7.41293 10.6716 7.21766L13.8536 4.03568ZM0.5 3.68213L0.5 4.18213L13.5 4.18213V3.68213V3.18213L0.5 3.18213L0.5 3.68213Z" fill="#1A1919"/>
</svg>
