<svg width="16" height="17" viewBox="0 0 16 17" fill="none" xmlns="http://www.w3.org/2000/svg">
<path d="M7.6955 9.53641C7.79382 10.8349 8.0538 12.0024 8.36069 12.6891C8.89605 13.8872 8.28634 14.3443 7.91456 14.4231C7.02229 14.4231 4.92546 14.4231 3.67629 14.4231C2.42712 14.4231 1.12342 12.6366 0.627713 11.7433C-0.502492 14.833 2.09004 16.1308 3.52758 16.3936C4.24635 16.3936 6.1449 16.3936 7.98891 16.3936C9.83293 16.3936 10.5914 13.9239 10.7401 12.6891C11.2181 11.9424 11.4026 10.7746 11.4264 9.53641M7.6955 9.53641C7.61712 9.61523 6.27872 9.14232 5.23774 11.1128M7.6955 9.53641C7.62176 8.56258 7.63894 7.51506 7.79544 6.54134M5.23774 11.1128L5.75823 12.4527M5.23774 11.1128L4.41983 12.4527M5.23774 11.1128H3.67629M11.4264 9.53641C11.9659 9.51014 13.1938 9.74134 13.7886 10.8763M11.4264 9.53641C11.4458 8.52099 11.3572 7.45818 11.2338 6.54134M13.7886 10.8763L14.7553 12.5315M13.7886 10.8763L13.2681 12.4527M13.7886 10.8763H15.3501M11.2338 6.54134C11.1518 5.93271 11.0544 5.3884 10.9631 4.96498C12.0933 2.50587 10.4922 0.892734 9.55038 0.393555C7.28997 1.52853 7.71628 3.91408 8.21198 4.96498C8.02109 5.44749 7.8853 5.98225 7.79544 6.54134M11.2338 6.54134C11.8375 6.62016 13.1938 6.49405 13.7886 5.35907M13.7886 5.35907L14.6065 3.7039M13.7886 5.35907L13.2681 3.7039M13.7886 5.35907L15.3501 5.20144M7.79544 6.54134C7.16594 6.64643 5.7731 6.5571 5.23774 5.35907M5.23774 5.35907L5.75823 3.7039M5.23774 5.35907L4.34547 3.62508M5.23774 5.35907L3.52756 5.12262" stroke="white" stroke-width="0.7"/>
</svg>
