<svg width="40" height="40" viewBox="0 0 40 40" fill="none" xmlns="http://www.w3.org/2000/svg">
<rect width="40" height="40" rx="20" fill="white"/>
<path d="M29.3163 21.4273L18.3244 30.5269C17.0291 31.6008 15 30.728 15 29.0982V10.899C14.9997 10.5342 15.1105 10.1771 15.3191 9.8704C15.5277 9.56369 15.8254 9.32039 16.1764 9.16964C16.5274 9.01888 16.9169 8.96706 17.2982 9.02038C17.6795 9.0737 18.0365 9.2299 18.3264 9.47027L29.3143 18.5699C29.5297 18.748 29.7023 18.9676 29.8205 19.214C29.9388 19.4604 30 19.7279 30 19.9986C30 20.2692 29.9388 20.5367 29.8205 20.7832C29.7023 21.0296 29.5297 21.2492 29.3143 21.4273H29.3163Z" fill="black"/>
</svg>
