<svg width="120" height="82" viewBox="0 0 120 82" fill="none" xmlns="http://www.w3.org/2000/svg">
<ellipse cx="7.5" cy="29" rx="7.5" ry="9" fill="url(#paint0_linear_579_1319)"/>
<ellipse cx="2.5" cy="28" rx="1.5" ry="3" fill="#C6500E"/>
<path d="M46.8283 53.4261C55.6283 43.4261 47.8283 35.5928 42.8283 32.9261C36.7181 27.4261 28.8283 37.9261 34.3283 42.9261C39.8283 47.9261 35.8283 47.9261 31.8283 55.4261C27.8283 62.9261 35.8283 65.9261 46.8283 53.4261Z" fill="#FA7A23"/>
<mask id="mask0_579_1319" style="mask-type:alpha" maskUnits="userSpaceOnUse" x="30" y="31" width="21" height="31">
<path d="M46.8283 53.4261C55.6283 43.4261 47.8283 35.5928 42.8283 32.9261C36.7181 27.4261 28.8283 37.9261 34.3283 42.9261C39.8283 47.9261 35.8283 47.9261 31.8283 55.4261C27.8283 62.9261 35.8283 65.9261 46.8283 53.4261Z" fill="#FA7A23"/>
</mask>
<g mask="url(#mask0_579_1319)">
<g filter="url(#filter0_f_579_1319)">
<path d="M37.7822 56.874C61.7822 72.374 37.9488 42.5407 32.2822 40.874L29.2822 48.874C26.6155 52.5407 27.2632 50.0805 37.7822 56.874Z" fill="#F83B1E"/>
</g>
<g filter="url(#filter1_f_579_1319)">
<path d="M30.7822 61.374C42.7822 56.9289 47.7822 46.6455 48.2822 41.374H50.7822L52.2822 55.0514L32.2822 67.874L30.7822 61.374Z" fill="#FD402C"/>
</g>
</g>
<path d="M110.782 34.3741C90.0639 -2.09006 55.2822 4.04074 41.7822 10.8741C33.4488 20.7074 20.6822 42.5741 36.2822 51.3741C55.7822 62.3741 85.7822 51.3741 85.7822 49.8741C85.7822 48.6741 90.1155 47.0407 92.2822 46.3741C94.2822 45.7074 99.3822 45.7741 103.782 51.3741C109.282 58.3741 112.282 71.3741 100.782 74.8741C91.5822 77.6741 90.4072 69.3741 90.7822 66.3741C91.0322 64.3741 94.6822 61.3741 98.2822 63.3741C102.782 65.8741 98.7822 71.3741 96.7822 68.8741C94.7822 66.3741 90.2822 69.8741 95.2822 72.3741C102.282 74.8741 104.782 68.3741 104.782 65.3741C104.782 62.3741 101.282 55.374 94.2822 56.8741C76.2822 62.3741 86.7822 79.874 92.7822 80.8741C100.282 83.874 135.782 78.374 110.782 34.3741Z" fill="#FA7B25"/>
<mask id="mask1_579_1319" style="mask-type:alpha" maskUnits="userSpaceOnUse" x="28" y="5" width="92" height="77">
<path d="M110.782 34.3741C90.0639 -2.09006 55.2822 4.04074 41.7822 10.8741C33.4488 20.7074 20.6822 42.5741 36.2822 51.3741C55.7822 62.3741 85.7822 51.3741 85.7822 49.8741C85.7822 48.6741 90.1155 47.0407 92.2822 46.3741C94.2822 45.7074 99.3822 45.7741 103.782 51.3741C109.282 58.3741 112.282 71.3741 100.782 74.8741C91.5822 77.6741 90.4072 69.3741 90.7822 66.3741C91.0322 64.3741 94.6822 61.3741 98.2822 63.3741C102.782 65.8741 98.7822 71.3741 96.7822 68.8741C94.7822 66.3741 90.2822 69.8741 95.2822 72.3741C102.282 74.8741 104.782 68.3741 104.782 65.3741C104.782 62.3741 101.282 55.374 94.2822 56.8741C76.2822 62.3741 86.7822 79.874 92.7822 80.8741C100.282 83.874 135.782 78.374 110.782 34.3741Z" fill="#FA7B25"/>
</mask>
<g mask="url(#mask1_579_1319)">
<g filter="url(#filter2_f_579_1319)">
<path d="M42.7822 14.874L47.2822 4.87399C54.6155 3.37399 74.1822 0.57399 93.7822 1.37399C118.282 2.37399 138.876 78.0026 114.782 48.874C81.2822 8.37402 58.7822 12.374 42.7822 14.874Z" fill="#F99E26"/>
</g>
<g filter="url(#filter3_f_579_1319)">
<path d="M32.7822 50.8741L37.2822 46.3741C56.7822 46.3741 95.5822 36.974 100.782 41.374C107.282 46.874 112.782 55.8741 110.282 62.8741C108.282 68.4741 105.449 71.2074 104.282 71.8741C106.616 65.2074 108.782 51.4741 98.7822 49.8741C88.7822 48.2741 82.2822 52.8741 80.2822 55.3741L44.2822 58.3741L32.7822 50.8741Z" fill="url(#paint1_linear_579_1319)"/>
</g>
<g filter="url(#filter4_f_579_1319)">
<path d="M88.2822 78.874C106.282 82.374 119.116 68.2074 120.782 63.374L116.782 92.374C101.616 92.0407 68.5947 75.0459 88.2822 78.874Z" fill="#F8442B"/>
</g>
<g filter="url(#filter5_f_579_1319)">
<path d="M95.2822 69.374L96.2822 67.874L94.7822 64.374L91.2822 68.874L89.2822 67.374L90.7822 63.374C93.7822 61.0407 100.082 58.174 101.282 65.374C102.482 72.574 97.7822 71.0407 95.2822 69.374Z" fill="#FB4D2B"/>
</g>
</g>
<path d="M14.7821 13.8741C34.7821 -9.72594 41.7821 2.04072 42.7821 10.8741C46.2821 19.5407 50.6821 39.174 40.2821 48.374C27.2821 59.874 10.5719 51.9982 6.78213 50.374C4.06993 49.2116 -4.64734 45.6473 3.19948 30.374C3.89368 24.874 7.1821 13.8741 14.7821 13.8741Z" fill="#F99326"/>
<mask id="mask2_579_1319" style="mask-type:alpha" maskUnits="userSpaceOnUse" x="0" y="0" width="47" height="55">
<path d="M14.7821 13.8741C34.7821 -9.72594 41.7821 2.04072 42.7821 10.8741C46.2821 19.5407 50.6821 39.174 40.2821 48.374C27.2821 59.874 10.5719 51.9982 6.78213 50.374C4.06993 49.2116 -4.64734 45.6473 3.19948 30.374C3.89368 24.874 7.1821 13.8741 14.7821 13.8741Z" fill="#F99326"/>
</mask>
<g mask="url(#mask2_579_1319)">
<g filter="url(#filter6_f_579_1319)">
<path d="M29.3001 45.574C42.1001 45.574 38.9488 23.0407 37.2822 13.374C40.1155 3.04069 48.7001 -5.22596 48.3001 31.574C47.8001 77.574 4.30008 56.074 3.80008 53.574C3.30008 51.074 13.3001 45.574 29.3001 45.574Z" fill="#FB5315"/>
</g>
<g filter="url(#filter7_f_579_1319)">
<path d="M41.2822 5.87397C36.4488 7.20731 25.1822 12.574 18.7822 23.374C10.7822 36.874 57.7822 3.87397 41.2822 5.87397Z" fill="#FD7A27"/>
</g>
<g filter="url(#filter8_f_579_1319)">
<path d="M12.725 11.6754C10.1723 12.9539 4.41912 17.5477 1.82735 25.6949C-1.41237 35.8789 21.6618 9.13377 12.725 11.6754Z" fill="#FD7A27"/>
</g>
</g>
<g filter="url(#filter9_f_579_1319)">
<path d="M73.7124 55.4497C65.3124 37.4497 77.5457 31.283 84.7124 30.4497C93.9124 29.2497 89.2124 42.6164 85.7124 49.4497C86.5457 52.4497 86.7124 59.0497 80.7124 61.4497C67.1124 66.6497 70.3791 59.6164 73.7124 55.4497Z" fill="#F8701C"/>
</g>
<g filter="url(#filter10_f_579_1319)">
<mask id="mask3_579_1319" style="mask-type:alpha" maskUnits="userSpaceOnUse" x="70" y="30" width="21" height="34">
<path d="M73.7124 55.4497C65.3124 37.4497 77.5457 31.283 84.7124 30.4497C93.9124 29.2497 89.2124 42.6164 85.7124 49.4497C86.5457 52.4497 86.7124 59.0497 80.7124 61.4497C67.1124 66.6497 70.3791 59.6164 73.7124 55.4497Z" fill="#F8701C"/>
</mask>
<g mask="url(#mask3_579_1319)">
<g filter="url(#filter11_f_579_1319)">
<path d="M70.7822 60.874C77.5822 61.274 84.2822 56.0407 86.7822 53.374L89.2822 54.874L81.2822 64.874L68.2822 65.374L70.7822 60.874Z" fill="#F84213"/>
</g>
<g filter="url(#filter12_f_579_1319)">
<path d="M70.2822 47.874C72.6822 39.874 84.9488 32.874 90.7822 30.374L92.2822 26.374H69.2822C68.6155 36.874 67.8822 55.874 70.2822 47.874Z" fill="#F69027"/>
</g>
</g>
</g>
<path d="M60.8283 56.4261C69.6283 46.4261 61.8283 38.5928 56.8283 35.9261C50.7181 30.4261 42.8283 40.9261 48.3283 45.9261C53.8283 50.9261 49.8283 50.9261 45.8283 58.4261C41.8283 65.9261 49.8283 68.9261 60.8283 56.4261Z" fill="#FA7A23"/>
<mask id="mask4_579_1319" style="mask-type:alpha" maskUnits="userSpaceOnUse" x="44" y="34" width="21" height="31">
<path d="M60.8283 56.4261C69.6283 46.4261 61.8283 38.5928 56.8283 35.9261C50.7181 30.4261 42.8283 40.9261 48.3283 45.9261C53.8283 50.9261 49.8283 50.9261 45.8283 58.4261C41.8283 65.9261 49.8283 68.9261 60.8283 56.4261Z" fill="#FA7A23"/>
</mask>
<g mask="url(#mask4_579_1319)">
<g filter="url(#filter13_f_579_1319)">
<path d="M49.2822 55.874C60.4822 50.274 51.9488 45.5407 46.2822 43.874L43.2822 51.874C40.6155 55.5407 38.0822 61.474 49.2822 55.874Z" fill="#F8921E"/>
</g>
<g filter="url(#filter14_f_579_1319)">
<path d="M44.7822 64.374C56.7822 59.9289 61.7822 49.6455 62.2822 44.374H64.7822L66.2822 58.0514L46.2822 70.874L44.7822 64.374Z" fill="#FD402C"/>
</g>
</g>
<circle cx="26.5" cy="29" r="9" fill="url(#paint2_linear_579_1319)"/>
<ellipse cx="26" cy="29" rx="2" ry="4" fill="#C6500E"/>
<path d="M4.687 38.5374L6.42841 38.8857C6.61515 38.923 6.64896 39.1755 6.47863 39.2607L4.38894 40.3055C4.23611 40.3819 4.06402 40.2439 4.10547 40.0781L4.45375 38.685C4.47964 38.5814 4.58231 38.5165 4.687 38.5374Z" fill="#C6500E"/>
<path d="M3.58072 38.4458L2.48509 38.1368C2.31081 38.0877 2.16615 38.2769 2.25931 38.4322L3.20068 40.0011C3.2986 40.1643 3.54757 40.1114 3.5707 39.9225L3.72496 38.6626C3.73695 38.5646 3.6757 38.4725 3.58072 38.4458Z" fill="#C6500E"/>
<defs>
<filter id="filter0_f_579_1319" x="23.953" y="36.874" width="28.3381" height="28.4503" filterUnits="userSpaceOnUse" color-interpolation-filters="sRGB">
<feFlood flood-opacity="0" result="BackgroundImageFix"/>
<feBlend mode="normal" in="SourceGraphic" in2="BackgroundImageFix" result="shape"/>
<feGaussianBlur stdDeviation="2" result="effect1_foregroundBlur_579_1319"/>
</filter>
<filter id="filter1_f_579_1319" x="25.4822" y="36.074" width="32.1" height="37.1" filterUnits="userSpaceOnUse" color-interpolation-filters="sRGB">
<feFlood flood-opacity="0" result="BackgroundImageFix"/>
<feBlend mode="normal" in="SourceGraphic" in2="BackgroundImageFix" result="shape"/>
<feGaussianBlur stdDeviation="2.65" result="effect1_foregroundBlur_579_1319"/>
</filter>
<filter id="filter2_f_579_1319" x="37.4822" y="-4.06697" width="93.341" height="64.9125" filterUnits="userSpaceOnUse" color-interpolation-filters="sRGB">
<feFlood flood-opacity="0" result="BackgroundImageFix"/>
<feBlend mode="normal" in="SourceGraphic" in2="BackgroundImageFix" result="shape"/>
<feGaussianBlur stdDeviation="2.65" result="effect1_foregroundBlur_579_1319"/>
</filter>
<filter id="filter3_f_579_1319" x="28.0822" y="35.5014" width="87.5158" height="41.0726" filterUnits="userSpaceOnUse" color-interpolation-filters="sRGB">
<feFlood flood-opacity="0" result="BackgroundImageFix"/>
<feBlend mode="normal" in="SourceGraphic" in2="BackgroundImageFix" result="shape"/>
<feGaussianBlur stdDeviation="2.35" result="effect1_foregroundBlur_579_1319"/>
</filter>
<filter id="filter4_f_579_1319" x="78.1902" y="59.374" width="46.592" height="37" filterUnits="userSpaceOnUse" color-interpolation-filters="sRGB">
<feFlood flood-opacity="0" result="BackgroundImageFix"/>
<feBlend mode="normal" in="SourceGraphic" in2="BackgroundImageFix" result="shape"/>
<feGaussianBlur stdDeviation="2" result="effect1_foregroundBlur_579_1319"/>
</filter>
<filter id="filter5_f_579_1319" x="85.2822" y="56.7917" width="20.1926" height="17.9749" filterUnits="userSpaceOnUse" color-interpolation-filters="sRGB">
<feFlood flood-opacity="0" result="BackgroundImageFix"/>
<feBlend mode="normal" in="SourceGraphic" in2="BackgroundImageFix" result="shape"/>
<feGaussianBlur stdDeviation="2" result="effect1_foregroundBlur_579_1319"/>
</filter>
<filter id="filter6_f_579_1319" x="-6.51783" y="-5.70405" width="65.1315" height="76.7661" filterUnits="userSpaceOnUse" color-interpolation-filters="sRGB">
<feFlood flood-opacity="0" result="BackgroundImageFix"/>
<feBlend mode="normal" in="SourceGraphic" in2="BackgroundImageFix" result="shape"/>
<feGaussianBlur stdDeviation="5.15" result="effect1_foregroundBlur_579_1319"/>
</filter>
<filter id="filter7_f_579_1319" x="13.0575" y="0.986255" width="36.5636" height="30.4417" filterUnits="userSpaceOnUse" color-interpolation-filters="sRGB">
<feFlood flood-opacity="0" result="BackgroundImageFix"/>
<feBlend mode="normal" in="SourceGraphic" in2="BackgroundImageFix" result="shape"/>
<feGaussianBlur stdDeviation="2.4" result="effect1_foregroundBlur_579_1319"/>
</filter>
<filter id="filter8_f_579_1319" x="-3.287" y="6.70415" width="22.8833" height="26.1143" filterUnits="userSpaceOnUse" color-interpolation-filters="sRGB">
<feFlood flood-opacity="0" result="BackgroundImageFix"/>
<feBlend mode="normal" in="SourceGraphic" in2="BackgroundImageFix" result="shape"/>
<feGaussianBlur stdDeviation="2.4" result="effect1_foregroundBlur_579_1319"/>
</filter>
<filter id="filter9_f_579_1319" x="60.7822" y="20.374" width="39.2886" height="52.918" filterUnits="userSpaceOnUse" color-interpolation-filters="sRGB">
<feFlood flood-opacity="0" result="BackgroundImageFix"/>
<feBlend mode="normal" in="SourceGraphic" in2="BackgroundImageFix" result="shape"/>
<feGaussianBlur stdDeviation="0" result="effect1_foregroundBlur_579_1319"/>
</filter>
<filter id="filter10_f_579_1319" x="60.7822" y="20.374" width="39.2886" height="52.918" filterUnits="userSpaceOnUse" color-interpolation-filters="sRGB">
<feFlood flood-opacity="0" result="BackgroundImageFix"/>
<feBlend mode="normal" in="SourceGraphic" in2="BackgroundImageFix" result="shape"/>
<feGaussianBlur stdDeviation="0" result="effect1_foregroundBlur_579_1319"/>
</filter>
<filter id="filter11_f_579_1319" x="64.2822" y="49.374" width="29" height="20" filterUnits="userSpaceOnUse" color-interpolation-filters="sRGB">
<feFlood flood-opacity="0" result="BackgroundImageFix"/>
<feBlend mode="normal" in="SourceGraphic" in2="BackgroundImageFix" result="shape"/>
<feGaussianBlur stdDeviation="2" result="effect1_foregroundBlur_579_1319"/>
</filter>
<filter id="filter12_f_579_1319" x="64.6299" y="22.374" width="31.6522" height="31.4143" filterUnits="userSpaceOnUse" color-interpolation-filters="sRGB">
<feFlood flood-opacity="0" result="BackgroundImageFix"/>
<feBlend mode="normal" in="SourceGraphic" in2="BackgroundImageFix" result="shape"/>
<feGaussianBlur stdDeviation="2" result="effect1_foregroundBlur_579_1319"/>
</filter>
<filter id="filter13_f_579_1319" x="36.9973" y="39.874" width="21.7634" height="22.2992" filterUnits="userSpaceOnUse" color-interpolation-filters="sRGB">
<feFlood flood-opacity="0" result="BackgroundImageFix"/>
<feBlend mode="normal" in="SourceGraphic" in2="BackgroundImageFix" result="shape"/>
<feGaussianBlur stdDeviation="2" result="effect1_foregroundBlur_579_1319"/>
</filter>
<filter id="filter14_f_579_1319" x="39.4822" y="39.074" width="32.1" height="37.1" filterUnits="userSpaceOnUse" color-interpolation-filters="sRGB">
<feFlood flood-opacity="0" result="BackgroundImageFix"/>
<feBlend mode="normal" in="SourceGraphic" in2="BackgroundImageFix" result="shape"/>
<feGaussianBlur stdDeviation="2.65" result="effect1_foregroundBlur_579_1319"/>
</filter>
<linearGradient id="paint0_linear_579_1319" x1="7.5" y1="20" x2="7.5" y2="38" gradientUnits="userSpaceOnUse">
<stop stop-color="#F8CC39"/>
<stop offset="1" stop-color="#F5942D"/>
</linearGradient>
<linearGradient id="paint1_linear_579_1319" x1="63.0322" y1="36.374" x2="63.0322" y2="56.7991" gradientUnits="userSpaceOnUse">
<stop offset="0.197115" stop-color="#F98B25"/>
<stop offset="1" stop-color="#F82D0D"/>
</linearGradient>
<linearGradient id="paint2_linear_579_1319" x1="26.5" y1="20" x2="26.5" y2="38" gradientUnits="userSpaceOnUse">
<stop stop-color="#F8CC39"/>
<stop offset="1" stop-color="#F5942D"/>
</linearGradient>
</defs>
</svg>
