<svg width="18" height="15" viewBox="0 0 18 15" fill="none" xmlns="http://www.w3.org/2000/svg">
<path d="M3.02642 4.69686V9.62717M3.02642 9.62717C1.87252 9.55724 -0.246468 8.64111 0.508813 5.53606C1.45292 1.65475 4.8097 0.500846 6.06851 0.395946C7.07555 0.312026 9.98478 0.360979 11.3135 0.395946C16.034 0.52017 19.7265 8.8299 14.3556 9.41734M3.02642 9.62717C3.48098 11.1657 5.29224 14.2637 8.90081 14.3477C12.5094 14.4316 14.0409 11.0957 14.3556 9.41734M14.3556 9.41734V4.69686" stroke="white" stroke-width="0.7" stroke-linecap="round"/>
<path d="M5.96325 6.05957C4.91422 6.05957 4.80932 8.15758 5.85835 8.15758C7.22608 8.15758 6.90734 6.05957 5.96325 6.05957Z" fill="white"/>
<path d="M11.6051 6.16602C12.6541 6.16602 12.759 8.26402 11.71 8.26402C10.3423 8.26402 10.661 6.16602 11.6051 6.16602Z" fill="white"/>
<path d="M8.69085 9.94238C7.68381 9.94238 7.36212 10.362 7.32715 10.5718C7.39708 10.9564 7.76773 11.7257 8.69085 11.7257C9.61397 11.7257 9.98462 10.9564 10.0546 10.5718C10.0196 10.362 9.6979 9.94238 8.69085 9.94238Z" fill="white"/>
</svg>
