<svg width="320" height="320" viewBox="0 0 320 320" fill="none" xmlns="http://www.w3.org/2000/svg">
<path d="M20 0.75H300C310.631 0.75 319.25 9.36852 319.25 20V300C319.25 310.632 310.631 319.25 300 319.25H20C9.36852 319.25 0.75 310.632 0.75 300V20C0.75 9.36852 9.36852 0.75 20 0.75Z" fill="black" stroke="#898280" stroke-width="1.5"/>
<path d="M184.594 65.4842C368.265 77.2846 244.13 194.148 182.437 254.266C261.638 107.125 228.696 222.034 117.56 206.469C-21.1054 187.049 37.9442 56.0622 184.594 65.4842Z" fill="#898280"/>
<path d="M129.765 255.315C104.241 206.786 120.826 134.542 205.823 138.803C273.765 142.209 205.15 220.606 129.765 255.315Z" fill="black" stroke="black" stroke-width="0.865427"/>
<path d="M208.322 175.63C169.965 216.864 138.387 209.316 117.56 206.469C127.029 209.586 166.505 237.484 182.587 254.265L208.322 175.63Z" fill="#898280"/>
</svg>
