<svg width="113" height="140" viewBox="0 0 113 140" fill="none" xmlns="http://www.w3.org/2000/svg">
<path d="M95.6378 94.7877C97.1832 91.9922 101.469 86.6268 106.25 87.5296C106.453 90.5912 104.615 96.3289 95.6378 94.7877Z" fill="#D9D9D9"/>
<path d="M95.6378 94.7877C97.1832 91.9922 101.469 86.6268 106.25 87.5296C106.453 90.5912 104.615 96.3289 95.6378 94.7877Z" fill="url(#paint0_linear_2001_937)"/>
<path d="M95.6378 94.7877C97.1832 91.9922 101.469 86.6268 106.25 87.5296C106.453 90.5912 104.615 96.3289 95.6378 94.7877Z" fill="url(#paint1_linear_2001_937)"/>
<path d="M95.6378 94.7877C97.1832 91.9922 101.469 86.6268 106.25 87.5296C106.453 90.5912 104.615 96.3289 95.6378 94.7877Z" fill="url(#paint2_linear_2001_937)"/>
<path d="M68.8676 126.267C68.0696 120.102 64.1491 107.326 54.8508 105.542C52.294 110.938 51.5178 122.637 68.8676 126.267Z" fill="#D9D9D9"/>
<path d="M68.8676 126.267C68.0696 120.102 64.1491 107.326 54.8508 105.542C52.294 110.938 51.5178 122.637 68.8676 126.267Z" fill="url(#paint3_linear_2001_937)"/>
<path d="M68.8676 126.267C68.0696 120.102 64.1491 107.326 54.8508 105.542C52.294 110.938 51.5178 122.637 68.8676 126.267Z" fill="url(#paint4_linear_2001_937)"/>
<path d="M68.8676 126.267C68.0696 120.102 64.1491 107.326 54.8508 105.542C52.294 110.938 51.5178 122.637 68.8676 126.267Z" fill="url(#paint5_linear_2001_937)"/>
<path d="M79.3963 115.78C82.159 110.212 85.9999 97.4115 79.2616 90.7603C74.1372 93.8253 66.9899 103.12 79.3963 115.78Z" fill="#D9D9D9"/>
<path d="M79.3963 115.78C82.159 110.212 85.9999 97.4115 79.2616 90.7603C74.1372 93.8253 66.9899 103.12 79.3963 115.78Z" fill="url(#paint6_linear_2001_937)"/>
<path d="M79.3963 115.78C82.159 110.212 85.9999 97.4115 79.2616 90.7603C74.1372 93.8253 66.9899 103.12 79.3963 115.78Z" fill="url(#paint7_linear_2001_937)"/>
<path d="M79.3963 115.78C82.159 110.212 85.9999 97.4115 79.2616 90.7603C74.1372 93.8253 66.9899 103.12 79.3963 115.78Z" fill="url(#paint8_linear_2001_937)"/>
<path d="M69.2117 125.731C73.5087 121.239 84.2393 113.273 92.7858 117.347C91.6464 123.209 85.3365 133.091 69.2117 125.731Z" fill="#D9D9D9"/>
<path d="M69.2117 125.731C73.5087 121.239 84.2393 113.273 92.7858 117.347C91.6464 123.209 85.3365 133.091 69.2117 125.731Z" fill="url(#paint9_linear_2001_937)"/>
<path d="M69.2117 125.731C73.5087 121.239 84.2393 113.273 92.7858 117.347C91.6464 123.209 85.3365 133.091 69.2117 125.731Z" fill="url(#paint10_linear_2001_937)"/>
<path d="M69.2117 125.731C73.5087 121.239 84.2393 113.273 92.7858 117.347C91.6464 123.209 85.3365 133.091 69.2117 125.731Z" fill="url(#paint11_linear_2001_937)"/>
<path d="M103.375 80.3845C103.375 80.3845 96.4432 101.307 68.5451 128.455L66.3979 127.526C66.3979 127.526 94.9986 102.19 100.778 80.9846L103.375 80.3845Z" fill="url(#paint12_linear_2001_937)"/>
<path d="M103.375 80.3845C103.375 80.3845 96.4432 101.307 68.5451 128.455L66.3979 127.526C66.3979 127.526 94.9986 102.19 100.778 80.9846L103.375 80.3845Z" fill="url(#paint13_linear_2001_937)"/>
<path d="M103.375 80.3845C103.375 80.3845 96.4432 101.307 68.5451 128.455L66.3979 127.526C66.3979 127.526 94.9986 102.19 100.778 80.9846L103.375 80.3845Z" fill="url(#paint14_linear_2001_937)"/>
<path d="M103.375 80.3845C103.375 80.3845 96.4432 101.307 68.5451 128.455L66.3979 127.526C66.3979 127.526 94.9986 102.19 100.778 80.9846L103.375 80.3845Z" fill="url(#paint15_linear_2001_937)"/>
<circle cx="102.67" cy="77.6676" r="5.83535" transform="rotate(23.4057 102.67 77.6676)" fill="#D9D9D9"/>
<circle cx="102.67" cy="77.6676" r="5.83535" transform="rotate(23.4057 102.67 77.6676)" fill="url(#paint16_linear_2001_937)"/>
<circle cx="102.67" cy="77.6676" r="5.83535" transform="rotate(23.4057 102.67 77.6676)" fill="url(#paint17_linear_2001_937)"/>
<path d="M25.6714 78.4626C36.4608 69.1479 60.8933 53.8656 72.3085 67.255C86.5775 83.9917 58.2618 98.4935 25.6714 78.4626Z" fill="#D9D9D9"/>
<path d="M25.6714 78.4626C36.4608 69.1479 60.8933 53.8656 72.3085 67.255C86.5775 83.9917 58.2618 98.4935 25.6714 78.4626Z" fill="url(#paint18_linear_2001_937)"/>
<path d="M25.6714 78.4626C36.4608 69.1479 60.8933 53.8656 72.3085 67.255C86.5775 83.9917 58.2618 98.4935 25.6714 78.4626Z" fill="url(#paint19_linear_2001_937)"/>
<path d="M25.6714 78.4626C36.4608 69.1479 60.8933 53.8656 72.3085 67.255C86.5775 83.9917 58.2618 98.4935 25.6714 78.4626Z" fill="url(#paint20_linear_2001_937)"/>
<path d="M20.1524 85.9918C20.8644 80.0554 20.455 67.9741 13.1218 67.1408C3.95527 66.0991 5.54618 79.3484 20.1524 85.9918Z" fill="#D9D9D9"/>
<path d="M20.1524 85.9918C20.8644 80.0554 20.455 67.9741 13.1218 67.1408C3.95527 66.0991 5.54618 79.3484 20.1524 85.9918Z" fill="url(#paint21_linear_2001_937)"/>
<path d="M20.1524 85.9918C20.8644 80.0554 20.455 67.9741 13.1218 67.1408C3.95527 66.0991 5.54618 79.3484 20.1524 85.9918Z" fill="url(#paint22_linear_2001_937)"/>
<path d="M20.1524 85.9918C20.8644 80.0554 20.455 67.9741 13.1218 67.1408C3.95527 66.0991 5.54618 79.3484 20.1524 85.9918Z" fill="url(#paint23_linear_2001_937)"/>
<path d="M43.8404 55.6279C43.8404 55.6279 33.1859 74.0356 22.6814 88.4742L16.0449 88.0686C16.6317 87.5493 34.4738 68.1006 37.4803 55.2392L43.8404 55.6279Z" fill="url(#paint24_linear_2001_937)"/>
<path d="M40.0737 47.6039C53.8824 46.8042 67.3021 -11.2513 35.4693 5.48195C2.09422 -1.48913 28.3785 48.0846 40.0737 47.6039Z" fill="url(#paint25_linear_2001_937)"/>
<path d="M40.0737 47.6039C53.8824 46.8042 67.3021 -11.2513 35.4693 5.48195C2.09422 -1.48913 28.3785 48.0846 40.0737 47.6039Z" fill="url(#paint26_linear_2001_937)"/>
<path d="M43.0796 47.7175C32.9928 38.4207 59.2339 -14.5843 73.117 18.2776C103.1 33.9126 51.7464 55.4405 43.0796 47.7175Z" fill="url(#paint27_linear_2001_937)"/>
<path d="M43.0796 47.7175C32.9928 38.4207 59.2339 -14.5843 73.117 18.2776C103.1 33.9126 51.7464 55.4405 43.0796 47.7175Z" fill="url(#paint28_linear_2001_937)"/>
<path d="M43.9017 53.5735C36.8113 41.8304 76.8063 -1.74153 80.9635 33.6896C105.389 57.0731 50.0679 63.409 43.9017 53.5735Z" fill="url(#paint29_linear_2001_937)"/>
<path d="M43.9017 53.5735C36.8113 41.8304 76.8063 -1.74153 80.9635 33.6896C105.389 57.0731 50.0679 63.409 43.9017 53.5735Z" fill="url(#paint30_linear_2001_937)"/>
<path d="M34.096 51.8954C47.3248 48.2659 48.3419 -10.8702 20.9235 11.9525C-12.8905 12.0804 22.8512 54.7785 34.096 51.8954Z" fill="url(#paint31_linear_2001_937)"/>
<path d="M34.096 51.8954C47.3248 48.2659 48.3419 -10.8702 20.9235 11.9525C-12.8905 12.0804 22.8512 54.7785 34.096 51.8954Z" fill="url(#paint32_linear_2001_937)"/>
<path d="M39.5135 56.8112C61.9129 66.4865 83.5866 14.3169 48.1055 18.0227C19.939 -0.687078 11.9577 51.4188 39.5135 56.8112Z" fill="url(#paint33_linear_2001_937)"/>
<path d="M39.5135 56.8112C61.9129 66.4865 83.5866 14.3169 48.1055 18.0227C19.939 -0.687078 11.9577 51.4188 39.5135 56.8112Z" fill="url(#paint34_linear_2001_937)"/>
<defs>
<linearGradient id="paint0_linear_2001_937" x1="102.523" y1="87.0458" x2="94.511" y2="90.4028" gradientUnits="userSpaceOnUse">
<stop stop-color="#FFA345"/>
<stop offset="0.893609" stop-color="#E45003"/>
</linearGradient>
<linearGradient id="paint1_linear_2001_937" x1="106.203" y1="83.7071" x2="97.5304" y2="90.447" gradientUnits="userSpaceOnUse">
<stop stop-color="#FFA345"/>
<stop offset="0.539973" stop-color="#F36003"/>
<stop offset="1" stop-color="#9D0501"/>
</linearGradient>
<linearGradient id="paint2_linear_2001_937" x1="106.203" y1="83.7071" x2="88.3828" y2="86.3977" gradientUnits="userSpaceOnUse">
<stop stop-color="#FFA345"/>
<stop offset="0.283654" stop-color="#F36003"/>
<stop offset="0.596154" stop-color="#9D0501"/>
<stop offset="1" stop-color="#0F0E0E"/>
</linearGradient>
<linearGradient id="paint3_linear_2001_937" x1="61.9415" y1="107.331" x2="74.0427" y2="119.136" gradientUnits="userSpaceOnUse">
<stop stop-color="#FFA345"/>
<stop offset="0.893609" stop-color="#E45003"/>
</linearGradient>
<linearGradient id="paint4_linear_2001_937" x1="57.6685" y1="98.6563" x2="68.5461" y2="117.057" gradientUnits="userSpaceOnUse">
<stop stop-color="#FFA345"/>
<stop offset="0.539973" stop-color="#F36003"/>
<stop offset="1" stop-color="#9D0501"/>
</linearGradient>
<linearGradient id="paint5_linear_2001_937" x1="57.6685" y1="98.6563" x2="68.5461" y2="117.057" gradientUnits="userSpaceOnUse">
<stop stop-color="#FFA345"/>
<stop offset="0.283654" stop-color="#F36003"/>
<stop offset="0.596154" stop-color="#9D0501"/>
<stop offset="1" stop-color="#0F0E0E"/>
</linearGradient>
<linearGradient id="paint6_linear_2001_937" x1="84.1621" y1="96.1884" x2="87.6615" y2="112.728" gradientUnits="userSpaceOnUse">
<stop stop-color="#FFA345"/>
<stop offset="0.893609" stop-color="#E45003"/>
</linearGradient>
<linearGradient id="paint7_linear_2001_937" x1="85.4306" y1="86.6022" x2="84.2474" y2="107.945" gradientUnits="userSpaceOnUse">
<stop stop-color="#FFA345"/>
<stop offset="0.539973" stop-color="#F36003"/>
<stop offset="1" stop-color="#9D0501"/>
</linearGradient>
<linearGradient id="paint8_linear_2001_937" x1="85.4306" y1="86.6022" x2="84.2474" y2="107.945" gradientUnits="userSpaceOnUse">
<stop stop-color="#FFA345"/>
<stop offset="0.283654" stop-color="#F36003"/>
<stop offset="0.596154" stop-color="#9D0501"/>
<stop offset="1" stop-color="#0F0E0E"/>
</linearGradient>
<linearGradient id="paint9_linear_2001_937" x1="86.0145" y1="114.585" x2="69.2706" y2="116.92" gradientUnits="userSpaceOnUse">
<stop stop-color="#FFA345"/>
<stop offset="0.893609" stop-color="#E45003"/>
</linearGradient>
<linearGradient id="paint10_linear_2001_937" x1="94.5977" y1="110.132" x2="74.9299" y2="118.504" gradientUnits="userSpaceOnUse">
<stop stop-color="#FFA345"/>
<stop offset="0.539973" stop-color="#F36003"/>
<stop offset="1" stop-color="#9D0501"/>
</linearGradient>
<linearGradient id="paint11_linear_2001_937" x1="94.5977" y1="110.132" x2="74.9299" y2="118.504" gradientUnits="userSpaceOnUse">
<stop stop-color="#FFA345"/>
<stop offset="0.283654" stop-color="#F36003"/>
<stop offset="0.596154" stop-color="#9D0501"/>
<stop offset="1" stop-color="#0F0E0E"/>
</linearGradient>
<linearGradient id="paint12_linear_2001_937" x1="87.3081" y1="113.085" x2="91.5772" y2="153.491" gradientUnits="userSpaceOnUse">
<stop stop-color="#F36003"/>
<stop offset="0.885027" stop-color="#9D0501"/>
<stop offset="1" stop-color="#2B0200"/>
</linearGradient>
<linearGradient id="paint13_linear_2001_937" x1="100.585" y1="56.9889" x2="121.879" y2="82.059" gradientUnits="userSpaceOnUse">
<stop stop-color="#FFA345"/>
<stop offset="0.539973" stop-color="#F36003"/>
<stop offset="1" stop-color="#9D0501"/>
</linearGradient>
<linearGradient id="paint14_linear_2001_937" x1="100.585" y1="56.9889" x2="121.879" y2="82.059" gradientUnits="userSpaceOnUse">
<stop stop-color="#FFA345"/>
<stop offset="0.283654" stop-color="#F36003"/>
<stop offset="0.596154" stop-color="#9D0501"/>
<stop offset="1" stop-color="#0F0E0E"/>
</linearGradient>
<linearGradient id="paint15_linear_2001_937" x1="101.853" y1="81.0303" x2="113.883" y2="102.55" gradientUnits="userSpaceOnUse">
<stop stop-color="#FFA345"/>
<stop offset="0.283654" stop-color="#F36003"/>
<stop offset="0.596154" stop-color="#9D0501"/>
<stop offset="1" stop-color="#0F0E0E"/>
</linearGradient>
<linearGradient id="paint16_linear_2001_937" x1="109.553" y1="72.7674" x2="100.028" y2="82.1909" gradientUnits="userSpaceOnUse">
<stop stop-color="#FFA345"/>
<stop offset="0.766283" stop-color="#F36003"/>
</linearGradient>
<linearGradient id="paint17_linear_2001_937" x1="99.3947" y1="67.7315" x2="105.625" y2="79.3747" gradientUnits="userSpaceOnUse">
<stop stop-color="#FFA345"/>
<stop offset="0.539973" stop-color="#F36003"/>
<stop offset="1" stop-color="#9D0501"/>
</linearGradient>
<linearGradient id="paint18_linear_2001_937" x1="57.2692" y1="62.0046" x2="52.3776" y2="88.3579" gradientUnits="userSpaceOnUse">
<stop stop-color="#FFA345"/>
<stop offset="0.893609" stop-color="#F36003"/>
</linearGradient>
<linearGradient id="paint19_linear_2001_937" x1="48.6625" y1="45.4247" x2="47.9088" y2="81.7706" gradientUnits="userSpaceOnUse">
<stop stop-color="#FFA345"/>
<stop offset="0.539973" stop-color="#F36003"/>
<stop offset="1" stop-color="#9D0501"/>
</linearGradient>
<linearGradient id="paint20_linear_2001_937" x1="48.6625" y1="45.4247" x2="47.9275" y2="86.0666" gradientUnits="userSpaceOnUse">
<stop stop-color="#FFA345"/>
<stop offset="0.283654" stop-color="#F36003"/>
<stop offset="0.596154" stop-color="#9D0501"/>
<stop offset="1" stop-color="#0F0E0E"/>
</linearGradient>
<linearGradient id="paint21_linear_2001_937" x1="18.4729" y1="71.1423" x2="10.4512" y2="79.0201" gradientUnits="userSpaceOnUse">
<stop stop-color="#FFA345"/>
<stop offset="0.533289" stop-color="#F36003"/>
</linearGradient>
<linearGradient id="paint22_linear_2001_937" x1="26.2578" y1="70.2509" x2="13.7902" y2="79.031" gradientUnits="userSpaceOnUse">
<stop stop-color="#FFA345"/>
<stop offset="0.539973" stop-color="#F36003"/>
<stop offset="1" stop-color="#9D0501"/>
</linearGradient>
<linearGradient id="paint23_linear_2001_937" x1="26.2578" y1="70.2509" x2="11.2205" y2="81.4488" gradientUnits="userSpaceOnUse">
<stop stop-color="#FFA345"/>
<stop offset="0.283654" stop-color="#F36003"/>
<stop offset="0.596154" stop-color="#9D0501"/>
<stop offset="1" stop-color="#0F0E0E"/>
</linearGradient>
<linearGradient id="paint24_linear_2001_937" x1="44.5126" y1="48.2639" x2="48.8645" y2="85.1248" gradientUnits="userSpaceOnUse">
<stop stop-color="#FFA345"/>
<stop offset="0.283654" stop-color="#F36003"/>
<stop offset="0.596154" stop-color="#9D0501"/>
<stop offset="1" stop-color="#0F0E0E"/>
</linearGradient>
<linearGradient id="paint25_linear_2001_937" x1="39.0364" y1="5.04124" x2="48.2987" y2="42.3798" gradientUnits="userSpaceOnUse">
<stop stop-color="#FFA345"/>
<stop offset="0.474955" stop-color="#F36003"/>
</linearGradient>
<linearGradient id="paint26_linear_2001_937" x1="28.8449" y1="-14.5737" x2="53.3897" y2="27.0549" gradientUnits="userSpaceOnUse">
<stop stop-color="#FFA345"/>
<stop offset="0.539973" stop-color="#F36003"/>
<stop offset="1" stop-color="#9D0501"/>
</linearGradient>
<linearGradient id="paint27_linear_2001_937" x1="70.6587" y1="15.6964" x2="40.0477" y2="38.5198" gradientUnits="userSpaceOnUse">
<stop stop-color="#FFA345"/>
<stop offset="0.582506" stop-color="#F36003"/>
</linearGradient>
<linearGradient id="paint28_linear_2001_937" x1="90.8179" y1="7.04726" x2="45.7849" y2="23.5329" gradientUnits="userSpaceOnUse">
<stop stop-color="#FFA345"/>
<stop offset="0.539973" stop-color="#F36003"/>
<stop offset="1" stop-color="#9D0501"/>
</linearGradient>
<linearGradient id="paint29_linear_2001_937" x1="78.7544" y1="23.9077" x2="50.4788" y2="43.0753" gradientUnits="userSpaceOnUse">
<stop stop-color="#FFA345"/>
<stop offset="0.582506" stop-color="#F36003"/>
</linearGradient>
<linearGradient id="paint30_linear_2001_937" x1="101.096" y1="27.8472" x2="53.2509" y2="31.1057" gradientUnits="userSpaceOnUse">
<stop stop-color="#FFA345"/>
<stop offset="0.539973" stop-color="#F36003"/>
<stop offset="1" stop-color="#9D0501"/>
</linearGradient>
<linearGradient id="paint31_linear_2001_937" x1="27.4568" y1="6.53293" x2="25.4125" y2="38.6408" gradientUnits="userSpaceOnUse">
<stop stop-color="#FFA345"/>
<stop offset="0.913462" stop-color="#F36003"/>
</linearGradient>
<linearGradient id="paint32_linear_2001_937" x1="10.3526" y1="-6.14992" x2="42.7938" y2="29.1675" gradientUnits="userSpaceOnUse">
<stop stop-color="#FFA345"/>
<stop offset="0.539973" stop-color="#F36003"/>
<stop offset="1" stop-color="#9D0501"/>
</linearGradient>
<linearGradient id="paint33_linear_2001_937" x1="51.5528" y1="18.9294" x2="44.3005" y2="56.1764" gradientUnits="userSpaceOnUse">
<stop stop-color="#FFA345"/>
<stop offset="0.893609" stop-color="#F36003"/>
</linearGradient>
<linearGradient id="paint34_linear_2001_937" x1="47.6131" y1="-3.08398" x2="49.4688" y2="45.9795" gradientUnits="userSpaceOnUse">
<stop stop-color="#FFA345"/>
<stop offset="0.539973" stop-color="#F36003"/>
<stop offset="1" stop-color="#9D0501"/>
</linearGradient>
</defs>
</svg>
