<svg width="109" height="111" viewBox="0 0 109 111" fill="none" xmlns="http://www.w3.org/2000/svg">
<path d="M31.4267 1.02318C35.1497 3.62915 38.5228 6.51263 40.6651 7.44985L24.5984 20.7049C10.1384 0.219842 27.41 -1.78843 31.4267 1.02318Z" fill="url(#paint0_linear_492_1254)"/>
<path d="M22.9916 1.0232C29.7396 -1.54753 32.7655 6.64654 33.435 11.0649L24.5983 20.7049C21.7866 20.3032 14.5567 4.23661 22.9916 1.0232Z" fill="url(#paint1_linear_492_1254)"/>
<path d="M76.4134 1.00188C72.571 3.42839 69.3172 6.49133 67.175 7.42855L83.2417 20.6836C97.7017 0.198546 80.8317 -1.78838 76.4134 1.00188Z" fill="url(#paint2_linear_492_1254)"/>
<path d="M84.8485 1.00196C78.1005 -1.56877 75.0746 6.6253 74.4051 11.0436L83.2418 20.6836C86.0535 20.282 93.2834 4.21537 84.8485 1.00196Z" fill="url(#paint3_linear_492_1254)"/>
<path d="M53.5183 4.63831C94.89 4.63831 122.203 90.9967 55.5267 84.1684C-12.3551 93.005 10.9416 4.63831 53.5183 4.63831Z" fill="url(#paint4_linear_492_1254)"/>
<mask id="mask0_492_1254" style="mask-type:alpha" maskUnits="userSpaceOnUse" x="12" y="4" width="84" height="81">
<path d="M53.5183 4.63831C94.89 4.63831 122.203 90.9967 55.5267 84.1684C-12.3551 93.005 10.9416 4.63831 53.5183 4.63831Z" fill="url(#paint5_linear_492_1254)"/>
</mask>
<g mask="url(#mask0_492_1254)">
<g filter="url(#filter0_f_492_1254)">
<ellipse cx="53.9201" cy="48.42" rx="13.255" ry="10.845" fill="#FC4618"/>
</g>
</g>
<g filter="url(#filter1_f_492_1254)">
<path d="M44.28 85.775C50.064 85.4537 48.5645 72.2522 47.0917 65.6917C30.7037 52.8383 25.5356 58.7294 25 63.2817C29.0167 70.9133 38.496 86.0963 44.28 85.775Z" fill="url(#paint6_linear_492_1254)"/>
</g>
<mask id="mask1_492_1254" style="mask-type:alpha" maskUnits="userSpaceOnUse" x="24" y="57" width="25" height="29">
<path d="M43.8783 85.5367C49.6623 85.2154 48.1628 72.0139 46.69 65.4534C30.302 52.6 25.1339 58.4911 24.5983 63.0434C28.615 70.675 38.0943 85.8581 43.8783 85.5367Z" fill="url(#paint7_linear_492_1254)"/>
</mask>
<g mask="url(#mask1_492_1254)">
<g filter="url(#filter2_f_492_1254)">
<path d="M43.8783 85.135C39.701 84.171 31.1589 67.06 27.41 58.625L22.9917 59.83C22.349 69.47 35.0417 82.0556 41.4683 87.1434L43.8783 85.135Z" fill="#F75D13"/>
</g>
</g>
<g filter="url(#filter3_f_492_1254)">
<path d="M64.0951 85.775C58.3111 85.4537 59.8107 72.2522 61.2834 65.6917C77.6715 52.8383 82.8396 58.7294 83.3751 63.2817C79.3585 70.9133 69.8791 86.0963 64.0951 85.775Z" fill="url(#paint8_linear_492_1254)"/>
</g>
<g filter="url(#filter4_f_492_1254)">
<mask id="mask2_492_1254" style="mask-type:alpha" maskUnits="userSpaceOnUse" x="60" y="57" width="24" height="29">
<path d="M64.4968 85.5367C58.7128 85.2154 60.2123 72.0139 61.6851 65.4534C78.0731 52.6 83.2412 58.4911 83.7768 63.0434C79.7601 70.675 70.2808 85.8581 64.4968 85.5367Z" fill="url(#paint9_linear_492_1254)"/>
</mask>
<g mask="url(#mask2_492_1254)">
<g filter="url(#filter5_f_492_1254)">
<path d="M64.4968 85.135C68.6741 84.171 77.2162 67.06 80.9651 58.625L85.3835 59.83C86.0261 69.47 73.3335 82.0556 66.9068 87.1434L64.4968 85.135Z" fill="#F75D13"/>
</g>
</g>
</g>
<path d="M53.9205 4.23645C94.89 4.23665 105.333 73.3234 53.9205 48.8215C-1.10839 72.9217 12.951 4.23625 53.9205 4.23645Z" fill="url(#paint10_linear_492_1254)"/>
<mask id="mask3_492_1254" style="mask-type:alpha" maskUnits="userSpaceOnUse" x="17" y="4" width="72" height="51">
<path d="M53.9205 4.23645C94.89 4.23665 105.333 73.3234 53.9205 48.8215C-1.10839 72.9217 12.951 4.23625 53.9205 4.23645Z" fill="url(#paint11_linear_492_1254)"/>
</mask>
<g mask="url(#mask3_492_1254)">
<g filter="url(#filter6_f_492_1254)">
<ellipse cx="53.5183" cy="51.6333" rx="16.87" ry="11.6483" fill="#FB5E19"/>
</g>
<g filter="url(#filter7_f_492_1254)">
<ellipse cx="30.2217" cy="15.8851" rx="11.2467" ry="20.2195" transform="rotate(50.0604 30.2217 15.8851)" fill="#FB5E19"/>
</g>
<g filter="url(#filter8_f_492_1254)">
<ellipse cx="11.2467" cy="20.2195" rx="11.2467" ry="20.2195" transform="matrix(-0.641979 0.766722 0.766722 0.641979 67.9586 -5.80505)" fill="#FB5E19"/>
</g>
</g>
<circle cx="39.8617" cy="27.935" r="7.23001" fill="#FFC55F"/>
<ellipse cx="41.0667" cy="28.3367" rx="2.81167" ry="5.22167" fill="#CC4305"/>
<circle cx="67.9784" cy="27.935" r="7.23001" fill="#FFC55F"/>
<ellipse cx="65.9701" cy="28.3367" rx="2.81167" ry="5.22167" fill="#CC4305"/>
<defs>
<filter id="filter0_f_492_1254" x="23.865" y="20.775" width="60.11" height="55.2901" filterUnits="userSpaceOnUse" color-interpolation-filters="sRGB">
<feFlood flood-opacity="0" result="BackgroundImageFix"/>
<feBlend mode="normal" in="SourceGraphic" in2="BackgroundImageFix" result="shape"/>
<feGaussianBlur stdDeviation="8.4" result="effect1_foregroundBlur_492_1254"/>
</filter>
<filter id="filter1_f_492_1254" x="0" y="32.8966" width="73.4301" height="77.8834" filterUnits="userSpaceOnUse" color-interpolation-filters="sRGB">
<feFlood flood-opacity="0" result="BackgroundImageFix"/>
<feBlend mode="normal" in="SourceGraphic" in2="BackgroundImageFix" result="shape"/>
<feGaussianBlur stdDeviation="0" result="effect1_foregroundBlur_492_1254"/>
</filter>
<filter id="filter2_f_492_1254" x="18.5681" y="54.225" width="29.7102" height="37.3183" filterUnits="userSpaceOnUse" color-interpolation-filters="sRGB">
<feFlood flood-opacity="0" result="BackgroundImageFix"/>
<feBlend mode="normal" in="SourceGraphic" in2="BackgroundImageFix" result="shape"/>
<feGaussianBlur stdDeviation="2.2" result="effect1_foregroundBlur_492_1254"/>
</filter>
<filter id="filter3_f_492_1254" x="34.945" y="32.8966" width="73.4301" height="77.8834" filterUnits="userSpaceOnUse" color-interpolation-filters="sRGB">
<feFlood flood-opacity="0" result="BackgroundImageFix"/>
<feBlend mode="normal" in="SourceGraphic" in2="BackgroundImageFix" result="shape"/>
<feGaussianBlur stdDeviation="0" result="effect1_foregroundBlur_492_1254"/>
</filter>
<filter id="filter4_f_492_1254" x="54.4968" y="48.625" width="39.28" height="46.9167" filterUnits="userSpaceOnUse" color-interpolation-filters="sRGB">
<feFlood flood-opacity="0" result="BackgroundImageFix"/>
<feBlend mode="normal" in="SourceGraphic" in2="BackgroundImageFix" result="shape"/>
<feGaussianBlur stdDeviation="0" result="effect1_foregroundBlur_492_1254"/>
</filter>
<filter id="filter5_f_492_1254" x="60.0968" y="54.225" width="29.7102" height="37.3183" filterUnits="userSpaceOnUse" color-interpolation-filters="sRGB">
<feFlood flood-opacity="0" result="BackgroundImageFix"/>
<feBlend mode="normal" in="SourceGraphic" in2="BackgroundImageFix" result="shape"/>
<feGaussianBlur stdDeviation="2.2" result="effect1_foregroundBlur_492_1254"/>
</filter>
<filter id="filter6_f_492_1254" x="23.5483" y="26.885" width="59.9401" height="49.4966" filterUnits="userSpaceOnUse" color-interpolation-filters="sRGB">
<feFlood flood-opacity="0" result="BackgroundImageFix"/>
<feBlend mode="normal" in="SourceGraphic" in2="BackgroundImageFix" result="shape"/>
<feGaussianBlur stdDeviation="6.55" result="effect1_foregroundBlur_492_1254"/>
</filter>
<filter id="filter7_f_492_1254" x="-8.18403" y="-21.0003" width="76.8114" height="73.7708" filterUnits="userSpaceOnUse" color-interpolation-filters="sRGB">
<feFlood flood-opacity="0" result="BackgroundImageFix"/>
<feBlend mode="normal" in="SourceGraphic" in2="BackgroundImageFix" result="shape"/>
<feGaussianBlur stdDeviation="10.65" result="effect1_foregroundBlur_492_1254"/>
</filter>
<filter id="filter8_f_492_1254" x="37.8355" y="-21.0869" width="76.8114" height="73.7708" filterUnits="userSpaceOnUse" color-interpolation-filters="sRGB">
<feFlood flood-opacity="0" result="BackgroundImageFix"/>
<feBlend mode="normal" in="SourceGraphic" in2="BackgroundImageFix" result="shape"/>
<feGaussianBlur stdDeviation="10.65" result="effect1_foregroundBlur_492_1254"/>
</filter>
<linearGradient id="paint0_linear_492_1254" x1="29.8622" y1="-0.160485" x2="39.46" y2="9.85991" gradientUnits="userSpaceOnUse">
<stop stop-color="#F79A19"/>
<stop offset="1" stop-color="#FA711D"/>
</linearGradient>
<linearGradient id="paint1_linear_492_1254" x1="17.3683" y1="7.44994" x2="33.435" y2="11.4666" gradientUnits="userSpaceOnUse">
<stop offset="0.307692" stop-color="#FA8829"/>
<stop offset="1" stop-color="#FC5A1A"/>
</linearGradient>
<linearGradient id="paint2_linear_492_1254" x1="77.9778" y1="-0.181713" x2="68.3801" y2="9.83868" gradientUnits="userSpaceOnUse">
<stop stop-color="#F79A19"/>
<stop offset="1" stop-color="#FB6C1C"/>
</linearGradient>
<linearGradient id="paint3_linear_492_1254" x1="90.4718" y1="7.4287" x2="74.4051" y2="11.4454" gradientUnits="userSpaceOnUse">
<stop offset="0.307692" stop-color="#FA8829"/>
<stop offset="1" stop-color="#FC5A1A"/>
</linearGradient>
<linearGradient id="paint4_linear_492_1254" x1="54.2435" y1="4.63831" x2="54.2435" y2="84.7895" gradientUnits="userSpaceOnUse">
<stop offset="0.551448" stop-color="#FA7209"/>
<stop offset="1" stop-color="#FC4B31"/>
</linearGradient>
<linearGradient id="paint5_linear_492_1254" x1="54.2435" y1="4.63831" x2="54.2435" y2="84.7895" gradientUnits="userSpaceOnUse">
<stop offset="0.551448" stop-color="#FA7209"/>
<stop offset="1" stop-color="#FC4B31"/>
</linearGradient>
<linearGradient id="paint6_linear_492_1254" x1="43.8783" y1="62.0766" x2="45.8867" y2="88.185" gradientUnits="userSpaceOnUse">
<stop stop-color="#FD6013"/>
<stop offset="1" stop-color="#FFA012"/>
</linearGradient>
<linearGradient id="paint7_linear_492_1254" x1="43.4767" y1="61.8384" x2="45.485" y2="87.9467" gradientUnits="userSpaceOnUse">
<stop stop-color="#FD6013"/>
<stop offset="1" stop-color="#FFA012"/>
</linearGradient>
<linearGradient id="paint8_linear_492_1254" x1="64.4968" y1="62.0766" x2="62.4884" y2="88.185" gradientUnits="userSpaceOnUse">
<stop stop-color="#FD6013"/>
<stop offset="1" stop-color="#FFA012"/>
</linearGradient>
<linearGradient id="paint9_linear_492_1254" x1="64.8984" y1="61.8384" x2="62.8901" y2="87.9467" gradientUnits="userSpaceOnUse">
<stop stop-color="#FD6013"/>
<stop offset="1" stop-color="#FFA012"/>
</linearGradient>
<linearGradient id="paint10_linear_492_1254" x1="53.202" y1="4.23645" x2="53.202" y2="54.0792" gradientUnits="userSpaceOnUse">
<stop offset="0.196998" stop-color="#F99A26"/>
<stop offset="1" stop-color="#FF7D21"/>
</linearGradient>
<linearGradient id="paint11_linear_492_1254" x1="53.202" y1="4.23645" x2="53.202" y2="54.0792" gradientUnits="userSpaceOnUse">
<stop stop-color="#F99A26"/>
<stop offset="1" stop-color="#FA7818"/>
</linearGradient>
</defs>
</svg>
