<svg width="50" height="50" viewBox="0 0 50 50" fill="none" xmlns="http://www.w3.org/2000/svg">
<rect width="50" height="50" rx="25" fill="#1A1919"/>
<path d="M15.0354 17.8347C13.4048 16.2041 13.5389 14.8077 13.8267 13.7489C13.8639 13.6121 14.0492 13.5925 14.1288 13.7098C19.973 22.327 31.8059 16.0306 29.8861 7.7589C29.8598 7.6456 30.0043 7.5602 30.0841 7.64483L31.5969 9.24936L32.4165 7.56201C32.4603 7.47177 32.5932 7.48262 32.6254 7.57764C33.9931 11.6149 37.0351 13.2519 40.8465 13.3934C41.1522 13.4048 41.4034 13.6537 41.3817 13.9588C40.9584 19.9245 33.6463 17.8458 33.6463 17.8458C33.6463 17.8458 38.4259 23.1152 40.9072 25.2519C41.1632 25.4724 41.182 25.8683 40.938 26.1021L40.0511 26.9521C39.8677 27.1278 39.5884 27.1563 39.3733 27.0212L32.3862 22.6342L38.431 27.4042C38.6978 27.6147 38.7138 28.0137 38.4647 28.2449L37.3816 29.2504C37.1551 29.4606 36.7962 29.4393 36.5833 29.2152C27.8616 20.0346 16.8016 24.6892 13.0313 29.1831C12.7993 29.4596 12.3703 29.4775 12.1354 29.2035L11.2752 28.1999C11.0849 27.9778 11.1 27.6461 11.3097 27.4422L16.2568 22.6342L10.372 27.1067C10.1385 27.2841 9.8072 27.2488 9.61633 27.0261L8.75041 26.0159C8.57378 25.8098 8.57249 25.5061 8.74736 25.2985L15.0354 17.8347Z" fill="white"/>
<path d="M37.9943 35.1522C37.9943 35.1522 33.7846 42.5094 24.6731 42.5001C16.06 42.4913 11.7673 35.8445 11.7673 35.8445C11.7673 35.8445 15.5061 31.4134 20.2142 35.1245C18.5525 33.0751 19.6603 30.1753 22.1529 30.0286C23.6387 29.9412 24.6462 30.6651 25.1798 31.7411C25.6762 30.7385 26.6715 29.9302 28.2457 30.0286C30.57 30.1739 31.846 33.0751 30.212 35.0225C34.6155 31.6903 37.9943 35.1522 37.9943 35.1522Z" fill="url(#paint0_radial_2099_326)"/>
<defs>
<radialGradient id="paint0_radial_2099_326" cx="0" cy="0" r="1" gradientUnits="userSpaceOnUse" gradientTransform="translate(24.9499 42.5001) rotate(-90) scale(13.0165 23.5128)">
<stop stop-color="#9D0501"/>
<stop offset="0.5" stop-color="#DB4703"/>
<stop offset="1" stop-color="#EF8522"/>
</radialGradient>
</defs>
</svg>
