<svg width="844" height="142" viewBox="0 0 844 142" fill="none" xmlns="http://www.w3.org/2000/svg">
<path d="M156.643 42.2002C168.776 42.2003 178.376 45.3999 185.442 51.7998C192.642 58.0664 196.242 67.0666 196.242 78.7998V122.4C196.242 126.267 198.242 128.2 202.242 128.2C203.309 128.2 204.443 128.066 205.643 127.8V141.4C203.643 141.8 201.375 142 198.842 142C193.909 142 189.776 140.8 186.442 138.4C183.109 135.867 181.109 132.333 180.442 127.8C173.509 137.266 162.842 142 148.442 142C138.309 142 130.043 139.467 123.643 134.4C117.376 129.334 114.242 122.334 114.242 113.4C114.242 104.6 117.309 97.8669 123.442 93.2002C129.576 88.5335 137.242 85.7331 146.442 84.7998L180.242 81V79.2002C180.242 71.6002 177.976 65.7329 173.442 61.5996C168.909 57.4663 163.042 55.4004 155.842 55.4004C149.975 55.4005 144.975 56.9334 140.842 60C136.842 62.9333 134.175 66.9334 132.842 72L118.643 68.7998C120.776 60.1333 125.309 53.5333 132.242 49C139.176 44.4667 147.309 42.2002 156.643 42.2002ZM337.111 42.2002C349.244 42.2003 358.845 45.3999 365.911 51.7998C373.111 58.0664 376.711 67.0666 376.711 78.7998V122.4C376.711 126.267 378.711 128.2 382.711 128.2C383.778 128.2 384.911 128.066 386.111 127.8V141.4C384.111 141.8 381.844 142 379.311 142C374.378 142 370.244 140.8 366.911 138.4C363.578 135.867 361.578 132.333 360.911 127.8C353.978 137.266 343.311 142 328.911 142C318.778 142 310.511 139.467 304.111 134.4C297.845 129.334 294.711 122.334 294.711 113.4C294.711 104.6 297.778 97.8669 303.911 93.2002C310.044 88.5335 317.711 85.7331 326.911 84.7998L360.711 81V79.2002C360.711 71.6002 358.444 65.7329 353.911 61.5996C349.378 57.4663 343.51 55.4004 336.311 55.4004C330.444 55.4005 325.444 56.9334 321.311 60C317.311 62.9333 314.644 66.9334 313.311 72L299.111 68.7998C301.245 60.1333 305.778 53.5333 312.711 49C319.644 44.4667 327.778 42.2002 337.111 42.2002ZM603.639 60.4004C611.239 48.2672 622.906 42.2003 638.639 42.2002C652.105 42.2002 663.306 46.8669 672.239 56.2002C681.172 65.5335 685.639 77.5336 685.639 92.2002C685.639 106.867 681.173 118.867 672.239 128.2C663.306 137.4 652.172 142 638.839 142C622.972 142 611.239 135.866 603.639 123.6V140H587.639V0H603.639V60.4004ZM753.1 42.2002C767.366 42.2002 779.234 46.8669 788.7 56.2002C798.167 65.4001 802.9 77.5332 802.9 92.5996C802.9 107.133 798.167 119 788.7 128.2C779.234 137.4 767.366 142 753.1 142C738.833 142 726.967 137.467 717.5 128.4C708.033 119.2 703.3 107.266 703.3 92.5996C703.3 77.5332 707.967 65.4001 717.3 56.2002C726.766 46.8669 738.7 42.2003 753.1 42.2002ZM16.4004 72.2002L85 0H105.2L49.7998 60.2002L108.2 140H87.4004L37.4004 72.7998L16.4004 93.7998V140H0V0H16.4004V72.2002ZM272.083 42.2002C277.816 42.2002 282.616 42.9997 286.482 44.5996L284.083 59.5996C279.683 57.8663 274.949 57 269.883 57C262.016 57 255.616 59.7335 250.683 65.2002C245.883 70.5335 243.482 77.867 243.482 87.2002V140H227.482V44.2002H243.482V57C249.749 47.1333 259.283 42.2002 272.083 42.2002ZM519.951 42.2002C531.151 42.2002 540.151 45.4 546.951 51.7998C553.884 58.1998 557.352 67.1999 557.352 78.7998V140H541.352V82.4004C541.352 74.1339 539.018 67.8004 534.352 63.4004C529.818 59.0004 523.685 56.7998 515.951 56.7998C508.351 56.7999 502.218 59.4667 497.552 64.7998C492.885 69.9998 490.552 77.1335 490.552 86.2002V140H474.552V82.4004C474.552 74.0007 472.285 67.6671 467.752 63.4004C463.219 59.0004 457.085 56.7998 449.352 56.7998C441.752 56.7998 435.618 59.4665 430.951 64.7998C426.285 69.9998 423.951 77.1336 423.951 86.2002V140H407.951V44.2002H423.951V57.2002C430.351 47.2002 440.152 42.2002 453.352 42.2002C470.551 42.2002 482.019 48.9997 487.752 62.5996C490.419 56.1998 494.551 51.1995 500.151 47.5996C505.751 43.9997 512.351 42.2002 519.951 42.2002ZM843.287 140H827.287V0H843.287V140ZM149.042 97.2002C136.509 98.5336 130.242 103.867 130.242 113.2C130.242 118.667 132.509 122.8 137.042 125.6C141.709 128.4 147.243 129.6 153.643 129.2C161.776 128.667 168.242 125.933 173.042 121C177.842 115.933 180.242 109.067 180.242 100.4V93.5996L149.042 97.2002ZM329.511 97.2002C316.978 98.5336 310.711 103.867 310.711 113.2C310.711 118.667 312.978 122.8 317.511 125.6C322.177 128.4 327.711 129.6 334.111 129.2C342.244 128.667 348.711 125.933 353.511 121C358.311 115.933 360.711 109.067 360.711 100.4V93.5996L329.511 97.2002ZM636.039 56.4004C626.572 56.4004 618.772 59.7337 612.639 66.4004C606.639 73.067 603.639 81.6671 603.639 92.2002C603.639 102.733 606.639 111.333 612.639 118C618.772 124.533 626.572 127.8 636.039 127.8C645.506 127.8 653.372 124.533 659.639 118C666.039 111.467 669.239 102.867 669.239 92.2002C669.239 81.5335 666.039 72.9337 659.639 66.4004C653.372 59.7337 645.506 56.4004 636.039 56.4004ZM753.1 56.7998C743.5 56.7999 735.5 60.0664 729.1 66.5996C722.833 72.9996 719.7 81.6004 719.7 92.4004C719.7 102.933 722.833 111.467 729.1 118C735.5 124.4 743.5 127.6 753.1 127.6C762.566 127.6 770.5 124.4 776.9 118C783.3 111.467 786.5 102.933 786.5 92.4004C786.5 81.6004 783.3 72.9996 776.9 66.5996C770.634 60.0663 762.7 56.7998 753.1 56.7998Z" fill="url(#paint0_radial_203_913)"/>
<defs>
<radialGradient id="paint0_radial_203_913" cx="0" cy="0" r="1" gradientUnits="userSpaceOnUse" gradientTransform="translate(422 142) rotate(-90) scale(196.5 421)">
<stop stop-color="#FF6E51"/>
<stop offset="0.278846" stop-color="#D02B25"/>
<stop offset="0.644231" stop-color="#A31D18"/>
<stop offset="1" stop-color="#73100D"/>
</radialGradient>
</defs>
</svg>
