<svg width="279" height="146" viewBox="0 0 279 146" fill="none" xmlns="http://www.w3.org/2000/svg">
<rect x="0.5" y="0.5" width="278" height="145" rx="4.5" stroke="white" stroke-dasharray="10 5"/>
<rect x="20" y="20" width="239" height="42" rx="21" fill="white"/>
<path d="M58.8681 47.18C57.0921 47.18 55.6101 46.574 54.4221 45.362C53.2341 44.15 52.6401 42.59 52.6401 40.682C52.6401 38.762 53.2281 37.208 54.4041 36.02C55.5921 34.82 57.0801 34.22 58.8681 34.22C60.2721 34.22 61.4961 34.568 62.5401 35.264C63.5841 35.948 64.2561 36.872 64.5561 38.036L63.1161 38.504C62.9001 37.676 62.4021 36.998 61.6221 36.47C60.8541 35.93 59.9361 35.66 58.8681 35.66C57.5241 35.66 56.4081 36.122 55.5201 37.046C54.6441 37.97 54.2061 39.182 54.2061 40.682C54.2061 42.182 54.6441 43.4 55.5201 44.336C56.4081 45.272 57.5241 45.74 58.8681 45.74C59.9361 45.74 60.8601 45.476 61.6401 44.948C62.4201 44.408 62.9181 43.718 63.1341 42.878L64.5561 43.364C64.2561 44.528 63.5841 45.458 62.5401 46.154C61.4961 46.838 60.2721 47.18 58.8681 47.18ZM71.4266 38.198C72.6386 38.198 73.6466 38.618 74.4506 39.458C75.2546 40.298 75.6566 41.378 75.6566 42.698C75.6566 44.018 75.2546 45.098 74.4506 45.938C73.6466 46.766 72.6446 47.18 71.4446 47.18C70.0166 47.18 68.9606 46.628 68.2766 45.524V50.6H66.8366V38.378H68.2766V39.836C68.9606 38.744 70.0106 38.198 71.4266 38.198ZM69.0866 45.02C69.6386 45.608 70.3406 45.902 71.1926 45.902C72.0446 45.902 72.7526 45.608 73.3166 45.02C73.8926 44.432 74.1806 43.658 74.1806 42.698C74.1806 41.738 73.8926 40.964 73.3166 40.376C72.7526 39.776 72.0446 39.476 71.1926 39.476C70.3406 39.476 69.6386 39.776 69.0866 40.376C68.5466 40.976 68.2766 41.75 68.2766 42.698C68.2766 43.646 68.5466 44.42 69.0866 45.02ZM84.9321 45.938C84.0801 46.766 83.0121 47.18 81.7281 47.18C80.4441 47.18 79.3761 46.772 78.5241 45.956C77.6721 45.128 77.2461 44.054 77.2461 42.734C77.2461 41.378 77.6661 40.286 78.5061 39.458C79.3581 38.618 80.4321 38.198 81.7281 38.198C83.0121 38.198 84.0801 38.618 84.9321 39.458C85.7841 40.286 86.2101 41.378 86.2101 42.734C86.2101 44.042 85.7841 45.11 84.9321 45.938ZM81.7281 45.884C82.5801 45.884 83.2941 45.596 83.8701 45.02C84.4461 44.432 84.7341 43.664 84.7341 42.716C84.7341 41.744 84.4461 40.97 83.8701 40.394C83.3061 39.806 82.5921 39.512 81.7281 39.512C80.8641 39.512 80.1441 39.806 79.5681 40.394C79.0041 40.97 78.7221 41.744 78.7221 42.716C78.7221 43.664 79.0041 44.432 79.5681 45.02C80.1441 45.596 80.8641 45.884 81.7281 45.884ZM93.751 38.378H95.191V47H93.751V43.382C93.163 44.27 92.281 44.714 91.105 44.714C90.097 44.714 89.287 44.426 88.675 43.85C88.063 43.274 87.757 42.458 87.757 41.402V38.378H89.197V41.096C89.197 41.852 89.401 42.422 89.809 42.806C90.229 43.19 90.787 43.382 91.483 43.382C92.167 43.382 92.713 43.148 93.121 42.68C93.541 42.212 93.751 41.57 93.751 40.754V38.378ZM98.0026 47V38.378H99.4426V42.05H104.159V38.378H105.599V47H104.159V43.364H99.4426V47H98.0026ZM108.426 47V38.378H109.866V41.15H112.566C113.598 41.15 114.408 41.42 114.996 41.96C115.584 42.488 115.878 43.208 115.878 44.12C115.878 45.008 115.584 45.71 114.996 46.226C114.408 46.742 113.598 47 112.566 47H108.426ZM117.138 47V38.378H118.578V47H117.138ZM109.866 45.686H112.62C113.148 45.686 113.574 45.542 113.898 45.254C114.234 44.966 114.402 44.576 114.402 44.084C114.402 43.58 114.234 43.184 113.898 42.896C113.574 42.596 113.148 42.446 112.62 42.446H109.866V45.686ZM125.058 36.866C124.326 36.866 123.732 36.632 123.276 36.164C122.82 35.696 122.592 35.084 122.592 34.328H123.672C123.672 34.796 123.798 35.174 124.05 35.462C124.302 35.75 124.638 35.894 125.058 35.894C125.478 35.894 125.82 35.75 126.084 35.462C126.348 35.174 126.48 34.796 126.48 34.328H127.56C127.56 35.084 127.326 35.696 126.858 36.164C126.402 36.632 125.802 36.866 125.058 36.866ZM121.206 47V38.378H122.646V44.606L127.65 38.378H128.874V47H127.434V40.754L122.43 47H121.206ZM141.142 38.378H142.582V47H141.142V43.382C140.554 44.27 139.672 44.714 138.496 44.714C137.488 44.714 136.678 44.426 136.066 43.85C135.454 43.274 135.148 42.458 135.148 41.402V38.378H136.588V41.096C136.588 41.852 136.792 42.422 137.2 42.806C137.62 43.19 138.178 43.382 138.874 43.382C139.558 43.382 140.104 43.148 140.512 42.68C140.932 42.212 141.142 41.57 141.142 40.754V38.378ZM149.119 47.18C147.871 47.18 146.839 46.772 146.023 45.956C145.207 45.128 144.799 44.042 144.799 42.698C144.799 41.354 145.201 40.268 146.005 39.44C146.821 38.612 147.847 38.198 149.083 38.198C150.307 38.198 151.303 38.594 152.071 39.386C152.851 40.178 153.241 41.228 153.241 42.536C153.241 42.68 153.229 42.836 153.205 43.004H146.239C146.287 43.916 146.575 44.642 147.103 45.182C147.631 45.722 148.303 45.992 149.119 45.992C149.743 45.992 150.283 45.842 150.739 45.542C151.195 45.23 151.483 44.81 151.603 44.282L152.881 44.696C152.665 45.476 152.209 46.088 151.513 46.532C150.829 46.964 150.031 47.18 149.119 47.18ZM146.311 41.87H151.819C151.723 41.138 151.429 40.544 150.937 40.088C150.445 39.632 149.833 39.404 149.101 39.404C148.381 39.404 147.769 39.626 147.265 40.07C146.761 40.514 146.443 41.114 146.311 41.87ZM155.43 47V38.378H156.87V41.906H158.652L161.046 38.378H162.612L159.84 42.5L162.936 47H161.28L158.652 43.22H156.87V47H155.43ZM163.454 47.18V45.866H163.85C164.846 45.866 165.38 45.302 165.452 44.174L165.884 38.378H172.778V47H171.338V39.692H167.234L166.892 44.21C166.82 45.17 166.526 45.908 166.01 46.424C165.494 46.928 164.774 47.18 163.85 47.18H163.454ZM175.592 47V38.378H177.032V44.606L182.036 38.378H183.26V47H181.82V40.754L176.816 47H175.592ZM189.831 47.18C188.583 47.18 187.545 46.766 186.717 45.938C185.889 45.11 185.475 44.036 185.475 42.716C185.475 41.396 185.883 40.316 186.699 39.476C187.527 38.624 188.571 38.198 189.831 38.198C190.767 38.198 191.589 38.426 192.297 38.882C193.005 39.326 193.467 39.938 193.683 40.718L192.405 41.168C192.285 40.664 191.991 40.262 191.523 39.962C191.055 39.662 190.509 39.512 189.885 39.512C189.045 39.512 188.343 39.812 187.779 40.412C187.227 41 186.951 41.762 186.951 42.698C186.951 43.646 187.227 44.414 187.779 45.002C188.343 45.59 189.051 45.884 189.903 45.884C190.515 45.884 191.055 45.734 191.523 45.434C191.991 45.122 192.285 44.714 192.405 44.21L193.683 44.642C193.467 45.434 193.005 46.058 192.297 46.514C191.589 46.958 190.767 47.18 189.831 47.18ZM197.591 47V39.692H194.603V38.378H202.001V39.692H199.031V47H197.591Z" fill="black"/>
<path d="M214.5 41.25C214.086 41.25 213.75 41.5858 213.75 42C213.75 42.4142 214.086 42.75 214.5 42.75V42V41.25ZM228.03 42.5303C228.323 42.2374 228.323 41.7626 228.03 41.4697L223.257 36.6967C222.964 36.4038 222.49 36.4038 222.197 36.6967C221.904 36.9896 221.904 37.4645 222.197 37.7574L226.439 42L222.197 46.2426C221.904 46.5355 221.904 47.0104 222.197 47.3033C222.49 47.5962 222.964 47.5962 223.257 47.3033L228.03 42.5303ZM214.5 42V42.75H227.5V42V41.25H214.5V42Z" fill="black"/>
<rect x="20" y="82" width="239" height="42" rx="21" fill="#444040"/>
<path d="M58.8681 109.18C57.0921 109.18 55.6101 108.574 54.4221 107.362C53.2341 106.15 52.6401 104.59 52.6401 102.682C52.6401 100.762 53.2281 99.208 54.4041 98.02C55.5921 96.82 57.0801 96.22 58.8681 96.22C60.2721 96.22 61.4961 96.568 62.5401 97.264C63.5841 97.948 64.2561 98.872 64.5561 100.036L63.1161 100.504C62.9001 99.676 62.4021 98.998 61.6221 98.47C60.8541 97.93 59.9361 97.66 58.8681 97.66C57.5241 97.66 56.4081 98.122 55.5201 99.046C54.6441 99.97 54.2061 101.182 54.2061 102.682C54.2061 104.182 54.6441 105.4 55.5201 106.336C56.4081 107.272 57.5241 107.74 58.8681 107.74C59.9361 107.74 60.8601 107.476 61.6401 106.948C62.4201 106.408 62.9181 105.718 63.1341 104.878L64.5561 105.364C64.2561 106.528 63.5841 107.458 62.5401 108.154C61.4961 108.838 60.2721 109.18 58.8681 109.18ZM71.4266 100.198C72.6386 100.198 73.6466 100.618 74.4506 101.458C75.2546 102.298 75.6566 103.378 75.6566 104.698C75.6566 106.018 75.2546 107.098 74.4506 107.938C73.6466 108.766 72.6446 109.18 71.4446 109.18C70.0166 109.18 68.9606 108.628 68.2766 107.524V112.6H66.8366V100.378H68.2766V101.836C68.9606 100.744 70.0106 100.198 71.4266 100.198ZM69.0866 107.02C69.6386 107.608 70.3406 107.902 71.1926 107.902C72.0446 107.902 72.7526 107.608 73.3166 107.02C73.8926 106.432 74.1806 105.658 74.1806 104.698C74.1806 103.738 73.8926 102.964 73.3166 102.376C72.7526 101.776 72.0446 101.476 71.1926 101.476C70.3406 101.476 69.6386 101.776 69.0866 102.376C68.5466 102.976 68.2766 103.75 68.2766 104.698C68.2766 105.646 68.5466 106.42 69.0866 107.02ZM84.9321 107.938C84.0801 108.766 83.0121 109.18 81.7281 109.18C80.4441 109.18 79.3761 108.772 78.5241 107.956C77.6721 107.128 77.2461 106.054 77.2461 104.734C77.2461 103.378 77.6661 102.286 78.5061 101.458C79.3581 100.618 80.4321 100.198 81.7281 100.198C83.0121 100.198 84.0801 100.618 84.9321 101.458C85.7841 102.286 86.2101 103.378 86.2101 104.734C86.2101 106.042 85.7841 107.11 84.9321 107.938ZM81.7281 107.884C82.5801 107.884 83.2941 107.596 83.8701 107.02C84.4461 106.432 84.7341 105.664 84.7341 104.716C84.7341 103.744 84.4461 102.97 83.8701 102.394C83.3061 101.806 82.5921 101.512 81.7281 101.512C80.8641 101.512 80.1441 101.806 79.5681 102.394C79.0041 102.97 78.7221 103.744 78.7221 104.716C78.7221 105.664 79.0041 106.432 79.5681 107.02C80.1441 107.596 80.8641 107.884 81.7281 107.884ZM93.751 100.378H95.191V109H93.751V105.382C93.163 106.27 92.281 106.714 91.105 106.714C90.097 106.714 89.287 106.426 88.675 105.85C88.063 105.274 87.757 104.458 87.757 103.402V100.378H89.197V103.096C89.197 103.852 89.401 104.422 89.809 104.806C90.229 105.19 90.787 105.382 91.483 105.382C92.167 105.382 92.713 105.148 93.121 104.68C93.541 104.212 93.751 103.57 93.751 102.754V100.378ZM98.0026 109V100.378H99.4426V104.05H104.159V100.378H105.599V109H104.159V105.364H99.4426V109H98.0026ZM108.426 109V100.378H109.866V103.15H112.566C113.598 103.15 114.408 103.42 114.996 103.96C115.584 104.488 115.878 105.208 115.878 106.12C115.878 107.008 115.584 107.71 114.996 108.226C114.408 108.742 113.598 109 112.566 109H108.426ZM117.138 109V100.378H118.578V109H117.138ZM109.866 107.686H112.62C113.148 107.686 113.574 107.542 113.898 107.254C114.234 106.966 114.402 106.576 114.402 106.084C114.402 105.58 114.234 105.184 113.898 104.896C113.574 104.596 113.148 104.446 112.62 104.446H109.866V107.686ZM125.058 98.866C124.326 98.866 123.732 98.632 123.276 98.164C122.82 97.696 122.592 97.084 122.592 96.328H123.672C123.672 96.796 123.798 97.174 124.05 97.462C124.302 97.75 124.638 97.894 125.058 97.894C125.478 97.894 125.82 97.75 126.084 97.462C126.348 97.174 126.48 96.796 126.48 96.328H127.56C127.56 97.084 127.326 97.696 126.858 98.164C126.402 98.632 125.802 98.866 125.058 98.866ZM121.206 109V100.378H122.646V106.606L127.65 100.378H128.874V109H127.434V102.754L122.43 109H121.206ZM141.142 100.378H142.582V109H141.142V105.382C140.554 106.27 139.672 106.714 138.496 106.714C137.488 106.714 136.678 106.426 136.066 105.85C135.454 105.274 135.148 104.458 135.148 103.402V100.378H136.588V103.096C136.588 103.852 136.792 104.422 137.2 104.806C137.62 105.19 138.178 105.382 138.874 105.382C139.558 105.382 140.104 105.148 140.512 104.68C140.932 104.212 141.142 103.57 141.142 102.754V100.378ZM149.119 109.18C147.871 109.18 146.839 108.772 146.023 107.956C145.207 107.128 144.799 106.042 144.799 104.698C144.799 103.354 145.201 102.268 146.005 101.44C146.821 100.612 147.847 100.198 149.083 100.198C150.307 100.198 151.303 100.594 152.071 101.386C152.851 102.178 153.241 103.228 153.241 104.536C153.241 104.68 153.229 104.836 153.205 105.004H146.239C146.287 105.916 146.575 106.642 147.103 107.182C147.631 107.722 148.303 107.992 149.119 107.992C149.743 107.992 150.283 107.842 150.739 107.542C151.195 107.23 151.483 106.81 151.603 106.282L152.881 106.696C152.665 107.476 152.209 108.088 151.513 108.532C150.829 108.964 150.031 109.18 149.119 109.18ZM146.311 103.87H151.819C151.723 103.138 151.429 102.544 150.937 102.088C150.445 101.632 149.833 101.404 149.101 101.404C148.381 101.404 147.769 101.626 147.265 102.07C146.761 102.514 146.443 103.114 146.311 103.87ZM155.43 109V100.378H156.87V103.906H158.652L161.046 100.378H162.612L159.84 104.5L162.936 109H161.28L158.652 105.22H156.87V109H155.43ZM163.454 109.18V107.866H163.85C164.846 107.866 165.38 107.302 165.452 106.174L165.884 100.378H172.778V109H171.338V101.692H167.234L166.892 106.21C166.82 107.17 166.526 107.908 166.01 108.424C165.494 108.928 164.774 109.18 163.85 109.18H163.454ZM175.592 109V100.378H177.032V106.606L182.036 100.378H183.26V109H181.82V102.754L176.816 109H175.592ZM189.831 109.18C188.583 109.18 187.545 108.766 186.717 107.938C185.889 107.11 185.475 106.036 185.475 104.716C185.475 103.396 185.883 102.316 186.699 101.476C187.527 100.624 188.571 100.198 189.831 100.198C190.767 100.198 191.589 100.426 192.297 100.882C193.005 101.326 193.467 101.938 193.683 102.718L192.405 103.168C192.285 102.664 191.991 102.262 191.523 101.962C191.055 101.662 190.509 101.512 189.885 101.512C189.045 101.512 188.343 101.812 187.779 102.412C187.227 103 186.951 103.762 186.951 104.698C186.951 105.646 187.227 106.414 187.779 107.002C188.343 107.59 189.051 107.884 189.903 107.884C190.515 107.884 191.055 107.734 191.523 107.434C191.991 107.122 192.285 106.714 192.405 106.21L193.683 106.642C193.467 107.434 193.005 108.058 192.297 108.514C191.589 108.958 190.767 109.18 189.831 109.18ZM197.591 109V101.692H194.603V100.378H202.001V101.692H199.031V109H197.591Z" fill="white"/>
<path d="M214.5 103.25C214.086 103.25 213.75 103.586 213.75 104C213.75 104.414 214.086 104.75 214.5 104.75V104V103.25ZM228.03 104.53C228.323 104.237 228.323 103.763 228.03 103.47L223.257 98.6967C222.964 98.4038 222.49 98.4038 222.197 98.6967C221.904 98.9896 221.904 99.4645 222.197 99.7574L226.439 104L222.197 108.243C221.904 108.536 221.904 109.01 222.197 109.303C222.49 109.596 222.964 109.596 223.257 109.303L228.03 104.53ZM214.5 104V104.75H227.5V104V103.25H214.5V104Z" fill="white"/>
</svg>
