<svg width="463" height="255" viewBox="0 0 463 255" fill="none" xmlns="http://www.w3.org/2000/svg">
<rect x="241.5" width="150" height="42" rx="21" fill="#D55023"/>
<path d="M265.838 26V14.768H261.806V13.4H271.346V14.768H267.314V26H265.838ZM271.974 26V17.378H273.414V23.606L278.418 17.378H279.642V26H278.202V19.754L273.198 26H271.974ZM282.451 26V17.378H290.047V26H288.607V18.692H283.891V26H282.451ZM299.949 24.938C299.097 25.766 298.029 26.18 296.745 26.18C295.461 26.18 294.393 25.772 293.541 24.956C292.689 24.128 292.263 23.054 292.263 21.734C292.263 20.378 292.683 19.286 293.523 18.458C294.375 17.618 295.449 17.198 296.745 17.198C298.029 17.198 299.097 17.618 299.949 18.458C300.801 19.286 301.227 20.378 301.227 21.734C301.227 23.042 300.801 24.11 299.949 24.938ZM296.745 24.884C297.597 24.884 298.311 24.596 298.887 24.02C299.463 23.432 299.751 22.664 299.751 21.716C299.751 20.744 299.463 19.97 298.887 19.394C298.323 18.806 297.609 18.512 296.745 18.512C295.881 18.512 295.161 18.806 294.585 19.394C294.021 19.97 293.739 20.744 293.739 21.716C293.739 22.664 294.021 23.432 294.585 24.02C295.161 24.596 295.881 24.884 296.745 24.884ZM303.422 26V17.378H309.344V18.692H304.862V26H303.422ZM315.465 17.198C316.677 17.198 317.685 17.618 318.489 18.458C319.293 19.298 319.695 20.378 319.695 21.698C319.695 23.018 319.293 24.098 318.489 24.938C317.685 25.766 316.683 26.18 315.483 26.18C314.055 26.18 312.999 25.628 312.315 24.524V29.6H310.875V17.378H312.315V18.836C312.999 17.744 314.049 17.198 315.465 17.198ZM313.125 24.02C313.677 24.608 314.379 24.902 315.231 24.902C316.083 24.902 316.791 24.608 317.355 24.02C317.931 23.432 318.219 22.658 318.219 21.698C318.219 20.738 317.931 19.964 317.355 19.376C316.791 18.776 316.083 18.476 315.231 18.476C314.379 18.476 313.677 18.776 313.125 19.376C312.585 19.976 312.315 20.75 312.315 21.698C312.315 22.646 312.585 23.42 313.125 24.02ZM329.222 24.938C329.318 24.938 329.42 24.926 329.528 24.902V26.126C329.348 26.162 329.144 26.18 328.916 26.18C328.472 26.18 328.1 26.072 327.8 25.856C327.5 25.628 327.32 25.31 327.26 24.902C326.636 25.754 325.676 26.18 324.38 26.18C323.468 26.18 322.724 25.952 322.148 25.496C321.584 25.04 321.302 24.41 321.302 23.606C321.302 22.814 321.578 22.208 322.13 21.788C322.682 21.368 323.372 21.116 324.2 21.032L327.242 20.69V20.528C327.242 19.844 327.038 19.316 326.63 18.944C326.222 18.572 325.694 18.386 325.046 18.386C324.518 18.386 324.068 18.524 323.696 18.8C323.336 19.064 323.096 19.424 322.976 19.88L321.698 19.592C321.89 18.812 322.298 18.218 322.922 17.81C323.546 17.402 324.278 17.198 325.118 17.198C326.21 17.198 327.074 17.486 327.71 18.062C328.358 18.626 328.682 19.436 328.682 20.492V24.416C328.682 24.764 328.862 24.938 329.222 24.938ZM324.848 25.028C325.58 24.98 326.162 24.734 326.594 24.29C327.026 23.834 327.242 23.216 327.242 22.436V21.824L324.434 22.148C323.306 22.268 322.742 22.748 322.742 23.588C322.742 24.08 322.946 24.452 323.354 24.704C323.774 24.956 324.272 25.064 324.848 25.028ZM335.472 29.6V26.162C334.08 26.042 332.964 25.586 332.124 24.794C331.296 23.99 330.882 22.97 330.882 21.734C330.882 20.462 331.296 19.424 332.124 18.62C332.964 17.804 334.08 17.336 335.472 17.216V13.4H336.768V17.234C338.16 17.354 339.282 17.822 340.134 18.638C340.986 19.442 341.412 20.474 341.412 21.734C341.412 22.946 340.986 23.954 340.134 24.758C339.282 25.55 338.16 26.012 336.768 26.144V29.6H335.472ZM335.472 24.83V18.548C334.524 18.644 333.768 18.974 333.204 19.538C332.64 20.102 332.358 20.834 332.358 21.734C332.358 22.586 332.64 23.294 333.204 23.858C333.768 24.41 334.524 24.734 335.472 24.83ZM336.768 24.83C337.716 24.71 338.478 24.374 339.054 23.822C339.642 23.27 339.936 22.574 339.936 21.734C339.936 20.858 339.642 20.138 339.054 19.574C338.478 19.01 337.716 18.668 336.768 18.548V24.83ZM343.605 26V17.378H345.045V23.606L350.049 17.378H351.273V26H349.833V19.754L344.829 26H343.605ZM354.082 26V17.378H355.522V20.906H357.304L359.698 17.378H361.264L358.492 21.5L361.588 26H359.932L357.304 22.22H355.522V26H354.082ZM370.355 24.938C370.451 24.938 370.553 24.926 370.661 24.902V26.126C370.481 26.162 370.277 26.18 370.049 26.18C369.605 26.18 369.233 26.072 368.933 25.856C368.633 25.628 368.453 25.31 368.393 24.902C367.769 25.754 366.809 26.18 365.513 26.18C364.601 26.18 363.857 25.952 363.281 25.496C362.717 25.04 362.435 24.41 362.435 23.606C362.435 22.814 362.711 22.208 363.263 21.788C363.815 21.368 364.505 21.116 365.333 21.032L368.375 20.69V20.528C368.375 19.844 368.171 19.316 367.763 18.944C367.355 18.572 366.827 18.386 366.179 18.386C365.651 18.386 365.201 18.524 364.829 18.8C364.469 19.064 364.229 19.424 364.109 19.88L362.831 19.592C363.023 18.812 363.431 18.218 364.055 17.81C364.679 17.402 365.411 17.198 366.251 17.198C367.343 17.198 368.207 17.486 368.843 18.062C369.491 18.626 369.815 19.436 369.815 20.492V24.416C369.815 24.764 369.995 24.938 370.355 24.938ZM365.981 25.028C366.713 24.98 367.295 24.734 367.727 24.29C368.159 23.834 368.375 23.216 368.375 22.436V21.824L365.567 22.148C364.439 22.268 363.875 22.748 363.875 23.588C363.875 24.08 364.079 24.452 364.487 24.704C364.907 24.956 365.405 25.064 365.981 25.028Z" fill="white"/>
<rect x="68" y="56" width="115" height="42" rx="21" fill="#961A22"/>
<path d="M89.62 82V69.4H91.096V75.016H97.756V69.4H99.214V82H97.756V76.384H91.096V82H89.62ZM105.962 82.18C104.714 82.18 103.682 81.772 102.866 80.956C102.05 80.128 101.642 79.042 101.642 77.698C101.642 76.354 102.044 75.268 102.848 74.44C103.664 73.612 104.69 73.198 105.926 73.198C107.15 73.198 108.146 73.594 108.914 74.386C109.694 75.178 110.084 76.228 110.084 77.536C110.084 77.68 110.072 77.836 110.048 78.004H103.082C103.13 78.916 103.418 79.642 103.946 80.182C104.474 80.722 105.146 80.992 105.962 80.992C106.586 80.992 107.126 80.842 107.582 80.542C108.038 80.23 108.326 79.81 108.446 79.282L109.724 79.696C109.508 80.476 109.052 81.088 108.356 81.532C107.672 81.964 106.874 82.18 105.962 82.18ZM103.154 76.87H108.662C108.566 76.138 108.272 75.544 107.78 75.088C107.288 74.632 106.676 74.404 105.944 74.404C105.224 74.404 104.612 74.626 104.108 75.07C103.604 75.514 103.286 76.114 103.154 76.87ZM116.125 71.866C115.393 71.866 114.799 71.632 114.343 71.164C113.887 70.696 113.659 70.084 113.659 69.328H114.739C114.739 69.796 114.865 70.174 115.117 70.462C115.369 70.75 115.705 70.894 116.125 70.894C116.545 70.894 116.887 70.75 117.151 70.462C117.415 70.174 117.547 69.796 117.547 69.328H118.627C118.627 70.084 118.393 70.696 117.925 71.164C117.469 71.632 116.869 71.866 116.125 71.866ZM112.273 82V73.378H113.713V79.606L118.717 73.378H119.941V82H118.501V75.754L113.497 82H112.273ZM131.318 73.378H132.83V82H131.39V76.132L128.294 82H127.286L124.19 76.096V82H122.75V73.378H124.28L127.808 80.182L131.318 73.378ZM135.652 82V73.378H137.092V79.606L142.096 73.378H143.32V82H141.88V75.754L136.876 82H135.652ZM146.129 82V73.378H147.569V77.05H152.285V73.378H153.725V82H152.285V78.364H147.569V82H146.129ZM156.552 82V73.378H162.474V74.692H157.992V82H156.552Z" fill="white"/>
<rect y="139" width="91" height="42" rx="21" fill="#E47A24"/>
<path d="M31.556 167.736V165H21.62V152.4H23.096V163.632H29.756V152.4H31.232V163.632H33.032V167.736H31.556ZM34.7985 165V156.378H39.3165C40.1685 156.378 40.8225 156.57 41.2785 156.954C41.7465 157.338 41.9805 157.878 41.9805 158.574C41.9805 158.994 41.8905 159.366 41.7105 159.69C41.5305 160.002 41.2725 160.23 40.9365 160.374C41.8125 160.698 42.2505 161.394 42.2505 162.462C42.2505 163.278 41.9985 163.908 41.4945 164.352C41.0025 164.784 40.2765 165 39.3165 165H34.7985ZM36.1845 159.816H39.3165C39.7365 159.816 40.0545 159.714 40.2705 159.51C40.4865 159.294 40.5945 159.006 40.5945 158.646C40.5945 157.926 40.1445 157.566 39.2445 157.566H36.1845V159.816ZM36.1845 163.812H39.2625C39.8025 163.812 40.2045 163.686 40.4685 163.434C40.7445 163.182 40.8825 162.834 40.8825 162.39C40.8825 161.478 40.3665 161.022 39.3345 161.022H36.1845V163.812ZM48.298 165.18C47.05 165.18 46.018 164.772 45.202 163.956C44.386 163.128 43.978 162.042 43.978 160.698C43.978 159.354 44.38 158.268 45.184 157.44C46 156.612 47.026 156.198 48.262 156.198C49.486 156.198 50.482 156.594 51.25 157.386C52.03 158.178 52.42 159.228 52.42 160.536C52.42 160.68 52.408 160.836 52.384 161.004H45.418C45.466 161.916 45.754 162.642 46.282 163.182C46.81 163.722 47.482 163.992 48.298 163.992C48.922 163.992 49.462 163.842 49.918 163.542C50.374 163.23 50.662 162.81 50.782 162.282L52.06 162.696C51.844 163.476 51.388 164.088 50.692 164.532C50.008 164.964 49.21 165.18 48.298 165.18ZM45.49 159.87H50.998C50.902 159.138 50.608 158.544 50.116 158.088C49.624 157.632 49.012 157.404 48.28 157.404C47.56 157.404 46.948 157.626 46.444 158.07C45.94 158.514 45.622 159.114 45.49 159.87ZM56.4811 165V157.692H53.4931V156.378H60.8911V157.692H57.9211V165H56.4811ZM69.9155 163.938C70.0115 163.938 70.1135 163.926 70.2215 163.902V165.126C70.0415 165.162 69.8375 165.18 69.6095 165.18C69.1655 165.18 68.7935 165.072 68.4935 164.856C68.1935 164.628 68.0135 164.31 67.9535 163.902C67.3295 164.754 66.3695 165.18 65.0735 165.18C64.1615 165.18 63.4175 164.952 62.8415 164.496C62.2775 164.04 61.9955 163.41 61.9955 162.606C61.9955 161.814 62.2715 161.208 62.8235 160.788C63.3755 160.368 64.0655 160.116 64.8935 160.032L67.9355 159.69V159.528C67.9355 158.844 67.7315 158.316 67.3235 157.944C66.9155 157.572 66.3875 157.386 65.7395 157.386C65.2115 157.386 64.7615 157.524 64.3895 157.8C64.0295 158.064 63.7895 158.424 63.6695 158.88L62.3915 158.592C62.5835 157.812 62.9915 157.218 63.6155 156.81C64.2395 156.402 64.9715 156.198 65.8115 156.198C66.9035 156.198 67.7675 156.486 68.4035 157.062C69.0515 157.626 69.3755 158.436 69.3755 159.492V163.416C69.3755 163.764 69.5555 163.938 69.9155 163.938ZM65.5415 164.028C66.2735 163.98 66.8555 163.734 67.2875 163.29C67.7195 162.834 67.9355 162.216 67.9355 161.436V160.824L65.1275 161.148C63.9995 161.268 63.4355 161.748 63.4355 162.588C63.4355 163.08 63.6395 163.452 64.0475 163.704C64.4675 163.956 64.9655 164.064 65.5415 164.028Z" fill="white"/>
<rect x="316" y="103" width="147" height="42" rx="21" fill="#961A22"/>
<path d="M337.62 129V116.4H339.096V122.106H340.95L344.964 116.4H346.782L342.3 122.7L347.052 129H345.162L340.95 123.474H339.096V129H337.62ZM355.236 127.938C354.384 128.766 353.316 129.18 352.032 129.18C350.748 129.18 349.68 128.772 348.828 127.956C347.976 127.128 347.55 126.054 347.55 124.734C347.55 123.378 347.97 122.286 348.81 121.458C349.662 120.618 350.736 120.198 352.032 120.198C353.316 120.198 354.384 120.618 355.236 121.458C356.088 122.286 356.514 123.378 356.514 124.734C356.514 126.042 356.088 127.11 355.236 127.938ZM352.032 127.884C352.884 127.884 353.598 127.596 354.174 127.02C354.75 126.432 355.038 125.664 355.038 124.716C355.038 123.744 354.75 122.97 354.174 122.394C353.61 121.806 352.896 121.512 352.032 121.512C351.168 121.512 350.448 121.806 349.872 122.394C349.308 122.97 349.026 123.744 349.026 124.716C349.026 125.664 349.308 126.432 349.872 127.02C350.448 127.596 351.168 127.884 352.032 127.884ZM367.277 120.378H368.789V129H367.349V123.132L364.253 129H363.245L360.149 123.096V129H358.709V120.378H360.239L363.767 127.182L367.277 120.378ZM371.611 129V120.378H379.207V129H377.767V121.692H373.051V129H371.611ZM389.109 127.938C388.257 128.766 387.189 129.18 385.905 129.18C384.621 129.18 383.553 128.772 382.701 127.956C381.849 127.128 381.423 126.054 381.423 124.734C381.423 123.378 381.843 122.286 382.683 121.458C383.535 120.618 384.609 120.198 385.905 120.198C387.189 120.198 388.257 120.618 389.109 121.458C389.961 122.286 390.387 123.378 390.387 124.734C390.387 126.042 389.961 127.11 389.109 127.938ZM385.905 127.884C386.757 127.884 387.471 127.596 388.047 127.02C388.623 126.432 388.911 125.664 388.911 124.716C388.911 123.744 388.623 122.97 388.047 122.394C387.483 121.806 386.769 121.512 385.905 121.512C385.041 121.512 384.321 121.806 383.745 122.394C383.181 122.97 382.899 123.744 382.899 124.716C382.899 125.664 383.181 126.432 383.745 127.02C384.321 127.596 385.041 127.884 385.905 127.884ZM392.582 129V120.378H394.022V124.05H398.738V120.378H400.178V129H398.738V125.364H394.022V129H392.582ZM406.732 129.18C405.484 129.18 404.452 128.772 403.636 127.956C402.82 127.128 402.412 126.042 402.412 124.698C402.412 123.354 402.814 122.268 403.618 121.44C404.434 120.612 405.46 120.198 406.696 120.198C407.92 120.198 408.916 120.594 409.684 121.386C410.464 122.178 410.854 123.228 410.854 124.536C410.854 124.68 410.842 124.836 410.818 125.004H403.852C403.9 125.916 404.188 126.642 404.716 127.182C405.244 127.722 405.916 127.992 406.732 127.992C407.356 127.992 407.896 127.842 408.352 127.542C408.808 127.23 409.096 126.81 409.216 126.282L410.494 126.696C410.278 127.476 409.822 128.088 409.126 128.532C408.442 128.964 407.644 129.18 406.732 129.18ZM403.924 123.87H409.432C409.336 123.138 409.042 122.544 408.55 122.088C408.058 121.632 407.446 121.404 406.714 121.404C405.994 121.404 405.382 121.626 404.878 122.07C404.374 122.514 404.056 123.114 403.924 123.87ZM413.043 129V120.378H414.483V124.05H419.199V120.378H420.639V129H419.199V125.364H414.483V129H413.043ZM425.339 129V121.692H422.351V120.378H429.749V121.692H426.779V129H425.339ZM431.447 129V120.378H432.887V123.15H435.587C436.619 123.15 437.429 123.42 438.017 123.96C438.605 124.488 438.899 125.208 438.899 126.12C438.899 127.008 438.605 127.71 438.017 128.226C437.429 128.742 436.619 129 435.587 129H431.447ZM440.159 129V120.378H441.599V129H440.159ZM432.887 127.686H435.641C436.169 127.686 436.595 127.542 436.919 127.254C437.255 126.966 437.423 126.576 437.423 126.084C437.423 125.58 437.255 125.184 436.919 124.896C436.595 124.596 436.169 124.446 435.641 124.446H432.887V127.686Z" fill="white"/>
<rect x="139" y="213" width="123" height="42" rx="21" fill="#D55023"/>
<path d="M165.138 239.18C163.722 239.18 162.588 238.736 161.736 237.848C160.884 236.948 160.458 235.766 160.458 234.302V226.4H161.916V234.32C161.916 235.34 162.216 236.168 162.816 236.804C163.416 237.428 164.19 237.74 165.138 237.74C166.098 237.74 166.866 237.428 167.442 236.804C168.03 236.168 168.324 235.34 168.324 234.32V226.4H169.8V234.338C169.8 235.79 169.374 236.96 168.522 237.848C167.67 238.736 166.542 239.18 165.138 239.18ZM175.464 239.18C174.588 239.18 173.832 238.988 173.196 238.604C172.572 238.208 172.164 237.668 171.972 236.984L173.196 236.588C173.316 237.02 173.574 237.362 173.97 237.614C174.378 237.854 174.858 237.974 175.41 237.974C175.998 237.974 176.472 237.848 176.832 237.596C177.192 237.344 177.372 237.008 177.372 236.588C177.372 236.372 177.324 236.192 177.228 236.048C177.132 235.904 176.976 235.79 176.76 235.706C176.544 235.61 176.34 235.538 176.148 235.49C175.956 235.442 175.686 235.388 175.338 235.328C174.99 235.268 174.726 235.22 174.546 235.184C174.366 235.136 174.12 235.07 173.808 234.986C173.496 234.902 173.25 234.8 173.07 234.68C172.902 234.56 172.722 234.416 172.53 234.248C172.338 234.08 172.2 233.87 172.116 233.618C172.032 233.366 171.99 233.084 171.99 232.772C171.99 231.98 172.284 231.356 172.872 230.9C173.472 230.432 174.252 230.198 175.212 230.198C176.052 230.198 176.766 230.39 177.354 230.774C177.954 231.146 178.35 231.686 178.542 232.394L177.3 232.79C177.192 232.346 176.94 232.004 176.544 231.764C176.16 231.512 175.716 231.386 175.212 231.386C174.672 231.386 174.246 231.512 173.934 231.764C173.622 232.004 173.466 232.322 173.466 232.718C173.466 233.138 173.616 233.438 173.916 233.618C174.216 233.786 174.672 233.924 175.284 234.032C176.4 234.224 177.15 234.404 177.534 234.572C178.41 234.98 178.848 235.634 178.848 236.534C178.848 237.338 178.53 237.98 177.894 238.46C177.258 238.94 176.448 239.18 175.464 239.18ZM184.661 239.18C183.413 239.18 182.381 238.772 181.565 237.956C180.749 237.128 180.341 236.042 180.341 234.698C180.341 233.354 180.743 232.268 181.547 231.44C182.363 230.612 183.389 230.198 184.625 230.198C185.849 230.198 186.845 230.594 187.613 231.386C188.393 232.178 188.783 233.228 188.783 234.536C188.783 234.68 188.771 234.836 188.747 235.004H181.781C181.829 235.916 182.117 236.642 182.645 237.182C183.173 237.722 183.845 237.992 184.661 237.992C185.285 237.992 185.825 237.842 186.281 237.542C186.737 237.23 187.025 236.81 187.145 236.282L188.423 236.696C188.207 237.476 187.751 238.088 187.055 238.532C186.371 238.964 185.573 239.18 184.661 239.18ZM181.853 233.87H187.361C187.265 233.138 186.971 232.544 186.479 232.088C185.987 231.632 185.375 231.404 184.643 231.404C183.923 231.404 183.311 231.626 182.807 232.07C182.303 232.514 181.985 233.114 181.853 233.87ZM194.986 230.198C195.502 230.198 195.934 230.27 196.282 230.414L196.066 231.764C195.67 231.608 195.244 231.53 194.788 231.53C194.08 231.53 193.504 231.776 193.06 232.268C192.628 232.748 192.412 233.408 192.412 234.248V239H190.972V230.378H192.412V231.53C192.976 230.642 193.834 230.198 194.986 230.198ZM202.438 239V226.4H210.61V227.768H203.914V232.268H210.25V233.618H203.914V239H202.438ZM212.98 239V226.4H214.42V239H212.98ZM224.308 237.938C223.456 238.766 222.388 239.18 221.104 239.18C219.82 239.18 218.752 238.772 217.9 237.956C217.048 237.128 216.622 236.054 216.622 234.734C216.622 233.378 217.042 232.286 217.882 231.458C218.734 230.618 219.808 230.198 221.104 230.198C222.388 230.198 223.456 230.618 224.308 231.458C225.16 232.286 225.586 233.378 225.586 234.734C225.586 236.042 225.16 237.11 224.308 237.938ZM221.104 237.884C221.956 237.884 222.67 237.596 223.246 237.02C223.822 236.432 224.11 235.664 224.11 234.716C224.11 233.744 223.822 232.97 223.246 232.394C222.682 231.806 221.968 231.512 221.104 231.512C220.24 231.512 219.52 231.806 218.944 232.394C218.38 232.97 218.098 233.744 218.098 234.716C218.098 235.664 218.38 236.432 218.944 237.02C219.52 237.596 220.24 237.884 221.104 237.884ZM239.341 230.378H240.835L237.775 239H236.191L233.707 232.178L231.241 239H229.639L226.597 230.378H228.091L230.539 237.452L233.023 230.378H234.409L236.893 237.452L239.341 230.378Z" fill="white"/>
<rect x="291" y="124" width="90" height="42" rx="21" fill="#E47A24"/>
<path d="M318.164 150.18C316.388 150.18 314.906 149.574 313.718 148.362C312.53 147.15 311.936 145.59 311.936 143.682C311.936 141.762 312.524 140.208 313.7 139.02C314.888 137.82 316.376 137.22 318.164 137.22C319.568 137.22 320.792 137.568 321.836 138.264C322.88 138.948 323.552 139.872 323.852 141.036L322.412 141.504C322.196 140.676 321.698 139.998 320.918 139.47C320.15 138.93 319.232 138.66 318.164 138.66C316.82 138.66 315.704 139.122 314.816 140.046C313.94 140.97 313.502 142.182 313.502 143.682C313.502 145.182 313.94 146.4 314.816 147.336C315.704 148.272 316.82 148.74 318.164 148.74C319.232 148.74 320.156 148.476 320.936 147.948C321.716 147.408 322.214 146.718 322.43 145.878L323.852 146.364C323.552 147.528 322.88 148.458 321.836 149.154C320.792 149.838 319.568 150.18 318.164 150.18ZM329.419 150.18C328.171 150.18 327.139 149.772 326.323 148.956C325.507 148.128 325.099 147.042 325.099 145.698C325.099 144.354 325.501 143.268 326.305 142.44C327.121 141.612 328.147 141.198 329.383 141.198C330.607 141.198 331.603 141.594 332.371 142.386C333.151 143.178 333.541 144.228 333.541 145.536C333.541 145.68 333.529 145.836 333.505 146.004H326.539C326.587 146.916 326.875 147.642 327.403 148.182C327.931 148.722 328.603 148.992 329.419 148.992C330.043 148.992 330.583 148.842 331.039 148.542C331.495 148.23 331.783 147.81 331.903 147.282L333.181 147.696C332.965 148.476 332.509 149.088 331.813 149.532C331.129 149.964 330.331 150.18 329.419 150.18ZM326.611 144.87H332.119C332.023 144.138 331.729 143.544 331.237 143.088C330.745 142.632 330.133 142.404 329.401 142.404C328.681 142.404 328.069 142.626 327.565 143.07C327.061 143.514 326.743 144.114 326.611 144.87ZM337.602 150V142.692H334.614V141.378H342.012V142.692H339.042V150H337.602ZM343.711 150V141.378H345.151V144.906H346.933L349.327 141.378H350.893L348.121 145.5L351.217 150H349.561L346.933 146.22H345.151V150H343.711ZM359.984 148.938C360.08 148.938 360.182 148.926 360.29 148.902V150.126C360.11 150.162 359.906 150.18 359.678 150.18C359.234 150.18 358.862 150.072 358.562 149.856C358.262 149.628 358.082 149.31 358.022 148.902C357.398 149.754 356.438 150.18 355.142 150.18C354.23 150.18 353.486 149.952 352.91 149.496C352.346 149.04 352.064 148.41 352.064 147.606C352.064 146.814 352.34 146.208 352.892 145.788C353.444 145.368 354.134 145.116 354.962 145.032L358.004 144.69V144.528C358.004 143.844 357.8 143.316 357.392 142.944C356.984 142.572 356.456 142.386 355.808 142.386C355.28 142.386 354.83 142.524 354.458 142.8C354.098 143.064 353.858 143.424 353.738 143.88L352.46 143.592C352.652 142.812 353.06 142.218 353.684 141.81C354.308 141.402 355.04 141.198 355.88 141.198C356.972 141.198 357.836 141.486 358.472 142.062C359.12 142.626 359.444 143.436 359.444 144.492V148.416C359.444 148.764 359.624 148.938 359.984 148.938ZM355.61 149.028C356.342 148.98 356.924 148.734 357.356 148.29C357.788 147.834 358.004 147.216 358.004 146.436V145.824L355.196 146.148C354.068 146.268 353.504 146.748 353.504 147.588C353.504 148.08 353.708 148.452 354.116 148.704C354.536 148.956 355.034 149.064 355.61 149.028Z" fill="white"/>
</svg>
